{"glyphs":{"0":{"ha":915,"x_min":79,"x_max":836,"o":"m 457 -14 q 180 89 271 -14 q 81 358 89 192 q 79 486 79 396 q 81 617 79 578 q 181 883 88 781 q 457 986 274 986 q 733 883 640 986 q 833 617 826 781 q 836 486 836 539 q 833 358 836 433 q 734 89 825 192 q 457 -14 643 -14 m 457 149 q 586 205 543 149 q 632 365 629 261 q 633 489 633 406 q 632 610 633 572 q 586 768 629 711 q 457 826 543 825 q 328 768 371 825 q 282 610 285 711 q 281 489 281 572 q 282 365 281 406 q 328 205 285 261 q 457 149 371 149 z "},"1":{"ha":644,"x_min":28,"x_max":547,"o":"m 385 0 q 361 10 371 0 q 351 33 351 19 l 351 750 l 142 589 q 121 582 133 582 q 94 596 104 582 l 35 674 q 28 693 28 683 q 43 721 28 710 l 354 963 q 389 972 369 972 l 514 972 q 538 963 528 972 q 547 939 547 953 l 547 33 q 538 10 547 19 q 514 0 528 0 l 385 0 z "},"2":{"ha":861,"x_min":63,"x_max":796,"o":"m 96 0 q 72 10 82 0 q 63 33 63 19 l 63 106 q 97 171 63 144 l 314 386 q 466 513 413 464 q 546 604 519 563 q 572 686 572 646 q 538 789 572 751 q 432 826 503 826 q 323 785 363 826 q 274 679 283 744 q 258 655 269 663 q 232 647 246 647 l 107 647 q 86 656 94 647 q 78 676 78 664 q 123 830 81 758 q 244 945 165 901 q 431 989 324 989 q 619 951 542 989 q 736 846 697 913 q 775 694 775 779 q 723 526 775 601 q 561 364 671 450 l 368 168 l 761 168 q 786 158 776 168 q 796 133 796 149 l 796 33 q 786 9 796 18 q 761 0 776 0 l 96 0 z "},"3":{"ha":876,"x_min":51,"x_max":817,"o":"m 433 -14 q 224 25 310 -14 q 97 123 139 64 q 51 244 54 182 q 60 265 51 257 q 81 274 68 274 l 208 274 q 250 246 239 274 q 433 147 281 147 q 566 186 518 147 q 614 297 614 225 q 570 402 614 369 q 442 435 526 435 l 299 435 q 275 444 285 435 q 265 468 265 454 l 265 528 q 283 569 265 554 l 531 811 l 135 811 q 110 821 119 811 q 100 844 100 831 l 100 938 q 110 963 100 953 q 135 972 119 972 l 732 972 q 757 963 747 972 q 767 938 767 953 l 767 853 q 749 814 767 829 l 510 568 l 526 567 q 738 486 660 556 q 817 288 817 417 q 767 128 817 196 q 631 23 718 60 q 433 -14 544 -14 z "},"4":{"ha":907,"x_min":42,"x_max":863,"o":"m 549 0 q 525 10 535 0 q 515 33 515 19 l 515 211 l 75 211 q 51 221 61 211 q 42 244 42 231 l 42 340 q 57 382 42 363 l 467 949 q 488 966 474 960 q 518 972 501 972 l 671 972 q 695 963 686 972 q 704 939 704 954 l 704 376 l 829 376 q 853 367 844 376 q 863 343 863 358 l 863 244 q 853 221 863 231 q 829 211 844 211 l 704 211 l 704 33 q 695 10 704 19 q 671 0 686 0 l 549 0 m 238 371 l 519 371 l 519 769 l 238 371 z "},"5":{"ha":863,"x_min":54,"x_max":807,"o":"m 426 -15 q 227 24 311 -15 q 100 126 143 63 q 54 264 57 190 l 54 267 q 63 285 54 278 q 83 293 72 293 l 215 293 q 256 265 247 293 q 320 175 275 204 q 426 146 365 146 q 555 193 504 146 q 606 324 606 240 q 555 445 606 399 q 426 492 504 492 q 358 481 385 492 q 307 450 332 469 q 294 442 304 449 q 277 432 285 435 q 261 429 269 429 l 131 429 q 109 438 118 429 q 100 460 100 447 l 147 933 q 160 962 149 951 q 189 972 172 972 l 711 972 q 735 963 726 972 q 744 939 744 954 l 744 844 q 735 821 744 831 q 711 811 726 811 l 310 811 l 288 586 q 361 620 319 607 q 469 633 403 633 q 637 595 560 633 q 760 485 714 557 q 807 319 807 414 q 760 142 807 218 q 626 26 713 67 q 426 -15 540 -15 z "},"6":{"ha":872,"x_min":56,"x_max":826,"o":"m 444 -14 q 240 31 328 -14 q 103 153 151 75 q 56 328 56 231 q 164 597 56 450 l 417 944 q 438 965 428 958 q 465 972 447 972 l 597 972 q 617 963 610 972 q 625 942 625 954 q 619 924 625 932 l 425 656 q 483 661 447 661 q 655 616 576 660 q 780 497 733 572 q 826 331 826 422 q 780 158 826 236 q 647 33 733 79 q 444 -14 560 -14 m 442 147 q 574 195 519 147 q 628 328 628 243 q 574 459 628 411 q 442 507 521 507 q 310 459 364 507 q 257 328 257 411 q 310 195 257 243 q 442 147 364 147 z "},"7":{"ha":757,"x_min":40,"x_max":719,"o":"m 201 0 q 181 9 189 0 q 172 31 172 18 q 175 43 172 35 l 508 806 l 74 806 q 50 815 60 806 q 40 839 40 825 l 40 938 q 49 963 40 953 q 74 972 58 972 l 685 972 q 710 963 700 972 q 719 938 719 953 l 719 850 q 706 790 719 821 l 375 33 q 357 9 367 18 q 331 0 347 0 l 201 0 z "},"8":{"ha":913,"x_min":69,"x_max":843,"o":"m 456 -14 q 248 24 335 -14 q 115 131 161 63 q 69 286 69 199 q 108 424 69 364 q 211 517 146 485 q 132 599 160 549 q 104 715 104 650 q 197 912 104 838 q 456 986 289 986 q 714 913 622 986 q 806 717 806 839 q 778 601 806 651 q 700 517 751 550 q 805 424 767 485 q 843 285 843 364 q 797 130 843 197 q 664 24 751 63 q 456 -14 576 -14 m 456 578 q 576 615 528 579 q 624 708 624 650 q 576 804 624 768 q 456 840 529 840 q 336 804 383 840 q 289 708 289 768 q 336 613 289 649 q 456 578 383 578 m 456 132 q 592 174 538 132 q 647 285 647 215 q 592 396 647 354 q 456 438 538 438 q 319 397 374 438 q 265 285 265 356 q 319 174 265 215 q 456 132 374 132 z "},"9":{"ha":858,"x_min":46,"x_max":801,"o":"m 254 0 q 233 9 242 0 q 225 31 225 18 q 232 49 225 39 l 436 329 q 378 324 413 324 q 210 370 286 326 q 90 487 135 414 q 46 649 46 560 q 89 813 46 736 q 217 938 132 890 q 421 986 301 986 q 628 941 542 986 q 758 820 714 896 q 801 654 801 744 q 783 547 801 597 q 742 460 765 497 q 678 365 719 424 l 435 28 q 414 7 424 14 q 388 0 404 0 l 254 0 m 422 474 q 550 522 499 474 q 601 649 601 569 q 550 777 601 729 q 422 825 499 825 q 296 777 347 825 q 244 649 244 729 q 295 522 244 569 q 422 474 346 474 z "},"\u0000":{"ha":0,"x_min":0,"x_max":0,"o":""},"\r":{"ha":317,"x_min":0,"x_max":0,"o":""}," ":{"ha":317,"x_min":0,"x_max":0,"o":""},"A":{"ha":964,"x_min":19,"x_max":944,"o":"m 49 0 q 28 8 36 0 q 19 29 19 17 l 22 42 l 356 938 q 406 972 369 972 l 558 972 q 608 938 594 972 l 942 42 l 944 29 q 935 8 944 17 q 915 0 926 0 l 792 0 q 751 26 763 0 l 688 194 l 276 194 l 213 26 q 172 0 201 0 l 49 0 m 325 356 l 639 356 l 482 783 l 325 356 z "},"Á":{"ha":964,"x_min":19,"x_max":944,"o":"m 49 0 q 28 8 36 0 q 19 29 19 17 l 22 42 l 356 938 q 406 972 369 972 l 558 972 q 608 938 594 972 l 942 42 l 944 29 q 935 8 944 17 q 915 0 926 0 l 792 0 q 751 26 763 0 l 688 194 l 276 194 l 213 26 q 172 0 201 0 l 49 0 m 325 356 l 639 356 l 482 783 l 325 356 m 418 1042 q 396 1064 396 1042 q 403 1082 396 1075 l 517 1219 q 540 1240 529 1235 q 568 1246 550 1246 l 718 1246 q 738 1238 731 1246 q 744 1218 744 1231 q 738 1201 744 1208 l 564 1060 q 541 1046 551 1050 q 515 1042 531 1042 l 418 1042 z "},"Ă":{"ha":964,"x_min":19,"x_max":944,"o":"m 49 0 q 28 8 36 0 q 19 29 19 17 l 22 42 l 356 938 q 406 972 369 972 l 558 972 q 608 938 594 972 l 942 42 l 944 29 q 935 8 944 17 q 915 0 926 0 l 792 0 q 751 26 763 0 l 688 194 l 276 194 l 213 26 q 172 0 201 0 l 49 0 m 325 356 l 639 356 l 482 783 l 325 356 m 482 1031 q 333 1082 381 1031 q 286 1215 286 1133 q 293 1234 286 1226 q 313 1242 300 1242 l 382 1242 q 401 1234 394 1242 q 408 1215 408 1226 q 425 1153 408 1178 q 482 1129 442 1129 q 538 1153 521 1129 q 554 1215 554 1178 q 561 1234 554 1226 q 581 1242 568 1242 l 650 1242 q 669 1234 663 1242 q 676 1215 676 1226 q 629 1082 676 1133 q 482 1031 582 1031 z "},"Â":{"ha":964,"x_min":19,"x_max":944,"o":"m 49 0 q 28 8 36 0 q 19 29 19 17 l 22 42 l 356 938 q 406 972 369 972 l 558 972 q 608 938 594 972 l 942 42 l 944 29 q 935 8 944 17 q 915 0 926 0 l 792 0 q 751 26 763 0 l 688 194 l 276 194 l 213 26 q 172 0 201 0 l 49 0 m 325 356 l 639 356 l 482 783 l 325 356 m 265 1042 q 244 1060 244 1042 q 257 1083 244 1071 l 393 1224 q 416 1242 406 1238 q 440 1246 426 1246 l 524 1246 q 547 1242 538 1246 q 571 1224 557 1238 l 706 1083 q 718 1060 718 1071 q 699 1042 718 1042 l 643 1042 q 600 1051 618 1042 l 482 1125 l 364 1051 q 321 1042 346 1042 l 265 1042 z "},"Ä":{"ha":964,"x_min":19,"x_max":944,"o":"m 49 0 q 28 8 36 0 q 19 29 19 17 l 22 42 l 356 938 q 406 972 369 972 l 558 972 q 608 938 594 972 l 942 42 l 944 29 q 935 8 944 17 q 915 0 926 0 l 792 0 q 751 26 763 0 l 688 194 l 276 194 l 213 26 q 172 0 201 0 l 49 0 m 325 356 l 639 356 l 482 783 l 325 356 m 278 1042 q 256 1050 264 1042 q 247 1072 247 1058 l 247 1175 q 256 1198 247 1189 q 278 1207 264 1207 l 381 1207 q 403 1198 394 1207 q 413 1175 413 1189 l 413 1072 q 403 1050 413 1058 q 381 1042 394 1042 l 278 1042 m 582 1042 q 560 1050 568 1042 q 551 1072 551 1058 l 551 1175 q 560 1198 551 1189 q 582 1207 568 1207 l 685 1207 q 708 1198 699 1207 q 717 1175 717 1189 l 717 1072 q 708 1050 717 1058 q 685 1042 699 1042 l 582 1042 z "},"À":{"ha":964,"x_min":19,"x_max":944,"o":"m 49 0 q 28 8 36 0 q 19 29 19 17 l 22 42 l 356 938 q 406 972 369 972 l 558 972 q 608 938 594 972 l 942 42 l 944 29 q 935 8 944 17 q 915 0 926 0 l 792 0 q 751 26 763 0 l 688 194 l 276 194 l 213 26 q 172 0 201 0 l 49 0 m 325 356 l 639 356 l 482 783 l 325 356 m 454 1042 q 428 1046 439 1042 q 406 1060 418 1050 l 232 1201 q 225 1218 225 1208 q 232 1238 225 1231 q 251 1246 239 1246 l 403 1246 q 431 1240 421 1246 q 454 1219 440 1235 l 567 1082 q 574 1064 574 1075 q 551 1042 574 1042 l 454 1042 z "},"Ā":{"ha":964,"x_min":19,"x_max":944,"o":"m 49 0 q 28 8 36 0 q 19 29 19 17 l 22 42 l 356 938 q 406 972 369 972 l 558 972 q 608 938 594 972 l 942 42 l 944 29 q 935 8 944 17 q 915 0 926 0 l 792 0 q 751 26 763 0 l 688 194 l 276 194 l 213 26 q 172 0 201 0 l 49 0 m 325 356 l 639 356 l 482 783 l 325 356 m 292 1042 q 269 1050 278 1042 q 261 1072 261 1058 l 261 1151 q 269 1174 261 1165 q 292 1182 278 1182 l 671 1182 q 694 1174 685 1182 q 703 1151 703 1165 l 703 1072 q 694 1050 703 1058 q 671 1042 685 1042 l 292 1042 z "},"Ą":{"ha":964,"x_min":19,"x_max":944,"o":"m 872 -306 q 719 -248 772 -306 q 665 -94 665 -190 q 689 -5 665 -42 q 754 44 713 32 q 736 65 742 49 l 688 194 l 276 194 l 213 26 q 172 0 201 0 l 49 0 q 28 8 36 0 q 19 29 19 17 l 22 42 l 356 938 q 406 972 369 972 l 558 972 q 608 938 594 972 l 942 42 l 944 29 q 935 8 944 17 q 915 0 926 0 l 874 0 q 810 -28 833 -1 q 786 -94 786 -54 q 810 -162 786 -136 q 878 -189 835 -189 l 896 -189 q 919 -199 910 -189 q 929 -222 929 -208 l 929 -272 q 919 -296 929 -286 q 896 -306 910 -306 l 872 -306 m 325 356 l 639 356 l 482 783 l 325 356 z "},"Å":{"ha":964,"x_min":19,"x_max":944,"o":"m 49 0 q 28 8 36 0 q 19 29 19 17 l 22 42 l 356 938 q 406 972 369 972 l 558 972 q 608 938 594 972 l 942 42 l 944 29 q 935 8 944 17 q 915 0 926 0 l 792 0 q 751 26 763 0 l 688 194 l 276 194 l 213 26 q 172 0 201 0 l 49 0 m 325 356 l 639 356 l 482 783 l 325 356 m 482 1028 q 395 1060 431 1028 q 360 1143 360 1093 q 395 1226 360 1193 q 482 1260 431 1260 q 569 1226 533 1260 q 604 1143 604 1193 q 569 1060 604 1093 q 482 1028 533 1028 m 482 1101 q 512 1113 500 1101 q 524 1143 524 1125 q 512 1173 524 1161 q 482 1185 500 1185 q 452 1173 464 1185 q 440 1143 440 1161 q 452 1113 440 1125 q 482 1101 464 1101 z "},"Ã":{"ha":964,"x_min":19,"x_max":944,"o":"m 49 0 q 28 8 36 0 q 19 29 19 17 l 22 42 l 356 938 q 406 972 369 972 l 558 972 q 608 938 594 972 l 942 42 l 944 29 q 935 8 944 17 q 915 0 926 0 l 792 0 q 751 26 763 0 l 688 194 l 276 194 l 213 26 q 172 0 201 0 l 49 0 m 325 356 l 639 356 l 482 783 l 325 356 m 560 1035 q 515 1042 533 1035 q 469 1063 496 1049 q 438 1078 450 1074 q 413 1083 426 1083 q 393 1078 400 1083 q 378 1061 386 1074 q 351 1042 367 1042 l 286 1042 q 269 1049 276 1042 q 263 1065 263 1056 q 278 1133 263 1097 q 324 1194 293 1169 q 401 1219 356 1219 q 447 1213 428 1219 q 492 1192 465 1206 q 523 1176 511 1181 q 549 1171 535 1171 q 568 1176 561 1171 q 583 1193 575 1182 q 596 1208 590 1204 q 611 1213 601 1213 l 675 1213 q 693 1206 686 1213 q 700 1189 700 1199 q 684 1121 700 1157 q 636 1060 668 1085 q 560 1035 604 1035 z "},"Æ":{"ha":1326,"x_min":7,"x_max":1261,"o":"m 35 0 q 15 8 24 0 q 7 29 7 17 q 10 44 7 33 q 132 338 51 164 q 436 938 213 513 q 483 972 450 972 l 1215 972 q 1240 963 1231 972 q 1250 938 1250 953 l 1250 844 q 1240 820 1250 829 q 1215 811 1231 811 l 776 811 l 776 568 l 1185 568 q 1210 558 1200 568 q 1219 533 1219 549 l 1219 446 q 1210 422 1219 431 q 1185 413 1200 413 l 776 413 l 776 161 l 1226 161 q 1251 152 1242 161 q 1261 128 1261 143 l 1261 33 q 1251 9 1261 18 q 1226 0 1242 0 l 619 0 q 596 10 606 0 q 586 33 586 19 l 586 194 l 289 194 q 201 26 210 51 q 161 0 189 0 l 35 0 m 346 356 l 586 356 l 586 806 l 568 806 l 346 356 z "},"Ǽ":{"ha":1326,"x_min":7,"x_max":1261,"o":"m 35 0 q 15 8 24 0 q 7 29 7 17 q 10 44 7 33 q 132 338 51 164 q 436 938 213 513 q 483 972 450 972 l 1215 972 q 1240 963 1231 972 q 1250 938 1250 953 l 1250 844 q 1240 820 1250 829 q 1215 811 1231 811 l 776 811 l 776 568 l 1185 568 q 1210 558 1200 568 q 1219 533 1219 549 l 1219 446 q 1210 422 1219 431 q 1185 413 1200 413 l 776 413 l 776 161 l 1226 161 q 1251 152 1242 161 q 1261 128 1261 143 l 1261 33 q 1251 9 1261 18 q 1226 0 1242 0 l 619 0 q 596 10 606 0 q 586 33 586 19 l 586 194 l 289 194 q 201 26 210 51 q 161 0 189 0 l 35 0 m 346 356 l 586 356 l 586 806 l 568 806 l 346 356 m 600 1042 q 578 1064 578 1042 q 585 1082 578 1075 l 699 1219 q 722 1240 711 1235 q 750 1246 732 1246 l 900 1246 q 919 1238 913 1246 q 926 1218 926 1231 q 919 1201 926 1208 l 746 1060 q 723 1046 733 1050 q 697 1042 713 1042 l 600 1042 z "},"B":{"ha":954,"x_min":108,"x_max":889,"o":"m 142 0 q 118 10 128 0 q 108 33 108 19 l 108 938 q 117 963 108 953 q 142 972 126 972 l 544 972 q 788 901 707 972 q 868 706 868 829 q 833 583 868 633 q 750 510 797 532 q 849 424 808 483 q 889 288 889 364 q 801 79 889 158 q 557 0 714 0 l 142 0 m 519 574 q 628 608 590 574 q 667 701 667 643 q 629 792 667 760 q 519 824 592 824 l 304 824 l 304 574 l 519 574 m 533 149 q 646 188 606 149 q 686 289 686 228 q 645 390 686 350 q 533 429 604 429 l 304 429 l 304 149 l 533 149 z "},"C":{"ha":951,"x_min":74,"x_max":896,"o":"m 483 -14 q 187 84 292 -14 q 75 363 82 182 q 74 485 74 400 q 75 610 74 571 q 188 887 82 788 q 483 986 293 986 q 699 944 607 986 q 841 828 790 901 q 894 663 892 754 l 894 660 q 885 641 894 649 q 865 633 876 633 l 731 633 q 706 641 714 633 q 692 668 697 649 q 619 790 671 754 q 483 825 568 825 q 276 603 285 825 q 275 488 275 565 q 276 369 275 410 q 483 147 285 147 q 619 183 567 147 q 692 304 671 218 q 706 331 697 324 q 731 339 714 339 l 865 339 q 887 331 878 339 q 894 310 896 322 q 841 144 892 218 q 699 28 790 71 q 483 -14 607 -14 z "},"Ć":{"ha":951,"x_min":74,"x_max":894,"o":"m 483 -14 q 187 84 292 -14 q 75 363 82 182 q 74 485 74 400 q 75 610 74 571 q 188 887 82 788 q 483 986 293 986 q 699 944 607 986 q 841 828 790 901 q 894 663 892 754 l 894 660 q 885 641 894 649 q 865 633 876 633 l 731 633 q 706 641 714 633 q 692 668 697 649 q 619 790 671 754 q 483 825 568 825 q 276 603 285 825 q 275 488 275 565 q 276 369 275 410 q 483 147 285 147 q 619 183 567 147 q 692 304 671 218 q 706 331 697 324 q 731 339 714 339 l 865 339 q 887 331 878 339 q 894 310 896 322 q 841 144 892 218 q 699 28 790 71 q 483 -14 607 -14 m 413 1042 q 390 1064 390 1042 q 397 1082 390 1075 l 511 1219 q 534 1240 524 1235 q 563 1246 544 1246 l 713 1246 q 732 1238 725 1246 q 739 1218 739 1231 q 732 1201 739 1208 l 558 1060 q 535 1046 546 1050 q 510 1042 525 1042 l 413 1042 z "},"Č":{"ha":951,"x_min":74,"x_max":894,"o":"m 483 -14 q 187 84 292 -14 q 75 363 82 182 q 74 485 74 400 q 75 610 74 571 q 188 887 82 788 q 483 986 293 986 q 699 944 607 986 q 841 828 790 901 q 894 663 892 754 l 894 660 q 885 641 894 649 q 865 633 876 633 l 731 633 q 706 641 714 633 q 692 668 697 649 q 619 790 671 754 q 483 825 568 825 q 276 603 285 825 q 275 488 275 565 q 276 369 275 410 q 483 147 285 147 q 619 183 567 147 q 692 304 671 218 q 706 331 697 324 q 731 339 714 339 l 865 339 q 887 331 878 339 q 894 310 896 322 q 841 144 892 218 q 699 28 790 71 q 483 -14 607 -14 m 435 1042 q 410 1046 421 1042 q 388 1064 400 1050 l 251 1204 q 239 1228 239 1215 q 260 1246 239 1246 l 315 1246 q 358 1236 340 1246 l 476 1163 l 594 1236 q 638 1246 613 1246 l 693 1246 q 713 1228 713 1246 q 700 1204 713 1215 l 565 1064 q 542 1046 551 1050 q 518 1042 532 1042 l 435 1042 z "},"Ç":{"ha":951,"x_min":74,"x_max":896,"o":"m 481 -306 q 397 -286 433 -306 q 361 -247 361 -267 q 367 -235 361 -240 l 390 -214 q 404 -207 397 -207 q 431 -219 410 -207 q 478 -231 451 -231 q 515 -217 500 -231 q 529 -183 529 -204 q 515 -151 529 -164 q 478 -139 500 -139 q 444 -145 464 -139 q 417 -151 424 -151 q 397 -143 406 -151 l 372 -117 q 367 -101 367 -110 q 375 -74 367 -90 l 403 -8 q 165 107 249 11 q 75 363 82 203 q 74 485 74 400 q 75 610 74 571 q 188 887 82 788 q 483 986 293 986 q 699 944 607 986 q 841 828 790 901 q 894 663 892 754 l 894 660 q 885 641 894 649 q 865 633 876 633 l 731 633 q 706 641 714 633 q 692 668 697 649 q 619 790 671 754 q 483 825 568 825 q 276 603 285 825 q 275 488 275 565 q 276 369 275 410 q 483 147 285 147 q 619 183 567 147 q 692 304 671 218 q 706 331 697 324 q 731 339 714 339 l 865 339 q 887 331 878 339 q 894 310 896 322 q 841 144 892 218 q 699 28 790 71 q 483 -14 607 -14 l 454 -74 q 503 -64 469 -64 q 581 -97 551 -64 q 611 -182 611 -129 q 576 -270 611 -235 q 481 -306 542 -306 z "},"Ĉ":{"ha":951,"x_min":74,"x_max":894,"o":"m 483 -14 q 187 84 292 -14 q 75 363 82 182 q 74 485 74 400 q 75 610 74 571 q 188 887 82 788 q 483 986 293 986 q 699 944 607 986 q 841 828 790 901 q 894 663 892 754 l 894 660 q 885 641 894 649 q 865 633 876 633 l 731 633 q 706 641 714 633 q 692 668 697 649 q 619 790 671 754 q 483 825 568 825 q 276 603 285 825 q 275 488 275 565 q 276 369 275 410 q 483 147 285 147 q 619 183 567 147 q 692 304 671 218 q 706 331 697 324 q 731 339 714 339 l 865 339 q 887 331 878 339 q 894 310 896 322 q 841 144 892 218 q 699 28 790 71 q 483 -14 607 -14 m 260 1042 q 239 1060 239 1042 q 251 1083 239 1071 l 388 1224 q 410 1242 400 1238 q 435 1246 421 1246 l 518 1246 q 542 1242 532 1246 q 565 1224 551 1238 l 700 1083 q 713 1060 713 1071 q 693 1042 713 1042 l 638 1042 q 594 1051 613 1042 l 476 1125 l 358 1051 q 315 1042 340 1042 l 260 1042 z "},"Ċ":{"ha":951,"x_min":74,"x_max":894,"o":"m 483 -14 q 187 84 292 -14 q 75 363 82 182 q 74 485 74 400 q 75 610 74 571 q 188 887 82 788 q 483 986 293 986 q 699 944 607 986 q 841 828 790 901 q 894 663 892 754 l 894 660 q 885 641 894 649 q 865 633 876 633 l 731 633 q 706 641 714 633 q 692 668 697 649 q 619 790 671 754 q 483 825 568 825 q 276 603 285 825 q 275 488 275 565 q 276 369 275 410 q 483 147 285 147 q 619 183 567 147 q 692 304 671 218 q 706 331 697 324 q 731 339 714 339 l 865 339 q 887 331 878 339 q 894 310 896 322 q 841 144 892 218 q 699 28 790 71 q 483 -14 607 -14 m 417 1042 q 394 1050 403 1042 q 386 1072 386 1058 l 386 1190 q 394 1213 386 1204 q 417 1222 403 1222 l 535 1222 q 558 1213 549 1222 q 567 1190 567 1204 l 567 1072 q 558 1050 567 1058 q 535 1042 549 1042 l 417 1042 z "},"D":{"ha":976,"x_min":108,"x_max":901,"o":"m 142 0 q 118 10 128 0 q 108 33 108 19 l 108 938 q 117 963 108 953 q 142 972 126 972 l 481 972 q 899 594 890 972 q 901 486 901 514 q 899 379 901 460 q 794 92 893 185 q 488 0 694 0 l 142 0 m 481 161 q 647 213 596 161 q 701 383 699 264 q 704 488 704 467 q 701 590 704 510 q 644 758 699 704 q 474 811 590 811 l 304 811 l 304 161 l 481 161 z "},"Ð":{"ha":997,"x_min":21,"x_max":919,"o":"m 160 0 q 136 10 146 0 q 126 33 126 19 l 126 419 l 54 419 q 31 429 40 419 q 21 453 21 439 l 21 525 q 31 549 21 539 q 54 558 40 558 l 126 558 l 126 938 q 136 963 126 953 q 160 972 146 972 l 500 972 q 812 876 707 972 q 918 594 917 779 q 919 488 919 556 q 918 379 919 418 q 815 93 917 186 q 504 0 713 0 l 160 0 m 500 161 q 665 213 615 161 q 717 383 715 264 q 718 488 718 422 q 717 590 718 551 q 663 758 715 706 q 496 811 611 811 l 322 811 l 322 558 l 476 558 q 500 549 490 558 q 510 525 510 539 l 510 453 q 501 429 510 439 q 476 419 492 419 l 322 419 l 322 161 l 500 161 z "},"Ď":{"ha":976,"x_min":108,"x_max":901,"o":"m 142 0 q 118 10 128 0 q 108 33 108 19 l 108 938 q 117 963 108 953 q 142 972 126 972 l 481 972 q 899 594 890 972 q 901 486 901 514 q 899 379 901 460 q 794 92 893 185 q 488 0 694 0 l 142 0 m 481 161 q 647 213 596 161 q 701 383 699 264 q 704 488 704 467 q 701 590 704 510 q 644 758 699 704 q 474 811 590 811 l 304 811 l 304 161 l 481 161 m 438 1042 q 413 1046 424 1042 q 390 1064 403 1050 l 254 1204 q 242 1228 242 1215 q 263 1246 242 1246 l 318 1246 q 361 1236 343 1246 l 479 1163 l 597 1236 q 640 1246 615 1246 l 696 1246 q 715 1228 715 1246 q 703 1204 715 1215 l 568 1064 q 544 1046 554 1050 q 521 1042 535 1042 l 438 1042 z "},"Đ":{"ha":996,"x_min":21,"x_max":919,"o":"m 160 0 q 136 10 146 0 q 126 33 126 19 l 126 419 l 54 419 q 31 429 40 419 q 21 454 21 439 l 21 525 q 31 549 21 540 q 54 558 40 558 l 126 558 l 126 938 q 136 963 126 953 q 160 972 146 972 l 500 972 q 918 594 907 972 q 919 486 919 554 q 918 379 919 419 q 811 92 911 185 q 504 0 711 0 l 160 0 m 500 161 q 666 213 615 161 q 719 383 717 264 q 722 488 722 467 q 719 590 722 510 q 664 758 717 706 q 496 811 611 811 l 322 811 l 322 558 l 476 558 q 501 549 492 558 q 510 525 510 540 l 510 454 q 500 429 510 439 q 476 419 490 419 l 322 419 l 322 161 l 500 161 z "},"E":{"ha":865,"x_min":108,"x_max":800,"o":"m 142 0 q 118 10 128 0 q 108 33 108 19 l 108 938 q 117 963 108 953 q 142 972 126 972 l 754 972 q 779 963 769 972 q 789 938 789 953 l 789 844 q 779 820 789 829 q 754 811 769 811 l 299 811 l 299 568 l 724 568 q 749 558 739 568 q 758 533 758 549 l 758 446 q 749 422 758 431 q 724 413 739 413 l 299 413 l 299 161 l 765 161 q 790 152 781 161 q 800 128 800 143 l 800 33 q 790 9 800 18 q 765 0 781 0 l 142 0 z "},"É":{"ha":865,"x_min":108,"x_max":800,"o":"m 142 0 q 118 10 128 0 q 108 33 108 19 l 108 938 q 117 963 108 953 q 142 972 126 972 l 754 972 q 779 963 769 972 q 789 938 789 953 l 789 844 q 779 820 789 829 q 754 811 769 811 l 299 811 l 299 568 l 724 568 q 749 558 739 568 q 758 533 758 549 l 758 446 q 749 422 758 431 q 724 413 739 413 l 299 413 l 299 161 l 765 161 q 790 152 781 161 q 800 128 800 143 l 800 33 q 790 9 800 18 q 765 0 781 0 l 142 0 m 369 1042 q 347 1064 347 1042 q 354 1082 347 1075 l 468 1219 q 491 1240 481 1235 q 519 1246 501 1246 l 669 1246 q 689 1238 682 1246 q 696 1218 696 1231 q 689 1201 696 1208 l 515 1060 q 492 1046 503 1050 q 467 1042 482 1042 l 369 1042 z "},"Ĕ":{"ha":865,"x_min":108,"x_max":800,"o":"m 142 0 q 118 10 128 0 q 108 33 108 19 l 108 938 q 117 963 108 953 q 142 972 126 972 l 754 972 q 779 963 769 972 q 789 938 789 953 l 789 844 q 779 820 789 829 q 754 811 769 811 l 299 811 l 299 568 l 724 568 q 749 558 739 568 q 758 533 758 549 l 758 446 q 749 422 758 431 q 724 413 739 413 l 299 413 l 299 161 l 765 161 q 790 152 781 161 q 800 128 800 143 l 800 33 q 790 9 800 18 q 765 0 781 0 l 142 0 m 433 1031 q 285 1082 332 1031 q 238 1215 238 1133 q 244 1234 238 1226 q 264 1242 251 1242 l 333 1242 q 353 1234 346 1242 q 360 1215 360 1226 q 376 1153 360 1178 q 433 1129 393 1129 q 489 1153 472 1129 q 506 1215 506 1178 q 513 1234 506 1226 q 532 1242 519 1242 l 601 1242 q 621 1234 614 1242 q 628 1215 628 1226 q 581 1082 628 1133 q 433 1031 533 1031 z "},"Ě":{"ha":865,"x_min":108,"x_max":800,"o":"m 142 0 q 118 10 128 0 q 108 33 108 19 l 108 938 q 117 963 108 953 q 142 972 126 972 l 754 972 q 779 963 769 972 q 789 938 789 953 l 789 844 q 779 820 789 829 q 754 811 769 811 l 299 811 l 299 568 l 724 568 q 749 558 739 568 q 758 533 758 549 l 758 446 q 749 422 758 431 q 724 413 739 413 l 299 413 l 299 161 l 765 161 q 790 152 781 161 q 800 128 800 143 l 800 33 q 790 9 800 18 q 765 0 781 0 l 142 0 m 392 1042 q 367 1046 378 1042 q 344 1064 357 1050 l 208 1204 q 196 1228 196 1215 q 217 1246 196 1246 l 272 1246 q 315 1236 297 1246 l 433 1163 l 551 1236 q 594 1246 569 1246 l 650 1246 q 669 1228 669 1246 q 657 1204 669 1215 l 522 1064 q 499 1046 508 1050 q 475 1042 489 1042 l 392 1042 z "},"Ê":{"ha":865,"x_min":108,"x_max":800,"o":"m 142 0 q 118 10 128 0 q 108 33 108 19 l 108 938 q 117 963 108 953 q 142 972 126 972 l 754 972 q 779 963 769 972 q 789 938 789 953 l 789 844 q 779 820 789 829 q 754 811 769 811 l 299 811 l 299 568 l 724 568 q 749 558 739 568 q 758 533 758 549 l 758 446 q 749 422 758 431 q 724 413 739 413 l 299 413 l 299 161 l 765 161 q 790 152 781 161 q 800 128 800 143 l 800 33 q 790 9 800 18 q 765 0 781 0 l 142 0 m 217 1042 q 196 1060 196 1042 q 208 1083 196 1071 l 344 1224 q 367 1242 357 1238 q 392 1246 378 1246 l 475 1246 q 499 1242 489 1246 q 522 1224 508 1238 l 657 1083 q 669 1060 669 1071 q 650 1042 669 1042 l 594 1042 q 551 1051 569 1042 l 433 1125 l 315 1051 q 272 1042 297 1042 l 217 1042 z "},"Ë":{"ha":865,"x_min":108,"x_max":800,"o":"m 142 0 q 118 10 128 0 q 108 33 108 19 l 108 938 q 117 963 108 953 q 142 972 126 972 l 754 972 q 779 963 769 972 q 789 938 789 953 l 789 844 q 779 820 789 829 q 754 811 769 811 l 299 811 l 299 568 l 724 568 q 749 558 739 568 q 758 533 758 549 l 758 446 q 749 422 758 431 q 724 413 739 413 l 299 413 l 299 161 l 765 161 q 790 152 781 161 q 800 128 800 143 l 800 33 q 790 9 800 18 q 765 0 781 0 l 142 0 m 229 1042 q 207 1050 215 1042 q 199 1072 199 1058 l 199 1175 q 207 1198 199 1189 q 229 1207 215 1207 l 332 1207 q 355 1198 346 1207 q 364 1175 364 1189 l 364 1072 q 355 1050 364 1058 q 332 1042 346 1042 l 229 1042 m 533 1042 q 511 1050 519 1042 q 503 1072 503 1058 l 503 1175 q 511 1198 503 1189 q 533 1207 519 1207 l 636 1207 q 659 1198 650 1207 q 668 1175 668 1189 l 668 1072 q 659 1050 668 1058 q 636 1042 650 1042 l 533 1042 z "},"Ė":{"ha":865,"x_min":108,"x_max":800,"o":"m 142 0 q 118 10 128 0 q 108 33 108 19 l 108 938 q 117 963 108 953 q 142 972 126 972 l 754 972 q 779 963 769 972 q 789 938 789 953 l 789 844 q 779 820 789 829 q 754 811 769 811 l 299 811 l 299 568 l 724 568 q 749 558 739 568 q 758 533 758 549 l 758 446 q 749 422 758 431 q 724 413 739 413 l 299 413 l 299 161 l 765 161 q 790 152 781 161 q 800 128 800 143 l 800 33 q 790 9 800 18 q 765 0 781 0 l 142 0 m 374 1042 q 351 1050 360 1042 q 343 1072 343 1058 l 343 1190 q 351 1213 343 1204 q 374 1222 360 1222 l 492 1222 q 515 1213 506 1222 q 524 1190 524 1204 l 524 1072 q 515 1050 524 1058 q 492 1042 506 1042 l 374 1042 z "},"È":{"ha":865,"x_min":108,"x_max":800,"o":"m 142 0 q 118 10 128 0 q 108 33 108 19 l 108 938 q 117 963 108 953 q 142 972 126 972 l 754 972 q 779 963 769 972 q 789 938 789 953 l 789 844 q 779 820 789 829 q 754 811 769 811 l 299 811 l 299 568 l 724 568 q 749 558 739 568 q 758 533 758 549 l 758 446 q 749 422 758 431 q 724 413 739 413 l 299 413 l 299 161 l 765 161 q 790 152 781 161 q 800 128 800 143 l 800 33 q 790 9 800 18 q 765 0 781 0 l 142 0 m 406 1042 q 380 1046 390 1042 q 357 1060 369 1050 l 183 1201 q 176 1218 176 1208 q 183 1238 176 1231 q 203 1246 190 1246 l 354 1246 q 382 1240 372 1246 q 406 1219 392 1235 l 518 1082 q 525 1064 525 1075 q 503 1042 525 1042 l 406 1042 z "},"Ē":{"ha":865,"x_min":108,"x_max":800,"o":"m 142 0 q 118 10 128 0 q 108 33 108 19 l 108 938 q 117 963 108 953 q 142 972 126 972 l 754 972 q 779 963 769 972 q 789 938 789 953 l 789 844 q 779 820 789 829 q 754 811 769 811 l 299 811 l 299 568 l 724 568 q 749 558 739 568 q 758 533 758 549 l 758 446 q 749 422 758 431 q 724 413 739 413 l 299 413 l 299 161 l 765 161 q 790 152 781 161 q 800 128 800 143 l 800 33 q 790 9 800 18 q 765 0 781 0 l 142 0 m 243 1042 q 221 1050 229 1042 q 213 1072 213 1058 l 213 1151 q 221 1174 213 1165 q 243 1182 229 1182 l 622 1182 q 645 1174 636 1182 q 654 1151 654 1165 l 654 1072 q 645 1050 654 1058 q 622 1042 636 1042 l 243 1042 z "},"Ę":{"ha":865,"x_min":108,"x_max":800,"o":"m 743 -306 q 590 -248 643 -306 q 536 -94 536 -190 q 556 0 536 -43 l 142 0 q 118 10 128 0 q 108 33 108 19 l 108 938 q 117 963 108 953 q 142 972 126 972 l 754 972 q 779 963 769 972 q 789 938 789 953 l 789 844 q 779 820 789 829 q 754 811 769 811 l 299 811 l 299 568 l 724 568 q 749 558 739 568 q 758 533 758 549 l 758 446 q 749 422 758 431 q 724 413 739 413 l 299 413 l 299 161 l 765 161 q 790 152 781 161 q 800 128 800 143 l 800 33 q 790 9 800 18 q 765 0 781 0 l 743 0 q 681 -28 703 -1 q 658 -94 658 -54 q 682 -162 658 -136 q 749 -189 706 -189 l 767 -189 q 791 -199 782 -189 q 800 -222 800 -208 l 800 -272 q 791 -297 800 -287 q 767 -306 782 -306 l 743 -306 z "},"F":{"ha":836,"x_min":108,"x_max":781,"o":"m 142 0 q 118 10 128 0 q 108 33 108 19 l 108 938 q 117 963 108 953 q 142 972 126 972 l 746 972 q 771 963 761 972 q 781 938 781 953 l 781 838 q 771 814 781 824 q 746 804 761 804 l 301 804 l 301 543 l 718 543 q 743 533 733 543 q 753 510 753 524 l 753 410 q 743 386 753 396 q 718 376 733 376 l 301 376 l 301 33 q 292 10 301 19 q 267 0 282 0 l 142 0 z "},"G":{"ha":974,"x_min":75,"x_max":906,"o":"m 488 -14 q 190 85 296 -14 q 76 360 83 183 q 75 489 75 400 q 76 618 75 578 q 190 888 82 790 q 488 986 299 986 q 708 942 615 986 q 847 834 800 899 q 897 707 894 769 q 889 686 897 694 q 867 678 881 678 l 721 678 q 700 683 707 678 q 688 701 693 689 q 619 789 668 753 q 488 825 571 825 q 335 773 390 825 q 278 611 281 721 q 276 489 276 571 q 278 367 276 408 q 336 201 281 254 q 489 147 392 147 q 647 200 588 147 q 707 358 707 253 l 707 401 l 538 401 q 514 411 524 401 q 504 435 504 421 l 504 511 q 514 535 504 525 q 538 544 524 544 l 871 544 q 896 535 886 544 q 906 511 906 525 l 906 364 q 854 163 906 249 q 708 32 803 78 q 488 -14 614 -14 z "},"Ğ":{"ha":974,"x_min":75,"x_max":906,"o":"m 488 -14 q 190 85 296 -14 q 76 360 83 183 q 75 489 75 400 q 76 618 75 578 q 190 888 82 790 q 488 986 299 986 q 708 942 615 986 q 847 834 800 899 q 897 707 894 769 q 889 686 897 694 q 867 678 881 678 l 721 678 q 700 683 707 678 q 688 701 693 689 q 619 789 668 753 q 488 825 571 825 q 335 773 390 825 q 278 611 281 721 q 276 489 276 571 q 278 367 276 408 q 336 201 281 254 q 489 147 392 147 q 647 200 588 147 q 707 358 707 253 l 707 401 l 538 401 q 514 411 524 401 q 504 435 504 421 l 504 511 q 514 535 504 525 q 538 544 524 544 l 871 544 q 896 535 886 544 q 906 511 906 525 l 906 364 q 854 163 906 249 q 708 32 803 78 q 488 -14 614 -14 m 493 1031 q 344 1082 392 1031 q 297 1215 297 1133 q 304 1234 297 1226 q 324 1242 311 1242 l 393 1242 q 413 1234 406 1242 q 419 1215 419 1226 q 436 1153 419 1178 q 493 1129 453 1129 q 549 1153 532 1129 q 565 1215 565 1178 q 572 1234 565 1226 q 592 1242 579 1242 l 661 1242 q 681 1234 674 1242 q 688 1215 688 1226 q 640 1082 688 1133 q 493 1031 593 1031 z "},"Ĝ":{"ha":974,"x_min":75,"x_max":906,"o":"m 488 -14 q 190 85 296 -14 q 76 360 83 183 q 75 489 75 400 q 76 618 75 578 q 190 888 82 790 q 488 986 299 986 q 708 942 615 986 q 847 834 800 899 q 897 707 894 769 q 889 686 897 694 q 867 678 881 678 l 721 678 q 700 683 707 678 q 688 701 693 689 q 619 789 668 753 q 488 825 571 825 q 335 773 390 825 q 278 611 281 721 q 276 489 276 571 q 278 367 276 408 q 336 201 281 254 q 489 147 392 147 q 647 200 588 147 q 707 358 707 253 l 707 401 l 538 401 q 514 411 524 401 q 504 435 504 421 l 504 511 q 514 535 504 525 q 538 544 524 544 l 871 544 q 896 535 886 544 q 906 511 906 525 l 906 364 q 854 163 906 249 q 708 32 803 78 q 488 -14 614 -14 m 276 1042 q 256 1060 256 1042 q 268 1083 256 1071 l 404 1224 q 427 1242 417 1238 q 451 1246 438 1246 l 535 1246 q 558 1242 549 1246 q 582 1224 568 1238 l 717 1083 q 729 1060 729 1071 q 710 1042 729 1042 l 654 1042 q 611 1051 629 1042 l 493 1125 l 375 1051 q 332 1042 357 1042 l 276 1042 z "},"Ģ":{"ha":974,"x_min":75,"x_max":906,"o":"m 488 -14 q 190 85 296 -14 q 76 360 83 183 q 75 489 75 400 q 76 618 75 578 q 190 888 82 790 q 488 986 299 986 q 708 942 615 986 q 847 834 800 899 q 897 707 894 769 q 889 686 897 694 q 867 678 881 678 l 721 678 q 700 683 707 678 q 688 701 693 689 q 619 789 668 753 q 488 825 571 825 q 335 773 390 825 q 278 611 281 721 q 276 489 276 571 q 278 367 276 408 q 336 201 281 254 q 489 147 392 147 q 647 200 588 147 q 707 358 707 253 l 707 401 l 538 401 q 514 411 524 401 q 504 435 504 421 l 504 511 q 514 535 504 525 q 538 544 524 544 l 871 544 q 896 535 886 544 q 906 511 906 525 l 906 364 q 854 163 906 249 q 708 32 803 78 q 488 -14 614 -14 m 394 -315 q 375 -306 382 -315 q 369 -285 368 -297 l 396 -114 q 410 -82 399 -94 q 440 -69 421 -69 l 565 -69 q 583 -77 575 -69 q 590 -96 590 -85 q 586 -114 590 -104 l 522 -279 q 503 -306 514 -296 q 475 -315 493 -315 l 394 -315 z "},"Ġ":{"ha":974,"x_min":75,"x_max":906,"o":"m 488 -14 q 190 85 296 -14 q 76 360 83 183 q 75 489 75 400 q 76 618 75 578 q 190 888 82 790 q 488 986 299 986 q 708 942 615 986 q 847 834 800 899 q 897 707 894 769 q 889 686 897 694 q 867 678 881 678 l 721 678 q 700 683 707 678 q 688 701 693 689 q 619 789 668 753 q 488 825 571 825 q 335 773 390 825 q 278 611 281 721 q 276 489 276 571 q 278 367 276 408 q 336 201 281 254 q 489 147 392 147 q 647 200 588 147 q 707 358 707 253 l 707 401 l 538 401 q 514 411 524 401 q 504 435 504 421 l 504 511 q 514 535 504 525 q 538 544 524 544 l 871 544 q 896 535 886 544 q 906 511 906 525 l 906 364 q 854 163 906 249 q 708 32 803 78 q 488 -14 614 -14 m 433 1042 q 411 1050 419 1042 q 403 1072 403 1058 l 403 1190 q 411 1213 403 1204 q 433 1222 419 1222 l 551 1222 q 574 1213 565 1222 q 583 1190 583 1204 l 583 1072 q 574 1050 583 1058 q 551 1042 565 1042 l 433 1042 z "},"H":{"ha":1014,"x_min":108,"x_max":906,"o":"m 142 0 q 118 10 128 0 q 108 33 108 19 l 108 938 q 117 963 108 953 q 142 972 126 972 l 269 972 q 294 963 285 972 q 304 938 304 953 l 304 581 l 710 581 l 710 938 q 719 963 710 953 q 743 972 729 972 l 872 972 q 897 963 888 972 q 906 938 906 953 l 906 33 q 897 10 906 19 q 872 0 888 0 l 743 0 q 719 10 729 0 q 710 33 710 19 l 710 404 l 304 404 l 304 33 q 294 10 304 19 q 269 0 285 0 l 142 0 z "},"Ħ":{"ha":1014,"x_min":53,"x_max":968,"o":"m 935 835 q 959 826 950 835 q 968 801 968 817 l 968 750 q 958 726 968 736 q 935 717 949 717 l 906 717 l 906 33 q 897 10 906 19 q 872 0 888 0 l 743 0 q 719 10 729 0 q 710 33 710 19 l 710 404 l 304 404 l 304 33 q 294 10 304 19 q 269 0 285 0 l 142 0 q 118 10 128 0 q 108 33 108 19 l 108 717 l 86 717 q 63 726 72 717 q 53 750 53 736 l 53 801 q 63 826 53 817 q 86 835 72 835 l 108 835 l 108 938 q 117 963 108 953 q 142 972 126 972 l 269 972 q 294 963 285 972 q 304 938 304 953 l 304 835 l 710 835 l 710 938 q 719 963 710 953 q 743 972 729 972 l 872 972 q 897 963 888 972 q 906 938 906 953 l 906 835 l 935 835 m 710 581 l 710 717 l 304 717 l 304 581 l 710 581 z "},"Ĥ":{"ha":1014,"x_min":108,"x_max":906,"o":"m 142 0 q 118 10 128 0 q 108 33 108 19 l 108 938 q 117 963 108 953 q 142 972 126 972 l 269 972 q 294 963 285 972 q 304 938 304 953 l 304 581 l 710 581 l 710 938 q 719 963 710 953 q 743 972 729 972 l 872 972 q 897 963 888 972 q 906 938 906 953 l 906 33 q 897 10 906 19 q 872 0 888 0 l 743 0 q 719 10 729 0 q 710 33 710 19 l 710 404 l 304 404 l 304 33 q 294 10 304 19 q 269 0 285 0 l 142 0 m 290 1042 q 269 1060 269 1042 q 282 1083 269 1071 l 418 1224 q 441 1242 431 1238 q 465 1246 451 1246 l 549 1246 q 572 1242 563 1246 q 596 1224 582 1238 l 731 1083 q 743 1060 743 1071 q 724 1042 743 1042 l 668 1042 q 625 1051 643 1042 l 507 1125 l 389 1051 q 346 1042 371 1042 l 290 1042 z "},"I":{"ha":417,"x_min":108,"x_max":308,"o":"m 142 0 q 118 10 128 0 q 108 33 108 19 l 108 939 q 118 963 108 954 q 142 972 128 972 l 275 972 q 299 963 290 972 q 308 939 308 954 l 308 33 q 299 10 308 19 q 275 0 290 0 l 142 0 z "},"Ĳ":{"ha":944,"x_min":108,"x_max":844,"o":"m 142 0 q 118 10 128 0 q 108 33 108 19 l 108 939 q 118 963 108 954 q 142 972 128 972 l 275 972 q 299 963 290 972 q 308 939 308 954 l 308 33 q 299 10 308 19 q 275 0 290 0 l 142 0 m 453 -14 q 429 -4 439 -14 q 419 19 419 6 l 419 125 q 429 150 419 140 q 453 160 439 160 q 595 217 547 160 q 643 381 643 274 l 643 939 q 653 963 643 953 q 678 972 663 972 l 810 972 q 835 963 825 972 q 844 938 844 953 l 844 356 q 743 79 844 172 q 453 -14 642 -14 z "},"Í":{"ha":417,"x_min":108,"x_max":471,"o":"m 142 0 q 118 10 128 0 q 108 33 108 19 l 108 939 q 118 963 108 954 q 142 972 128 972 l 275 972 q 299 963 290 972 q 308 939 308 954 l 308 33 q 299 10 308 19 q 275 0 290 0 l 142 0 m 144 1042 q 122 1064 122 1042 q 129 1082 122 1075 l 243 1219 q 266 1240 256 1235 q 294 1246 276 1246 l 444 1246 q 464 1238 457 1246 q 471 1218 471 1231 q 464 1201 471 1208 l 290 1060 q 267 1046 278 1050 q 242 1042 257 1042 l 144 1042 z "},"Ĭ":{"ha":417,"x_min":13,"x_max":403,"o":"m 142 0 q 118 10 128 0 q 108 33 108 19 l 108 939 q 118 963 108 954 q 142 972 128 972 l 275 972 q 299 963 290 972 q 308 939 308 954 l 308 33 q 299 10 308 19 q 275 0 290 0 l 142 0 m 208 1031 q 60 1082 107 1031 q 13 1215 13 1133 q 19 1234 13 1226 q 39 1242 26 1242 l 108 1242 q 128 1234 121 1242 q 135 1215 135 1226 q 151 1153 135 1178 q 208 1129 168 1129 q 264 1153 247 1129 q 281 1215 281 1178 q 288 1234 281 1226 q 307 1242 294 1242 l 376 1242 q 396 1234 389 1242 q 403 1215 403 1226 q 356 1082 403 1133 q 208 1031 308 1031 z "},"Î":{"ha":417,"x_min":-29,"x_max":444,"o":"m 142 0 q 118 10 128 0 q 108 33 108 19 l 108 939 q 118 963 108 954 q 142 972 128 972 l 275 972 q 299 963 290 972 q 308 939 308 954 l 308 33 q 299 10 308 19 q 275 0 290 0 l 142 0 m -8 1042 q -29 1060 -29 1042 q -17 1083 -29 1071 l 119 1224 q 142 1242 132 1238 q 167 1246 153 1246 l 250 1246 q 274 1242 264 1246 q 297 1224 283 1238 l 432 1083 q 444 1060 444 1071 q 425 1042 444 1042 l 369 1042 q 326 1051 344 1042 l 208 1125 l 90 1051 q 47 1042 72 1042 l -8 1042 z "},"Ï":{"ha":417,"x_min":-26,"x_max":443,"o":"m 142 0 q 118 10 128 0 q 108 33 108 19 l 108 939 q 118 963 108 954 q 142 972 128 972 l 275 972 q 299 963 290 972 q 308 939 308 954 l 308 33 q 299 10 308 19 q 275 0 290 0 l 142 0 m 4 1042 q -18 1050 -10 1042 q -26 1072 -26 1058 l -26 1175 q -18 1198 -26 1189 q 4 1207 -10 1207 l 107 1207 q 130 1198 121 1207 q 139 1175 139 1189 l 139 1072 q 130 1050 139 1058 q 107 1042 121 1042 l 4 1042 m 308 1042 q 286 1050 294 1042 q 278 1072 278 1058 l 278 1175 q 286 1198 278 1189 q 308 1207 294 1207 l 411 1207 q 434 1198 425 1207 q 443 1175 443 1189 l 443 1072 q 434 1050 443 1058 q 411 1042 425 1042 l 308 1042 z "},"İ":{"ha":417,"x_min":108,"x_max":308,"o":"m 142 0 q 118 10 128 0 q 108 33 108 19 l 108 939 q 118 963 108 954 q 142 972 128 972 l 275 972 q 299 963 290 972 q 308 939 308 954 l 308 33 q 299 10 308 19 q 275 0 290 0 l 142 0 m 149 1042 q 126 1050 135 1042 q 118 1072 118 1058 l 118 1190 q 126 1213 118 1204 q 149 1222 135 1222 l 267 1222 q 290 1213 281 1222 q 299 1190 299 1204 l 299 1072 q 290 1050 299 1058 q 267 1042 281 1042 l 149 1042 z "},"Ì":{"ha":417,"x_min":-49,"x_max":308,"o":"m 142 0 q 118 10 128 0 q 108 33 108 19 l 108 939 q 118 963 108 954 q 142 972 128 972 l 275 972 q 299 963 290 972 q 308 939 308 954 l 308 33 q 299 10 308 19 q 275 0 290 0 l 142 0 m 181 1042 q 155 1046 165 1042 q 132 1060 144 1050 l -42 1201 q -49 1218 -49 1208 q -42 1238 -49 1231 q -22 1246 -35 1246 l 129 1246 q 157 1240 147 1246 q 181 1219 167 1235 l 293 1082 q 300 1064 300 1075 q 278 1042 300 1042 l 181 1042 z "},"Ī":{"ha":417,"x_min":-12,"x_max":429,"o":"m 142 0 q 118 10 128 0 q 108 33 108 19 l 108 939 q 118 963 108 954 q 142 972 128 972 l 275 972 q 299 963 290 972 q 308 939 308 954 l 308 33 q 299 10 308 19 q 275 0 290 0 l 142 0 m 18 1042 q -4 1050 4 1042 q -12 1072 -12 1058 l -12 1151 q -4 1174 -12 1165 q 18 1182 4 1182 l 397 1182 q 420 1174 411 1182 q 429 1151 429 1165 l 429 1072 q 420 1050 429 1058 q 397 1042 411 1042 l 18 1042 z "},"Į":{"ha":431,"x_min":60,"x_max":324,"o":"m 267 -307 q 113 -249 167 -307 q 60 -96 60 -192 q 84 -5 60 -42 q 151 44 108 32 l 139 51 q 127 60 132 54 q 122 75 122 67 l 122 939 q 132 963 122 953 q 156 972 142 972 l 289 972 q 314 963 304 972 q 324 939 324 953 l 324 33 q 314 10 324 19 q 289 0 304 0 l 272 0 q 205 -27 229 0 q 181 -96 181 -54 q 205 -163 181 -136 q 272 -190 229 -190 l 289 -190 q 314 -200 304 -190 q 324 -224 324 -210 l 324 -274 q 314 -297 324 -287 q 289 -307 304 -307 l 267 -307 z "},"Ĩ":{"ha":417,"x_min":-11,"x_max":426,"o":"m 142 0 q 118 10 128 0 q 108 33 108 19 l 108 939 q 118 963 108 954 q 142 972 128 972 l 275 972 q 299 963 290 972 q 308 939 308 954 l 308 33 q 299 10 308 19 q 275 0 290 0 l 142 0 m 286 1035 q 241 1042 260 1035 q 196 1063 222 1049 q 165 1078 176 1074 q 139 1083 153 1083 q 119 1078 126 1083 q 104 1061 113 1074 q 78 1042 93 1042 l 13 1042 q -4 1049 3 1042 q -11 1065 -11 1056 q 4 1133 -11 1097 q 51 1194 19 1169 q 128 1219 82 1219 q 173 1213 154 1219 q 218 1192 192 1206 q 249 1176 238 1181 q 275 1171 261 1171 q 294 1176 288 1171 q 310 1193 301 1182 q 322 1208 317 1204 q 338 1213 328 1213 l 401 1213 q 419 1206 413 1213 q 426 1189 426 1199 q 410 1121 426 1157 q 363 1060 394 1085 q 286 1035 331 1035 z "},"J":{"ha":907,"x_min":42,"x_max":807,"o":"m 422 -14 q 234 21 319 -14 q 97 125 149 56 q 42 293 44 194 q 50 315 42 306 q 72 324 58 324 l 207 324 q 247 289 239 324 q 306 182 258 217 q 428 147 354 147 q 560 203 514 147 q 607 361 607 260 l 607 806 l 136 806 q 113 815 122 806 q 103 840 103 825 l 103 939 q 113 963 103 954 q 136 972 122 972 l 774 972 q 798 963 789 972 q 807 938 807 953 l 807 356 q 760 157 807 240 q 626 30 713 74 q 422 -14 539 -14 z "},"Ĵ":{"ha":907,"x_min":42,"x_max":807,"o":"m 422 -14 q 234 21 319 -14 q 97 125 149 56 q 42 293 44 194 q 50 315 42 306 q 72 324 58 324 l 207 324 q 247 289 239 324 q 306 182 258 217 q 428 147 354 147 q 560 203 514 147 q 607 361 607 260 l 607 806 l 136 806 q 113 815 122 806 q 103 840 103 825 l 103 939 q 113 963 103 954 q 136 972 122 972 l 774 972 q 798 963 789 972 q 807 938 807 953 l 807 356 q 760 157 807 240 q 626 30 713 74 q 422 -14 539 -14 m 244 1042 q 224 1060 224 1042 q 236 1083 224 1071 l 372 1224 q 395 1242 385 1238 q 419 1246 406 1246 l 503 1246 q 526 1242 517 1246 q 550 1224 536 1238 l 685 1083 q 697 1060 697 1071 q 678 1042 697 1042 l 622 1042 q 579 1051 597 1042 l 461 1125 l 343 1051 q 300 1042 325 1042 l 244 1042 z "},"K":{"ha":879,"x_min":108,"x_max":863,"o":"m 142 0 q 118 10 128 0 q 108 33 108 19 l 108 938 q 117 963 108 953 q 142 972 126 972 l 267 972 q 292 963 282 972 q 301 938 301 953 l 301 613 l 611 947 q 665 972 632 972 l 807 972 q 827 964 818 972 q 836 943 836 956 q 829 926 836 933 l 451 507 l 857 47 q 863 29 863 38 q 854 8 863 17 q 835 0 846 0 l 689 0 q 647 12 660 0 q 633 25 635 24 l 301 392 l 301 33 q 292 10 301 19 q 267 0 282 0 l 142 0 z "},"Ķ":{"ha":879,"x_min":108,"x_max":863,"o":"m 142 0 q 118 10 128 0 q 108 33 108 19 l 108 938 q 117 963 108 953 q 142 972 126 972 l 267 972 q 292 963 282 972 q 301 938 301 953 l 301 613 l 611 947 q 665 972 632 972 l 807 972 q 827 964 818 972 q 836 943 836 956 q 829 926 836 933 l 451 507 l 857 47 q 863 29 863 38 q 854 8 863 17 q 835 0 846 0 l 689 0 q 647 12 660 0 q 633 25 635 24 l 301 392 l 301 33 q 292 10 301 19 q 267 0 282 0 l 142 0 m 351 -315 q 332 -306 339 -315 q 326 -285 325 -297 l 353 -114 q 367 -82 356 -94 q 397 -69 378 -69 l 522 -69 q 540 -77 532 -69 q 547 -96 547 -85 q 543 -114 547 -104 l 479 -279 q 460 -306 471 -296 q 432 -315 450 -315 l 351 -315 z "},"L":{"ha":807,"x_min":108,"x_max":781,"o":"m 142 0 q 118 10 128 0 q 108 33 108 19 l 108 939 q 118 963 108 954 q 142 972 128 972 l 272 972 q 297 963 288 972 q 306 939 306 954 l 306 167 l 746 167 q 771 157 761 167 q 781 133 781 147 l 781 33 q 771 10 781 19 q 746 0 761 0 l 142 0 z "},"Ĺ":{"ha":807,"x_min":108,"x_max":781,"o":"m 142 0 q 118 10 128 0 q 108 33 108 19 l 108 939 q 118 963 108 954 q 142 972 128 972 l 272 972 q 297 963 288 972 q 306 939 306 954 l 306 167 l 746 167 q 771 157 761 167 q 781 133 781 147 l 781 33 q 771 10 781 19 q 746 0 761 0 l 142 0 m 138 1042 q 115 1064 115 1042 q 122 1082 115 1075 l 236 1219 q 259 1240 249 1235 q 288 1246 269 1246 l 438 1246 q 457 1238 450 1246 q 464 1218 464 1231 q 457 1201 464 1208 l 283 1060 q 260 1046 271 1050 q 235 1042 250 1042 l 138 1042 z "},"Ľ":{"ha":807,"x_min":108,"x_max":781,"o":"m 142 0 q 118 10 128 0 q 108 33 108 19 l 108 939 q 118 963 108 954 q 142 972 128 972 l 272 972 q 297 963 288 972 q 306 939 306 954 l 306 167 l 746 167 q 771 157 761 167 q 781 133 781 147 l 781 33 q 771 10 781 19 q 746 0 761 0 l 142 0 m 450 740 q 431 749 438 740 q 425 771 424 758 l 451 942 q 465 974 454 961 q 496 986 476 986 l 621 986 q 638 978 631 986 q 646 960 646 971 q 642 942 646 951 l 578 776 q 559 750 569 760 q 531 740 549 740 l 450 740 z "},"Ļ":{"ha":807,"x_min":108,"x_max":781,"o":"m 142 0 q 118 10 128 0 q 108 33 108 19 l 108 939 q 118 963 108 954 q 142 972 128 972 l 272 972 q 297 963 288 972 q 306 939 306 954 l 306 167 l 746 167 q 771 157 761 167 q 781 133 781 147 l 781 33 q 771 10 781 19 q 746 0 761 0 l 142 0 m 325 -315 q 306 -306 313 -315 q 300 -285 299 -297 l 326 -114 q 340 -82 329 -94 q 371 -69 351 -69 l 496 -69 q 513 -77 506 -69 q 521 -96 521 -85 q 517 -114 521 -104 l 453 -279 q 434 -306 444 -296 q 406 -315 424 -315 l 325 -315 z "},"Ŀ":{"ha":807,"x_min":108,"x_max":781,"o":"m 142 0 q 118 10 128 0 q 108 33 108 19 l 108 939 q 118 963 108 954 q 142 972 128 972 l 272 972 q 297 963 288 972 q 306 939 306 954 l 306 167 l 746 167 q 771 157 761 167 q 781 133 781 147 l 781 33 q 771 10 781 19 q 746 0 761 0 l 142 0 m 469 433 q 447 442 456 433 q 439 464 439 450 l 439 579 q 447 602 439 593 q 469 611 456 611 l 585 611 q 608 602 599 611 q 617 579 617 593 l 617 464 q 608 442 617 450 q 585 433 599 433 l 469 433 z "},"Ł":{"ha":818,"x_min":17,"x_max":792,"o":"m 153 0 q 129 10 139 0 q 119 33 119 19 l 119 367 l 61 344 q 44 340 50 340 q 25 348 33 340 q 17 368 17 356 l 17 446 q 24 470 17 463 q 47 485 31 478 l 119 513 l 119 939 q 129 963 119 954 q 153 972 139 972 l 283 972 q 308 963 299 972 q 317 939 317 954 l 317 590 l 518 668 q 536 672 529 672 q 555 665 547 672 q 563 646 563 658 l 563 568 q 556 544 563 551 q 532 529 549 536 l 317 444 l 317 167 l 758 167 q 782 157 772 167 q 792 133 792 147 l 792 33 q 782 10 792 19 q 758 0 772 0 l 153 0 z "},"M":{"ha":1128,"x_min":108,"x_max":1019,"o":"m 142 0 q 118 10 128 0 q 108 33 108 19 l 108 938 q 117 963 108 953 q 142 972 126 972 l 254 972 q 296 946 281 972 l 564 449 l 832 946 q 874 972 847 972 l 985 972 q 1010 963 1000 972 q 1019 938 1019 953 l 1019 33 q 1010 9 1019 18 q 985 0 1000 0 l 865 0 q 842 10 851 0 q 832 33 832 19 l 832 631 l 639 264 q 593 233 624 233 l 535 233 q 488 264 506 233 l 294 631 l 294 33 q 285 10 294 19 q 261 0 276 0 l 142 0 z "},"N":{"ha":982,"x_min":108,"x_max":875,"o":"m 142 0 q 118 10 128 0 q 108 33 108 19 l 108 938 q 117 963 108 953 q 142 972 126 972 l 250 972 q 290 949 276 972 l 688 332 l 688 938 q 697 963 688 953 q 721 972 706 972 l 840 972 q 865 963 856 972 q 875 938 875 953 l 875 35 q 865 10 875 19 q 842 0 856 0 l 732 0 q 690 24 704 0 l 294 626 l 294 33 q 285 10 294 19 q 261 0 276 0 l 142 0 z "},"Ń":{"ha":982,"x_min":108,"x_max":875,"o":"m 142 0 q 118 10 128 0 q 108 33 108 19 l 108 938 q 117 963 108 953 q 142 972 126 972 l 250 972 q 290 949 276 972 l 688 332 l 688 938 q 697 963 688 953 q 721 972 706 972 l 840 972 q 865 963 856 972 q 875 938 875 953 l 875 35 q 865 10 875 19 q 842 0 856 0 l 732 0 q 690 24 704 0 l 294 626 l 294 33 q 285 10 294 19 q 261 0 276 0 l 142 0 m 428 1042 q 406 1064 406 1042 q 413 1082 406 1075 l 526 1219 q 549 1240 539 1235 q 578 1246 560 1246 l 728 1246 q 747 1238 740 1246 q 754 1218 754 1231 q 747 1201 754 1208 l 574 1060 q 551 1046 561 1050 q 525 1042 540 1042 l 428 1042 z "},"Ň":{"ha":982,"x_min":108,"x_max":875,"o":"m 142 0 q 118 10 128 0 q 108 33 108 19 l 108 938 q 117 963 108 953 q 142 972 126 972 l 250 972 q 290 949 276 972 l 688 332 l 688 938 q 697 963 688 953 q 721 972 706 972 l 840 972 q 865 963 856 972 q 875 938 875 953 l 875 35 q 865 10 875 19 q 842 0 856 0 l 732 0 q 690 24 704 0 l 294 626 l 294 33 q 285 10 294 19 q 261 0 276 0 l 142 0 m 450 1042 q 426 1046 436 1042 q 403 1064 415 1050 l 267 1204 q 254 1228 254 1215 q 275 1246 254 1246 l 331 1246 q 374 1236 356 1246 l 492 1163 l 610 1236 q 653 1246 628 1246 l 708 1246 q 728 1228 728 1246 q 715 1204 728 1215 l 581 1064 q 557 1046 567 1050 q 533 1042 547 1042 l 450 1042 z "},"Ņ":{"ha":982,"x_min":108,"x_max":875,"o":"m 142 0 q 118 10 128 0 q 108 33 108 19 l 108 938 q 117 963 108 953 q 142 972 126 972 l 250 972 q 290 949 276 972 l 688 332 l 688 938 q 697 963 688 953 q 721 972 706 972 l 840 972 q 865 963 856 972 q 875 938 875 953 l 875 35 q 865 10 875 19 q 842 0 856 0 l 732 0 q 690 24 704 0 l 294 626 l 294 33 q 285 10 294 19 q 261 0 276 0 l 142 0 m 392 -315 q 372 -306 379 -315 q 367 -285 365 -297 l 393 -114 q 407 -82 396 -94 q 438 -69 418 -69 l 563 -69 q 580 -77 572 -69 q 588 -96 588 -85 q 583 -114 588 -104 l 519 -279 q 501 -306 511 -296 q 472 -315 490 -315 l 392 -315 z "},"Ŋ":{"ha":982,"x_min":108,"x_max":875,"o":"m 551 -312 q 528 -303 538 -312 q 518 -279 518 -294 l 518 -179 q 528 -156 518 -165 q 551 -146 538 -146 l 578 -146 q 663 -114 639 -146 q 688 -25 688 -82 l 688 29 l 294 626 l 294 33 q 285 10 294 19 q 261 0 276 0 l 142 0 q 118 10 128 0 q 108 33 108 19 l 108 938 q 117 963 108 953 q 142 972 126 972 l 250 972 q 290 949 276 972 l 688 332 l 688 938 q 697 963 688 953 q 721 972 706 972 l 840 972 q 865 963 856 972 q 875 938 875 953 l 875 -31 q 796 -239 875 -165 q 564 -312 717 -312 l 551 -312 z "},"Ñ":{"ha":982,"x_min":108,"x_max":875,"o":"m 142 0 q 118 10 128 0 q 108 33 108 19 l 108 938 q 117 963 108 953 q 142 972 126 972 l 250 972 q 290 949 276 972 l 688 332 l 688 938 q 697 963 688 953 q 721 972 706 972 l 840 972 q 865 963 856 972 q 875 938 875 953 l 875 35 q 865 10 875 19 q 842 0 856 0 l 732 0 q 690 24 704 0 l 294 626 l 294 33 q 285 10 294 19 q 261 0 276 0 l 142 0 m 569 1035 q 524 1042 543 1035 q 479 1063 506 1049 q 448 1078 460 1074 q 422 1083 436 1083 q 403 1078 410 1083 q 388 1061 396 1074 q 361 1042 376 1042 l 296 1042 q 279 1049 286 1042 q 272 1065 272 1056 q 288 1133 272 1097 q 334 1194 303 1169 q 411 1219 365 1219 q 456 1213 438 1219 q 501 1192 475 1206 q 533 1176 521 1181 q 558 1171 544 1171 q 578 1176 571 1171 q 593 1193 585 1182 q 606 1208 600 1204 q 621 1213 611 1213 l 685 1213 q 703 1206 696 1213 q 710 1189 710 1199 q 694 1121 710 1157 q 646 1060 678 1085 q 569 1035 614 1035 z "},"O":{"ha":965,"x_min":75,"x_max":893,"o":"m 483 -14 q 188 82 293 -14 q 76 367 82 178 q 75 485 75 407 q 76 604 75 564 q 190 888 82 789 q 483 986 299 986 q 776 888 667 986 q 890 604 885 789 q 893 485 893 524 q 890 367 893 447 q 778 82 885 178 q 483 -14 672 -14 m 483 147 q 631 203 576 147 q 689 374 685 258 q 692 486 692 457 q 689 599 692 518 q 629 769 685 713 q 483 825 574 825 q 336 769 392 825 q 278 599 281 713 q 276 486 276 558 q 278 374 276 415 q 335 203 281 260 q 483 147 390 147 z "},"Ó":{"ha":965,"x_min":75,"x_max":893,"o":"m 483 -14 q 188 82 293 -14 q 76 367 82 178 q 75 485 75 407 q 76 604 75 564 q 190 888 82 789 q 483 986 299 986 q 776 888 667 986 q 890 604 885 789 q 893 485 893 524 q 890 367 893 447 q 778 82 885 178 q 483 -14 672 -14 m 483 147 q 631 203 576 147 q 689 374 685 258 q 692 486 692 457 q 689 599 692 518 q 629 769 685 713 q 483 825 574 825 q 336 769 392 825 q 278 599 281 713 q 276 486 276 558 q 278 374 276 415 q 335 203 281 260 q 483 147 390 147 m 419 1042 q 397 1064 397 1042 q 404 1082 397 1075 l 518 1219 q 541 1240 531 1235 q 569 1246 551 1246 l 719 1246 q 739 1238 732 1246 q 746 1218 746 1231 q 739 1201 746 1208 l 565 1060 q 542 1046 553 1050 q 517 1042 532 1042 l 419 1042 z "},"Ŏ":{"ha":965,"x_min":75,"x_max":893,"o":"m 483 -14 q 188 82 293 -14 q 76 367 82 178 q 75 485 75 407 q 76 604 75 564 q 190 888 82 789 q 483 986 299 986 q 776 888 667 986 q 890 604 885 789 q 893 485 893 524 q 890 367 893 447 q 778 82 885 178 q 483 -14 672 -14 m 483 147 q 631 203 576 147 q 689 374 685 258 q 692 486 692 457 q 689 599 692 518 q 629 769 685 713 q 483 825 574 825 q 336 769 392 825 q 278 599 281 713 q 276 486 276 558 q 278 374 276 415 q 335 203 281 260 q 483 147 390 147 m 483 1031 q 335 1082 382 1031 q 288 1215 288 1133 q 294 1234 288 1226 q 314 1242 301 1242 l 383 1242 q 403 1234 396 1242 q 410 1215 410 1226 q 426 1153 410 1178 q 483 1129 443 1129 q 539 1153 522 1129 q 556 1215 556 1178 q 563 1234 556 1226 q 582 1242 569 1242 l 651 1242 q 671 1234 664 1242 q 678 1215 678 1226 q 631 1082 678 1133 q 483 1031 583 1031 z "},"Ô":{"ha":965,"x_min":75,"x_max":893,"o":"m 483 -14 q 188 82 293 -14 q 76 367 82 178 q 75 485 75 407 q 76 604 75 564 q 190 888 82 789 q 483 986 299 986 q 776 888 667 986 q 890 604 885 789 q 893 485 893 524 q 890 367 893 447 q 778 82 885 178 q 483 -14 672 -14 m 483 147 q 631 203 576 147 q 689 374 685 258 q 692 486 692 457 q 689 599 692 518 q 629 769 685 713 q 483 825 574 825 q 336 769 392 825 q 278 599 281 713 q 276 486 276 558 q 278 374 276 415 q 335 203 281 260 q 483 147 390 147 m 267 1042 q 246 1060 246 1042 q 258 1083 246 1071 l 394 1224 q 417 1242 407 1238 q 442 1246 428 1246 l 525 1246 q 549 1242 539 1246 q 572 1224 558 1238 l 707 1083 q 719 1060 719 1071 q 700 1042 719 1042 l 644 1042 q 601 1051 619 1042 l 483 1125 l 365 1051 q 322 1042 347 1042 l 267 1042 z "},"Ö":{"ha":965,"x_min":75,"x_max":893,"o":"m 483 -14 q 188 82 293 -14 q 76 367 82 178 q 75 485 75 407 q 76 604 75 564 q 190 888 82 789 q 483 986 299 986 q 776 888 667 986 q 890 604 885 789 q 893 485 893 524 q 890 367 893 447 q 778 82 885 178 q 483 -14 672 -14 m 483 147 q 631 203 576 147 q 689 374 685 258 q 692 486 692 457 q 689 599 692 518 q 629 769 685 713 q 483 825 574 825 q 336 769 392 825 q 278 599 281 713 q 276 486 276 558 q 278 374 276 415 q 335 203 281 260 q 483 147 390 147 m 279 1042 q 257 1050 265 1042 q 249 1072 249 1058 l 249 1175 q 257 1198 249 1189 q 279 1207 265 1207 l 382 1207 q 405 1198 396 1207 q 414 1175 414 1189 l 414 1072 q 405 1050 414 1058 q 382 1042 396 1042 l 279 1042 m 583 1042 q 561 1050 569 1042 q 553 1072 553 1058 l 553 1175 q 561 1198 553 1189 q 583 1207 569 1207 l 686 1207 q 709 1198 700 1207 q 718 1175 718 1189 l 718 1072 q 709 1050 718 1058 q 686 1042 700 1042 l 583 1042 z "},"Ò":{"ha":965,"x_min":75,"x_max":893,"o":"m 483 -14 q 188 82 293 -14 q 76 367 82 178 q 75 485 75 407 q 76 604 75 564 q 190 888 82 789 q 483 986 299 986 q 776 888 667 986 q 890 604 885 789 q 893 485 893 524 q 890 367 893 447 q 778 82 885 178 q 483 -14 672 -14 m 483 147 q 631 203 576 147 q 689 374 685 258 q 692 486 692 457 q 689 599 692 518 q 629 769 685 713 q 483 825 574 825 q 336 769 392 825 q 278 599 281 713 q 276 486 276 558 q 278 374 276 415 q 335 203 281 260 q 483 147 390 147 m 456 1042 q 430 1046 440 1042 q 407 1060 419 1050 l 233 1201 q 226 1218 226 1208 q 233 1238 226 1231 q 253 1246 240 1246 l 404 1246 q 432 1240 422 1246 q 456 1219 442 1235 l 568 1082 q 575 1064 575 1075 q 553 1042 575 1042 l 456 1042 z "},"Ő":{"ha":965,"x_min":75,"x_max":893,"o":"m 483 -14 q 188 82 293 -14 q 76 367 82 178 q 75 485 75 407 q 76 604 75 564 q 190 888 82 789 q 483 986 299 986 q 776 888 667 986 q 890 604 885 789 q 893 485 893 524 q 890 367 893 447 q 778 82 885 178 q 483 -14 672 -14 m 483 147 q 631 203 576 147 q 689 374 685 258 q 692 486 692 457 q 689 599 692 518 q 629 769 685 713 q 483 825 574 825 q 336 769 392 825 q 278 599 281 713 q 276 486 276 558 q 278 374 276 415 q 335 203 281 260 q 483 147 390 147 m 313 1042 q 290 1064 290 1042 q 297 1085 290 1071 l 357 1219 q 376 1240 364 1233 q 408 1246 388 1246 l 532 1246 q 552 1239 544 1246 q 560 1219 560 1232 q 551 1201 560 1208 l 428 1061 q 383 1042 411 1042 l 313 1042 m 574 1042 q 551 1064 551 1042 q 558 1085 551 1071 l 619 1219 q 638 1240 626 1233 q 671 1246 650 1246 l 793 1246 q 813 1239 806 1246 q 821 1219 821 1232 q 813 1201 821 1208 l 689 1061 q 646 1042 672 1042 l 574 1042 z "},"Ō":{"ha":965,"x_min":75,"x_max":893,"o":"m 483 -14 q 188 82 293 -14 q 76 367 82 178 q 75 485 75 407 q 76 604 75 564 q 190 888 82 789 q 483 986 299 986 q 776 888 667 986 q 890 604 885 789 q 893 485 893 524 q 890 367 893 447 q 778 82 885 178 q 483 -14 672 -14 m 483 147 q 631 203 576 147 q 689 374 685 258 q 692 486 692 457 q 689 599 692 518 q 629 769 685 713 q 483 825 574 825 q 336 769 392 825 q 278 599 281 713 q 276 486 276 558 q 278 374 276 415 q 335 203 281 260 q 483 147 390 147 m 293 1042 q 271 1050 279 1042 q 263 1072 263 1058 l 263 1151 q 271 1174 263 1165 q 293 1182 279 1182 l 672 1182 q 695 1174 686 1182 q 704 1151 704 1165 l 704 1072 q 695 1050 704 1058 q 672 1042 686 1042 l 293 1042 z "},"Ø":{"ha":1004,"x_min":15,"x_max":989,"o":"m 504 -14 q 242 56 342 -14 q 113 269 142 126 l 60 250 q 43 246 49 246 q 23 253 31 246 q 15 272 15 260 l 15 350 q 22 375 15 367 q 46 390 29 383 l 96 408 l 94 489 q 97 604 94 524 q 212 888 103 789 q 504 986 321 986 q 755 918 654 986 q 890 719 856 850 l 944 740 q 961 744 956 744 q 981 738 974 744 q 989 718 989 731 l 989 639 q 982 615 989 622 q 958 600 975 607 l 913 583 l 914 492 q 911 367 914 450 q 800 82 906 178 q 504 -14 694 -14 m 704 646 q 639 781 692 736 q 504 825 586 825 q 358 769 413 825 q 299 599 303 713 q 297 489 296 521 l 704 646 m 504 147 q 652 203 597 147 q 710 374 707 260 q 711 504 713 465 l 300 343 q 365 195 311 243 q 504 147 418 147 z "},"Ǿ":{"ha":1004,"x_min":15,"x_max":989,"o":"m 504 -14 q 242 56 342 -14 q 113 269 142 126 l 60 250 q 43 246 49 246 q 23 253 31 246 q 15 272 15 260 l 15 350 q 22 375 15 367 q 46 390 29 383 l 96 408 l 94 489 q 97 604 94 524 q 212 888 103 789 q 504 986 321 986 q 755 918 654 986 q 890 719 856 850 l 944 740 q 961 744 956 744 q 981 738 974 744 q 989 718 989 731 l 989 639 q 982 615 989 622 q 958 600 975 607 l 913 583 l 914 492 q 911 367 914 450 q 800 82 906 178 q 504 -14 694 -14 m 704 646 q 639 781 692 736 q 504 825 586 825 q 358 769 413 825 q 299 599 303 713 q 297 489 296 521 l 704 646 m 504 147 q 652 203 597 147 q 710 374 707 260 q 711 504 713 465 l 300 343 q 365 195 311 243 q 504 147 418 147 m 438 1042 q 415 1064 415 1042 q 422 1082 415 1075 l 536 1219 q 559 1240 549 1235 q 588 1246 569 1246 l 738 1246 q 757 1238 750 1246 q 764 1218 764 1231 q 757 1201 764 1208 l 583 1060 q 560 1046 571 1050 q 535 1042 550 1042 l 438 1042 z "},"Õ":{"ha":965,"x_min":75,"x_max":893,"o":"m 483 -14 q 188 82 293 -14 q 76 367 82 178 q 75 485 75 407 q 76 604 75 564 q 190 888 82 789 q 483 986 299 986 q 776 888 667 986 q 890 604 885 789 q 893 485 893 524 q 890 367 893 447 q 778 82 885 178 q 483 -14 672 -14 m 483 147 q 631 203 576 147 q 689 374 685 258 q 692 486 692 457 q 689 599 692 518 q 629 769 685 713 q 483 825 574 825 q 336 769 392 825 q 278 599 281 713 q 276 486 276 558 q 278 374 276 415 q 335 203 281 260 q 483 147 390 147 m 561 1035 q 516 1042 535 1035 q 471 1063 497 1049 q 440 1078 451 1074 q 414 1083 428 1083 q 394 1078 401 1083 q 379 1061 388 1074 q 353 1042 368 1042 l 288 1042 q 271 1049 278 1042 q 264 1065 264 1056 q 279 1133 264 1097 q 326 1194 294 1169 q 403 1219 357 1219 q 448 1213 429 1219 q 493 1192 467 1206 q 524 1176 513 1181 q 550 1171 536 1171 q 569 1176 563 1171 q 585 1193 576 1182 q 597 1208 592 1204 q 613 1213 603 1213 l 676 1213 q 694 1206 688 1213 q 701 1189 701 1199 q 685 1121 701 1157 q 638 1060 669 1085 q 561 1035 606 1035 z "},"Œ":{"ha":1310,"x_min":75,"x_max":1243,"o":"m 489 0 q 183 92 282 0 q 76 379 83 185 l 75 486 l 76 594 q 496 972 88 972 l 1199 972 q 1223 963 1214 972 q 1232 938 1232 953 l 1232 844 q 1223 821 1232 831 q 1199 811 1214 811 l 786 811 l 786 568 l 1168 568 q 1192 558 1183 568 q 1201 533 1201 549 l 1201 446 q 1192 422 1201 432 q 1168 413 1183 413 l 786 413 l 786 161 l 1210 161 q 1234 152 1225 161 q 1243 128 1243 143 l 1243 33 q 1234 10 1243 19 q 1210 0 1225 0 l 489 0 m 596 161 l 596 811 l 503 811 q 332 758 386 811 q 275 590 278 704 q 274 488 274 550 q 275 383 274 425 q 329 213 278 264 q 496 161 381 161 l 596 161 z "},"P":{"ha":917,"x_min":108,"x_max":874,"o":"m 142 0 q 118 10 128 0 q 108 33 108 19 l 108 938 q 117 963 108 953 q 142 972 126 972 l 514 972 q 778 893 682 972 q 874 663 874 814 q 778 435 874 513 q 514 358 682 358 l 310 358 l 310 33 q 300 9 310 18 q 275 0 290 0 l 142 0 m 507 514 q 630 552 588 514 q 672 664 672 590 q 631 776 672 736 q 507 817 590 817 l 307 817 l 307 514 l 507 514 z "},"Þ":{"ha":921,"x_min":108,"x_max":874,"o":"m 142 0 q 118 10 128 0 q 108 33 108 19 l 108 939 q 118 963 108 954 q 142 972 128 972 l 276 972 q 301 963 292 972 q 310 939 310 954 l 310 799 l 511 799 q 777 720 681 799 q 874 490 874 642 q 778 262 874 339 q 511 185 682 185 l 310 185 l 310 33 q 300 9 310 18 q 275 0 290 0 l 142 0 m 507 340 q 629 378 586 340 q 672 490 672 417 q 631 603 672 563 q 507 643 590 643 l 307 643 l 307 340 l 507 340 z "},"Q":{"ha":965,"x_min":74,"x_max":892,"o":"m 732 -90 q 702 -81 714 -90 q 681 -58 690 -72 l 629 11 q 482 -14 567 -14 q 187 82 293 -14 q 75 367 81 178 q 74 485 74 407 q 75 604 74 564 q 190 888 81 789 q 482 986 299 986 q 775 888 667 986 q 889 604 883 789 q 892 485 892 524 q 889 367 892 447 q 789 92 883 183 l 886 -47 q 890 -61 890 -56 l 890 -64 q 882 -83 890 -75 q 863 -90 874 -90 l 732 -90 m 482 147 q 630 203 575 147 q 688 374 685 260 q 690 486 690 457 q 688 599 690 518 q 629 769 685 713 q 482 825 574 825 q 335 769 390 825 q 276 599 281 713 q 275 486 275 558 q 276 374 275 415 q 335 203 281 258 q 482 147 389 147 z "},"R":{"ha":936,"x_min":108,"x_max":886,"o":"m 142 0 q 118 10 128 0 q 108 33 108 19 l 108 938 q 117 963 108 953 q 142 972 126 972 l 501 972 q 769 893 672 972 q 865 668 865 814 q 817 498 865 567 q 681 399 768 429 l 882 44 q 886 29 886 36 q 877 8 886 17 q 857 0 868 0 l 729 0 q 694 10 707 0 q 672 38 682 21 l 494 367 l 304 367 l 304 33 q 294 10 304 19 q 269 0 285 0 l 142 0 m 497 525 q 622 562 581 525 q 664 669 664 599 q 622 778 664 740 q 497 817 581 817 l 304 817 l 304 525 l 497 525 z "},"Ŕ":{"ha":936,"x_min":108,"x_max":886,"o":"m 142 0 q 118 10 128 0 q 108 33 108 19 l 108 938 q 117 963 108 953 q 142 972 126 972 l 501 972 q 769 893 672 972 q 865 668 865 814 q 817 498 865 567 q 681 399 768 429 l 882 44 q 886 29 886 36 q 877 8 886 17 q 857 0 868 0 l 729 0 q 694 10 707 0 q 672 38 682 21 l 494 367 l 304 367 l 304 33 q 294 10 304 19 q 269 0 285 0 l 142 0 m 497 525 q 622 562 581 525 q 664 669 664 599 q 622 778 664 740 q 497 817 581 817 l 304 817 l 304 525 l 497 525 m 376 1042 q 354 1064 354 1042 q 361 1082 354 1075 l 475 1219 q 498 1240 488 1235 q 526 1246 508 1246 l 676 1246 q 696 1238 689 1246 q 703 1218 703 1231 q 696 1201 703 1208 l 522 1060 q 499 1046 510 1050 q 474 1042 489 1042 l 376 1042 z "},"Ř":{"ha":936,"x_min":108,"x_max":886,"o":"m 142 0 q 118 10 128 0 q 108 33 108 19 l 108 938 q 117 963 108 953 q 142 972 126 972 l 501 972 q 769 893 672 972 q 865 668 865 814 q 817 498 865 567 q 681 399 768 429 l 882 44 q 886 29 886 36 q 877 8 886 17 q 857 0 868 0 l 729 0 q 694 10 707 0 q 672 38 682 21 l 494 367 l 304 367 l 304 33 q 294 10 304 19 q 269 0 285 0 l 142 0 m 497 525 q 622 562 581 525 q 664 669 664 599 q 622 778 664 740 q 497 817 581 817 l 304 817 l 304 525 l 497 525 m 399 1042 q 374 1046 385 1042 q 351 1064 364 1050 l 215 1204 q 203 1228 203 1215 q 224 1246 203 1246 l 279 1246 q 322 1236 304 1246 l 440 1163 l 558 1236 q 601 1246 576 1246 l 657 1246 q 676 1228 676 1246 q 664 1204 676 1215 l 529 1064 q 506 1046 515 1050 q 482 1042 496 1042 l 399 1042 z "},"Ŗ":{"ha":936,"x_min":108,"x_max":886,"o":"m 142 0 q 118 10 128 0 q 108 33 108 19 l 108 938 q 117 963 108 953 q 142 972 126 972 l 501 972 q 769 893 672 972 q 865 668 865 814 q 817 498 865 567 q 681 399 768 429 l 882 44 q 886 29 886 36 q 877 8 886 17 q 857 0 868 0 l 729 0 q 694 10 707 0 q 672 38 682 21 l 494 367 l 304 367 l 304 33 q 294 10 304 19 q 269 0 285 0 l 142 0 m 497 525 q 622 562 581 525 q 664 669 664 599 q 622 778 664 740 q 497 817 581 817 l 304 817 l 304 525 l 497 525 m 371 -315 q 351 -306 358 -315 q 346 -285 344 -297 l 372 -114 q 386 -82 375 -94 q 417 -69 397 -69 l 542 -69 q 559 -77 551 -69 q 567 -96 567 -85 q 563 -114 567 -104 l 499 -279 q 480 -306 490 -296 q 451 -315 469 -315 l 371 -315 z "},"S":{"ha":893,"x_min":50,"x_max":843,"o":"m 447 -14 q 233 24 322 -14 q 99 122 144 61 q 50 256 53 183 q 58 276 50 267 q 79 285 67 285 l 206 285 q 231 278 221 285 q 249 258 240 271 q 312 179 263 211 q 447 147 361 147 q 594 180 544 147 q 643 269 643 213 q 618 332 643 307 q 542 376 593 357 q 392 421 492 394 q 151 524 228 460 q 75 707 75 588 q 119 851 75 788 q 247 950 164 914 q 439 986 329 986 q 638 946 554 986 q 766 845 722 906 q 813 725 810 785 q 804 705 813 714 q 783 696 796 696 l 651 696 q 610 721 621 696 q 556 795 603 765 q 439 825 508 825 q 319 796 363 825 q 275 711 275 767 q 297 649 275 674 q 367 605 319 624 q 504 563 414 586 q 701 500 628 535 q 808 413 774 465 q 843 278 843 360 q 794 122 843 188 q 655 21 744 56 q 447 -14 565 -14 z "},"Ś":{"ha":893,"x_min":50,"x_max":843,"o":"m 447 -14 q 233 24 322 -14 q 99 122 144 61 q 50 256 53 183 q 58 276 50 267 q 79 285 67 285 l 206 285 q 231 278 221 285 q 249 258 240 271 q 312 179 263 211 q 447 147 361 147 q 594 180 544 147 q 643 269 643 213 q 618 332 643 307 q 542 376 593 357 q 392 421 492 394 q 151 524 228 460 q 75 707 75 588 q 119 851 75 788 q 247 950 164 914 q 439 986 329 986 q 638 946 554 986 q 766 845 722 906 q 813 725 810 785 q 804 705 813 714 q 783 696 796 696 l 651 696 q 610 721 621 696 q 556 795 603 765 q 439 825 508 825 q 319 796 363 825 q 275 711 275 767 q 297 649 275 674 q 367 605 319 624 q 504 563 414 586 q 701 500 628 535 q 808 413 774 465 q 843 278 843 360 q 794 122 843 188 q 655 21 744 56 q 447 -14 565 -14 m 383 1042 q 361 1064 361 1042 q 368 1082 361 1075 l 482 1219 q 505 1240 494 1235 q 533 1246 515 1246 l 683 1246 q 703 1238 696 1246 q 710 1218 710 1231 q 703 1201 710 1208 l 529 1060 q 506 1046 517 1050 q 481 1042 496 1042 l 383 1042 z "},"Š":{"ha":893,"x_min":50,"x_max":843,"o":"m 447 -14 q 233 24 322 -14 q 99 122 144 61 q 50 256 53 183 q 58 276 50 267 q 79 285 67 285 l 206 285 q 231 278 221 285 q 249 258 240 271 q 312 179 263 211 q 447 147 361 147 q 594 180 544 147 q 643 269 643 213 q 618 332 643 307 q 542 376 593 357 q 392 421 492 394 q 151 524 228 460 q 75 707 75 588 q 119 851 75 788 q 247 950 164 914 q 439 986 329 986 q 638 946 554 986 q 766 845 722 906 q 813 725 810 785 q 804 705 813 714 q 783 696 796 696 l 651 696 q 610 721 621 696 q 556 795 603 765 q 439 825 508 825 q 319 796 363 825 q 275 711 275 767 q 297 649 275 674 q 367 605 319 624 q 504 563 414 586 q 701 500 628 535 q 808 413 774 465 q 843 278 843 360 q 794 122 843 188 q 655 21 744 56 q 447 -14 565 -14 m 406 1042 q 381 1046 392 1042 q 358 1064 371 1050 l 222 1204 q 210 1228 210 1215 q 231 1246 210 1246 l 286 1246 q 329 1236 311 1246 l 447 1163 l 565 1236 q 608 1246 583 1246 l 664 1246 q 683 1228 683 1246 q 671 1204 683 1215 l 536 1064 q 513 1046 522 1050 q 489 1042 503 1042 l 406 1042 z "},"Ş":{"ha":893,"x_min":50,"x_max":843,"o":"m 446 -306 q 363 -286 399 -306 q 326 -247 326 -267 q 332 -235 326 -240 l 356 -214 q 369 -207 363 -207 q 397 -219 376 -207 q 443 -231 418 -231 q 480 -217 465 -231 q 494 -183 494 -204 q 480 -151 494 -164 q 443 -139 465 -139 q 409 -145 429 -139 q 382 -151 389 -151 q 364 -143 372 -151 l 339 -117 q 333 -101 333 -110 q 342 -74 333 -90 l 369 -8 q 197 41 269 3 q 88 135 125 79 q 50 256 51 192 q 58 276 50 267 q 79 285 67 285 l 206 285 q 231 278 221 285 q 249 258 240 271 q 312 179 263 211 q 447 147 361 147 q 594 180 544 147 q 643 269 643 213 q 618 332 643 307 q 542 376 593 357 q 392 421 492 394 q 151 524 228 460 q 75 707 75 588 q 119 851 75 788 q 247 950 164 914 q 439 986 329 986 q 638 946 554 986 q 766 845 722 906 q 813 725 810 785 q 804 705 813 714 q 783 696 796 696 l 651 696 q 610 721 621 696 q 556 795 603 765 q 439 825 508 825 q 319 796 363 825 q 275 711 275 767 q 297 649 275 674 q 367 605 319 624 q 504 563 414 586 q 701 500 628 535 q 808 413 774 465 q 843 278 843 360 q 794 123 843 189 q 656 22 744 57 q 450 -14 567 -12 l 421 -74 q 468 -64 436 -64 q 547 -97 517 -64 q 576 -182 576 -129 q 542 -270 576 -235 q 446 -306 507 -306 z "},"Ŝ":{"ha":893,"x_min":50,"x_max":843,"o":"m 447 -14 q 233 24 322 -14 q 99 122 144 61 q 50 256 53 183 q 58 276 50 267 q 79 285 67 285 l 206 285 q 231 278 221 285 q 249 258 240 271 q 312 179 263 211 q 447 147 361 147 q 594 180 544 147 q 643 269 643 213 q 618 332 643 307 q 542 376 593 357 q 392 421 492 394 q 151 524 228 460 q 75 707 75 588 q 119 851 75 788 q 247 950 164 914 q 439 986 329 986 q 638 946 554 986 q 766 845 722 906 q 813 725 810 785 q 804 705 813 714 q 783 696 796 696 l 651 696 q 610 721 621 696 q 556 795 603 765 q 439 825 508 825 q 319 796 363 825 q 275 711 275 767 q 297 649 275 674 q 367 605 319 624 q 504 563 414 586 q 701 500 628 535 q 808 413 774 465 q 843 278 843 360 q 794 122 843 188 q 655 21 744 56 q 447 -14 565 -14 m 231 1042 q 210 1060 210 1042 q 222 1083 210 1071 l 358 1224 q 381 1242 371 1238 q 406 1246 392 1246 l 489 1246 q 513 1242 503 1246 q 536 1224 522 1238 l 671 1083 q 683 1060 683 1071 q 664 1042 683 1042 l 608 1042 q 565 1051 583 1042 l 447 1125 l 329 1051 q 286 1042 311 1042 l 231 1042 z "},"Ș":{"ha":893,"x_min":50,"x_max":843,"o":"m 447 -14 q 233 24 322 -14 q 99 122 144 61 q 50 256 53 183 q 58 276 50 267 q 79 285 67 285 l 206 285 q 231 278 221 285 q 249 258 240 271 q 312 179 263 211 q 447 147 361 147 q 594 180 544 147 q 643 269 643 213 q 618 332 643 307 q 542 376 593 357 q 392 421 492 394 q 151 524 228 460 q 75 707 75 588 q 119 851 75 788 q 247 950 164 914 q 439 986 329 986 q 638 946 554 986 q 766 845 722 906 q 813 725 810 785 q 804 705 813 714 q 783 696 796 696 l 651 696 q 610 721 621 696 q 556 795 603 765 q 439 825 508 825 q 319 796 363 825 q 275 711 275 767 q 297 649 275 674 q 367 605 319 624 q 504 563 414 586 q 701 500 628 535 q 808 413 774 465 q 843 278 843 360 q 794 122 843 188 q 655 21 744 56 q 447 -14 565 -14 m 343 -315 q 324 -306 331 -315 q 318 -285 317 -297 l 344 -114 q 358 -82 347 -94 q 389 -69 369 -69 l 514 -69 q 531 -77 524 -69 q 539 -96 539 -85 q 535 -114 539 -104 l 471 -279 q 452 -306 463 -296 q 424 -315 442 -315 l 343 -315 z "},"T":{"ha":842,"x_min":32,"x_max":810,"o":"m 356 0 q 332 10 342 0 q 322 33 322 19 l 322 799 l 65 799 q 42 808 51 799 q 32 833 32 818 l 32 938 q 41 963 32 953 q 65 972 50 972 l 775 972 q 800 963 790 972 q 810 938 810 953 l 810 833 q 800 808 810 818 q 775 799 790 799 l 519 799 l 519 33 q 510 10 519 19 q 486 0 501 0 l 356 0 z "},"Ŧ":{"ha":854,"x_min":38,"x_max":817,"o":"m 361 0 q 338 10 347 0 q 328 33 328 19 l 328 433 l 181 433 q 157 443 167 433 q 147 467 147 453 l 147 519 q 156 544 147 535 q 181 554 165 554 l 328 554 l 328 799 l 72 799 q 48 809 58 799 q 38 833 38 819 l 38 938 q 47 963 38 953 q 72 972 57 972 l 782 972 q 807 963 797 972 q 817 938 817 953 l 817 833 q 807 809 817 819 q 782 799 797 799 l 526 799 l 526 554 l 674 554 q 698 544 689 554 q 707 519 707 535 l 707 467 q 698 443 707 453 q 674 433 689 433 l 526 433 l 526 33 q 517 9 526 18 q 492 0 507 0 l 361 0 z "},"Ť":{"ha":842,"x_min":32,"x_max":810,"o":"m 356 0 q 332 10 342 0 q 322 33 322 19 l 322 799 l 65 799 q 42 808 51 799 q 32 833 32 818 l 32 938 q 41 963 32 953 q 65 972 50 972 l 775 972 q 800 963 790 972 q 810 938 810 953 l 810 833 q 800 808 810 818 q 775 799 790 799 l 519 799 l 519 33 q 510 10 519 19 q 486 0 501 0 l 356 0 m 379 1042 q 355 1046 365 1042 q 332 1064 344 1050 l 196 1204 q 183 1228 183 1215 q 204 1246 183 1246 l 260 1246 q 303 1236 285 1246 l 421 1163 l 539 1236 q 582 1246 557 1246 l 638 1246 q 657 1228 657 1246 q 644 1204 657 1215 l 510 1064 q 486 1046 496 1050 q 463 1042 476 1042 l 379 1042 z "},"Ț":{"ha":842,"x_min":32,"x_max":810,"o":"m 356 0 q 332 10 342 0 q 322 33 322 19 l 322 799 l 65 799 q 42 808 51 799 q 32 833 32 818 l 32 938 q 41 963 32 953 q 65 972 50 972 l 775 972 q 800 963 790 972 q 810 938 810 953 l 810 833 q 800 808 810 818 q 775 799 790 799 l 519 799 l 519 33 q 510 10 519 19 q 486 0 501 0 l 356 0 m 315 -315 q 296 -306 303 -315 q 290 -285 289 -297 l 317 -114 q 331 -82 319 -94 q 361 -69 342 -69 l 486 -69 q 503 -77 496 -69 q 511 -96 511 -85 q 507 -114 511 -104 l 443 -279 q 424 -306 435 -296 q 396 -315 414 -315 l 315 -315 z "},"U":{"ha":992,"x_min":100,"x_max":892,"o":"m 497 -14 q 204 82 308 -14 q 100 372 100 178 l 100 938 q 109 963 100 953 q 133 972 118 972 l 261 972 q 286 963 276 972 q 296 938 296 953 l 296 372 q 348 207 296 263 q 496 151 400 151 q 644 207 592 151 q 696 372 696 263 l 696 938 q 706 963 696 953 q 731 972 715 972 l 858 972 q 883 963 874 972 q 892 938 892 953 l 892 372 q 788 82 892 178 q 497 -14 685 -14 z "},"Ú":{"ha":992,"x_min":100,"x_max":892,"o":"m 497 -14 q 204 82 308 -14 q 100 372 100 178 l 100 938 q 109 963 100 953 q 133 972 118 972 l 261 972 q 286 963 276 972 q 296 938 296 953 l 296 372 q 348 207 296 263 q 496 151 400 151 q 644 207 592 151 q 696 372 696 263 l 696 938 q 706 963 696 953 q 731 972 715 972 l 858 972 q 883 963 874 972 q 892 938 892 953 l 892 372 q 788 82 892 178 q 497 -14 685 -14 m 432 1042 q 410 1064 410 1042 q 417 1082 410 1075 l 531 1219 q 553 1240 543 1235 q 582 1246 564 1246 l 732 1246 q 751 1238 744 1246 q 758 1218 758 1231 q 751 1201 758 1208 l 578 1060 q 555 1046 565 1050 q 529 1042 544 1042 l 432 1042 z "},"Ŭ":{"ha":992,"x_min":100,"x_max":892,"o":"m 497 -14 q 204 82 308 -14 q 100 372 100 178 l 100 938 q 109 963 100 953 q 133 972 118 972 l 261 972 q 286 963 276 972 q 296 938 296 953 l 296 372 q 348 207 296 263 q 496 151 400 151 q 644 207 592 151 q 696 372 696 263 l 696 938 q 706 963 696 953 q 731 972 715 972 l 858 972 q 883 963 874 972 q 892 938 892 953 l 892 372 q 788 82 892 178 q 497 -14 685 -14 m 496 1031 q 347 1082 394 1031 q 300 1215 300 1133 q 307 1234 300 1226 q 326 1242 314 1242 l 396 1242 q 415 1234 408 1242 q 422 1215 422 1226 q 439 1153 422 1178 q 496 1129 456 1129 q 551 1153 535 1129 q 568 1215 568 1178 q 575 1234 568 1226 q 594 1242 582 1242 l 664 1242 q 683 1234 676 1242 q 690 1215 690 1226 q 643 1082 690 1133 q 496 1031 596 1031 z "},"Û":{"ha":992,"x_min":100,"x_max":892,"o":"m 497 -14 q 204 82 308 -14 q 100 372 100 178 l 100 938 q 109 963 100 953 q 133 972 118 972 l 261 972 q 286 963 276 972 q 296 938 296 953 l 296 372 q 348 207 296 263 q 496 151 400 151 q 644 207 592 151 q 696 372 696 263 l 696 938 q 706 963 696 953 q 731 972 715 972 l 858 972 q 883 963 874 972 q 892 938 892 953 l 892 372 q 788 82 892 178 q 497 -14 685 -14 m 279 1042 q 258 1060 258 1042 q 271 1083 258 1071 l 407 1224 q 430 1242 419 1238 q 454 1246 440 1246 l 538 1246 q 561 1242 551 1246 q 585 1224 571 1238 l 719 1083 q 732 1060 732 1071 q 713 1042 732 1042 l 657 1042 q 614 1051 632 1042 l 496 1125 l 378 1051 q 335 1042 360 1042 l 279 1042 z "},"Ü":{"ha":992,"x_min":100,"x_max":892,"o":"m 497 -14 q 204 82 308 -14 q 100 372 100 178 l 100 938 q 109 963 100 953 q 133 972 118 972 l 261 972 q 286 963 276 972 q 296 938 296 953 l 296 372 q 348 207 296 263 q 496 151 400 151 q 644 207 592 151 q 696 372 696 263 l 696 938 q 706 963 696 953 q 731 972 715 972 l 858 972 q 883 963 874 972 q 892 938 892 953 l 892 372 q 788 82 892 178 q 497 -14 685 -14 m 292 1042 q 269 1050 278 1042 q 261 1072 261 1058 l 261 1175 q 269 1198 261 1189 q 292 1207 278 1207 l 394 1207 q 417 1198 408 1207 q 426 1175 426 1189 l 426 1072 q 417 1050 426 1058 q 394 1042 408 1042 l 292 1042 m 596 1042 q 574 1050 582 1042 q 565 1072 565 1058 l 565 1175 q 574 1198 565 1189 q 596 1207 582 1207 l 699 1207 q 722 1198 713 1207 q 731 1175 731 1189 l 731 1072 q 722 1050 731 1058 q 699 1042 713 1042 l 596 1042 z "},"Ù":{"ha":992,"x_min":100,"x_max":892,"o":"m 497 -14 q 204 82 308 -14 q 100 372 100 178 l 100 938 q 109 963 100 953 q 133 972 118 972 l 261 972 q 286 963 276 972 q 296 938 296 953 l 296 372 q 348 207 296 263 q 496 151 400 151 q 644 207 592 151 q 696 372 696 263 l 696 938 q 706 963 696 953 q 731 972 715 972 l 858 972 q 883 963 874 972 q 892 938 892 953 l 892 372 q 788 82 892 178 q 497 -14 685 -14 m 468 1042 q 442 1046 453 1042 q 419 1060 432 1050 l 246 1201 q 239 1218 239 1208 q 246 1238 239 1231 q 265 1246 253 1246 l 417 1246 q 444 1240 435 1246 q 468 1219 454 1235 l 581 1082 q 588 1064 588 1075 q 565 1042 588 1042 l 468 1042 z "},"Ű":{"ha":992,"x_min":100,"x_max":892,"o":"m 497 -14 q 204 82 308 -14 q 100 372 100 178 l 100 938 q 109 963 100 953 q 133 972 118 972 l 261 972 q 286 963 276 972 q 296 938 296 953 l 296 372 q 348 207 296 263 q 496 151 400 151 q 644 207 592 151 q 696 372 696 263 l 696 938 q 706 963 696 953 q 731 972 715 972 l 858 972 q 883 963 874 972 q 892 938 892 953 l 892 372 q 788 82 892 178 q 497 -14 685 -14 m 325 1042 q 303 1064 303 1042 q 310 1085 303 1071 l 369 1219 q 388 1240 376 1233 q 421 1246 400 1246 l 544 1246 q 565 1239 557 1246 q 572 1219 572 1232 q 564 1201 572 1208 l 440 1061 q 396 1042 424 1042 l 325 1042 m 586 1042 q 564 1064 564 1042 q 571 1085 564 1071 l 632 1219 q 651 1240 639 1233 q 683 1246 663 1246 l 806 1246 q 826 1239 818 1246 q 833 1219 833 1232 q 825 1201 833 1208 l 701 1061 q 658 1042 685 1042 l 586 1042 z "},"Ū":{"ha":992,"x_min":100,"x_max":892,"o":"m 497 -14 q 204 82 308 -14 q 100 372 100 178 l 100 938 q 109 963 100 953 q 133 972 118 972 l 261 972 q 286 963 276 972 q 296 938 296 953 l 296 372 q 348 207 296 263 q 496 151 400 151 q 644 207 592 151 q 696 372 696 263 l 696 938 q 706 963 696 953 q 731 972 715 972 l 858 972 q 883 963 874 972 q 892 938 892 953 l 892 372 q 788 82 892 178 q 497 -14 685 -14 m 306 1042 q 283 1050 292 1042 q 275 1072 275 1058 l 275 1151 q 283 1174 275 1165 q 306 1182 292 1182 l 685 1182 q 708 1174 699 1182 q 717 1151 717 1165 l 717 1072 q 708 1050 717 1058 q 685 1042 699 1042 l 306 1042 z "},"Ų":{"ha":992,"x_min":100,"x_max":892,"o":"m 596 -306 q 442 -248 496 -306 q 389 -94 389 -190 q 404 -7 389 -44 q 179 108 258 14 q 100 372 100 203 l 100 938 q 109 963 100 953 q 133 972 118 972 l 261 972 q 286 963 276 972 q 296 938 296 953 l 296 372 q 348 207 296 263 q 496 151 400 151 q 644 207 592 151 q 696 372 696 263 l 696 938 q 706 963 696 953 q 731 972 715 972 l 858 972 q 883 963 874 972 q 892 938 892 953 l 892 372 q 814 112 892 206 q 593 -7 736 18 q 531 -36 551 -15 q 511 -94 511 -57 q 535 -162 511 -136 q 601 -189 558 -189 l 619 -189 q 644 -199 635 -189 q 653 -222 653 -208 l 653 -272 q 644 -297 653 -287 q 619 -306 635 -306 l 596 -306 z "},"Ů":{"ha":992,"x_min":100,"x_max":892,"o":"m 497 -14 q 204 82 308 -14 q 100 372 100 178 l 100 938 q 109 963 100 953 q 133 972 118 972 l 261 972 q 286 963 276 972 q 296 938 296 953 l 296 372 q 348 207 296 263 q 496 151 400 151 q 644 207 592 151 q 696 372 696 263 l 696 938 q 706 963 696 953 q 731 972 715 972 l 858 972 q 883 963 874 972 q 892 938 892 953 l 892 372 q 788 82 892 178 q 497 -14 685 -14 m 496 1028 q 409 1060 444 1028 q 374 1143 374 1093 q 409 1226 374 1193 q 496 1260 444 1260 q 583 1226 547 1260 q 618 1143 618 1193 q 583 1060 618 1093 q 496 1028 547 1028 m 496 1101 q 526 1113 514 1101 q 538 1143 538 1125 q 526 1173 538 1161 q 496 1185 514 1185 q 466 1173 478 1185 q 454 1143 454 1161 q 466 1113 454 1125 q 496 1101 478 1101 z "},"Ũ":{"ha":992,"x_min":100,"x_max":892,"o":"m 497 -14 q 204 82 308 -14 q 100 372 100 178 l 100 938 q 109 963 100 953 q 133 972 118 972 l 261 972 q 286 963 276 972 q 296 938 296 953 l 296 372 q 348 207 296 263 q 496 151 400 151 q 644 207 592 151 q 696 372 696 263 l 696 938 q 706 963 696 953 q 731 972 715 972 l 858 972 q 883 963 874 972 q 892 938 892 953 l 892 372 q 788 82 892 178 q 497 -14 685 -14 m 574 1035 q 528 1042 547 1035 q 483 1063 510 1049 q 452 1078 464 1074 q 426 1083 440 1083 q 407 1078 414 1083 q 392 1061 400 1074 q 365 1042 381 1042 l 300 1042 q 283 1049 290 1042 q 276 1065 276 1056 q 292 1133 276 1097 q 338 1194 307 1169 q 415 1219 369 1219 q 460 1213 442 1219 q 506 1192 479 1206 q 537 1176 525 1181 q 563 1171 549 1171 q 582 1176 575 1171 q 597 1193 589 1182 q 610 1208 604 1204 q 625 1213 615 1213 l 689 1213 q 707 1206 700 1213 q 714 1189 714 1199 q 698 1121 714 1157 q 650 1060 682 1085 q 574 1035 618 1035 z "},"V":{"ha":938,"x_min":39,"x_max":899,"o":"m 392 0 q 338 39 350 0 l 40 931 q 39 943 39 935 q 47 964 39 956 q 68 972 56 972 l 192 972 q 221 963 210 972 q 236 942 232 953 l 468 231 l 701 942 q 715 963 704 953 q 744 972 726 972 l 869 972 q 890 964 881 972 q 899 943 899 956 l 896 931 l 600 39 q 546 0 586 0 l 392 0 z "},"W":{"ha":1133,"x_min":53,"x_max":1081,"o":"m 268 0 q 218 42 228 0 l 54 932 l 53 943 q 61 964 53 956 q 82 972 69 972 l 207 972 q 233 966 225 972 q 244 944 242 960 l 360 319 l 483 722 q 529 757 497 757 l 606 757 q 635 747 624 757 q 650 722 646 736 l 775 319 l 889 944 q 928 972 893 972 l 1053 972 q 1072 964 1064 972 q 1081 943 1081 956 q 1079 932 1081 936 l 915 42 q 899 11 913 22 q 865 0 886 0 l 771 0 q 739 10 751 0 q 722 35 726 21 l 567 496 l 411 35 q 363 0 400 0 l 268 0 z "},"Ẃ":{"ha":1133,"x_min":53,"x_max":1081,"o":"m 268 0 q 218 42 228 0 l 54 932 l 53 943 q 61 964 53 956 q 82 972 69 972 l 207 972 q 233 966 225 972 q 244 944 242 960 l 360 319 l 483 722 q 529 757 497 757 l 606 757 q 635 747 624 757 q 650 722 646 736 l 775 319 l 889 944 q 928 972 893 972 l 1053 972 q 1072 964 1064 972 q 1081 943 1081 956 q 1079 932 1081 936 l 915 42 q 899 11 913 22 q 865 0 886 0 l 771 0 q 739 10 751 0 q 722 35 726 21 l 567 496 l 411 35 q 363 0 400 0 l 268 0 m 503 1042 q 481 1064 481 1042 q 488 1082 481 1075 l 601 1219 q 624 1240 614 1235 q 653 1246 635 1246 l 803 1246 q 822 1238 815 1246 q 829 1218 829 1231 q 822 1201 829 1208 l 649 1060 q 626 1046 636 1050 q 600 1042 615 1042 l 503 1042 z "},"Ŵ":{"ha":1133,"x_min":53,"x_max":1081,"o":"m 268 0 q 218 42 228 0 l 54 932 l 53 943 q 61 964 53 956 q 82 972 69 972 l 207 972 q 233 966 225 972 q 244 944 242 960 l 360 319 l 483 722 q 529 757 497 757 l 606 757 q 635 747 624 757 q 650 722 646 736 l 775 319 l 889 944 q 928 972 893 972 l 1053 972 q 1072 964 1064 972 q 1081 943 1081 956 q 1079 932 1081 936 l 915 42 q 899 11 913 22 q 865 0 886 0 l 771 0 q 739 10 751 0 q 722 35 726 21 l 567 496 l 411 35 q 363 0 400 0 l 268 0 m 350 1042 q 329 1060 329 1042 q 342 1083 329 1071 l 478 1224 q 501 1242 490 1238 q 525 1246 511 1246 l 608 1246 q 632 1242 622 1246 q 656 1224 642 1238 l 790 1083 q 803 1060 803 1071 q 783 1042 803 1042 l 728 1042 q 685 1051 703 1042 l 567 1125 l 449 1051 q 406 1042 431 1042 l 350 1042 z "},"Ẅ":{"ha":1133,"x_min":53,"x_max":1081,"o":"m 268 0 q 218 42 228 0 l 54 932 l 53 943 q 61 964 53 956 q 82 972 69 972 l 207 972 q 233 966 225 972 q 244 944 242 960 l 360 319 l 483 722 q 529 757 497 757 l 606 757 q 635 747 624 757 q 650 722 646 736 l 775 319 l 889 944 q 928 972 893 972 l 1053 972 q 1072 964 1064 972 q 1081 943 1081 956 q 1079 932 1081 936 l 915 42 q 899 11 913 22 q 865 0 886 0 l 771 0 q 739 10 751 0 q 722 35 726 21 l 567 496 l 411 35 q 363 0 400 0 l 268 0 m 363 1042 q 340 1050 349 1042 q 332 1072 332 1058 l 332 1175 q 340 1198 332 1189 q 363 1207 349 1207 l 465 1207 q 488 1198 479 1207 q 497 1175 497 1189 l 497 1072 q 488 1050 497 1058 q 465 1042 479 1042 l 363 1042 m 667 1042 q 644 1050 653 1042 q 636 1072 636 1058 l 636 1175 q 644 1198 636 1189 q 667 1207 653 1207 l 769 1207 q 792 1198 783 1207 q 801 1175 801 1189 l 801 1072 q 792 1050 801 1058 q 769 1042 783 1042 l 667 1042 z "},"Ẁ":{"ha":1133,"x_min":53,"x_max":1081,"o":"m 268 0 q 218 42 228 0 l 54 932 l 53 943 q 61 964 53 956 q 82 972 69 972 l 207 972 q 233 966 225 972 q 244 944 242 960 l 360 319 l 483 722 q 529 757 497 757 l 606 757 q 635 747 624 757 q 650 722 646 736 l 775 319 l 889 944 q 928 972 893 972 l 1053 972 q 1072 964 1064 972 q 1081 943 1081 956 q 1079 932 1081 936 l 915 42 q 899 11 913 22 q 865 0 886 0 l 771 0 q 739 10 751 0 q 722 35 726 21 l 567 496 l 411 35 q 363 0 400 0 l 268 0 m 539 1042 q 513 1046 524 1042 q 490 1060 503 1050 l 317 1201 q 310 1218 310 1208 q 317 1238 310 1231 q 336 1246 324 1246 l 488 1246 q 515 1240 506 1246 q 539 1219 525 1235 l 651 1082 q 658 1064 658 1075 q 636 1042 658 1042 l 539 1042 z "},"X":{"ha":921,"x_min":24,"x_max":897,"o":"m 53 0 q 33 8 42 0 q 24 29 24 17 q 29 46 24 35 l 339 496 l 49 926 q 43 943 43 935 q 52 964 43 956 q 72 972 61 972 l 218 972 q 261 946 243 972 l 464 649 l 668 946 q 711 972 683 972 l 849 972 q 869 964 860 972 q 878 943 878 956 q 872 926 878 938 l 582 496 l 893 46 q 897 29 897 38 q 889 8 897 17 q 868 0 881 0 l 719 0 q 676 25 694 0 l 457 338 l 240 25 q 197 0 222 0 l 53 0 z "},"Y":{"ha":924,"x_min":31,"x_max":892,"o":"m 397 0 q 374 10 383 0 q 364 33 364 19 l 364 346 l 35 928 q 31 943 31 940 q 40 964 31 956 q 60 972 49 972 l 185 972 q 228 946 211 972 l 461 543 l 696 946 q 712 964 701 956 q 738 972 722 972 l 863 972 q 883 964 875 972 q 892 943 892 956 q 888 928 892 935 l 560 346 l 560 33 q 550 9 560 18 q 525 0 540 0 l 397 0 z "},"Ý":{"ha":924,"x_min":31,"x_max":892,"o":"m 397 0 q 374 10 383 0 q 364 33 364 19 l 364 346 l 35 928 q 31 943 31 940 q 40 964 31 956 q 60 972 49 972 l 185 972 q 228 946 211 972 l 461 543 l 696 946 q 712 964 701 956 q 738 972 722 972 l 863 972 q 883 964 875 972 q 892 943 892 956 q 888 928 892 935 l 560 346 l 560 33 q 550 9 560 18 q 525 0 540 0 l 397 0 m 397 1042 q 375 1064 375 1042 q 382 1082 375 1075 l 496 1219 q 519 1240 508 1235 q 547 1246 529 1246 l 697 1246 q 717 1238 710 1246 q 724 1218 724 1231 q 717 1201 724 1208 l 543 1060 q 520 1046 531 1050 q 494 1042 510 1042 l 397 1042 z "},"Ŷ":{"ha":924,"x_min":31,"x_max":892,"o":"m 397 0 q 374 10 383 0 q 364 33 364 19 l 364 346 l 35 928 q 31 943 31 940 q 40 964 31 956 q 60 972 49 972 l 185 972 q 228 946 211 972 l 461 543 l 696 946 q 712 964 701 956 q 738 972 722 972 l 863 972 q 883 964 875 972 q 892 943 892 956 q 888 928 892 935 l 560 346 l 560 33 q 550 9 560 18 q 525 0 540 0 l 397 0 m 244 1042 q 224 1060 224 1042 q 236 1083 224 1071 l 372 1224 q 395 1242 385 1238 q 419 1246 406 1246 l 503 1246 q 526 1242 517 1246 q 550 1224 536 1238 l 685 1083 q 697 1060 697 1071 q 678 1042 697 1042 l 622 1042 q 579 1051 597 1042 l 461 1125 l 343 1051 q 300 1042 325 1042 l 244 1042 z "},"Ÿ":{"ha":924,"x_min":31,"x_max":892,"o":"m 397 0 q 374 10 383 0 q 364 33 364 19 l 364 346 l 35 928 q 31 943 31 940 q 40 964 31 956 q 60 972 49 972 l 185 972 q 228 946 211 972 l 461 543 l 696 946 q 712 964 701 956 q 738 972 722 972 l 863 972 q 883 964 875 972 q 892 943 892 956 q 888 928 892 935 l 560 346 l 560 33 q 550 9 560 18 q 525 0 540 0 l 397 0 m 257 1042 q 235 1050 243 1042 q 226 1072 226 1058 l 226 1175 q 235 1198 226 1189 q 257 1207 243 1207 l 360 1207 q 383 1198 374 1207 q 392 1175 392 1189 l 392 1072 q 383 1050 392 1058 q 360 1042 374 1042 l 257 1042 m 561 1042 q 539 1050 547 1042 q 531 1072 531 1058 l 531 1175 q 539 1198 531 1189 q 561 1207 547 1207 l 664 1207 q 687 1198 678 1207 q 696 1175 696 1189 l 696 1072 q 687 1050 696 1058 q 664 1042 678 1042 l 561 1042 z "},"Ỳ":{"ha":924,"x_min":31,"x_max":892,"o":"m 397 0 q 374 10 383 0 q 364 33 364 19 l 364 346 l 35 928 q 31 943 31 940 q 40 964 31 956 q 60 972 49 972 l 185 972 q 228 946 211 972 l 461 543 l 696 946 q 712 964 701 956 q 738 972 722 972 l 863 972 q 883 964 875 972 q 892 943 892 956 q 888 928 892 935 l 560 346 l 560 33 q 550 9 560 18 q 525 0 540 0 l 397 0 m 433 1042 q 408 1046 418 1042 q 385 1060 397 1050 l 211 1201 q 204 1218 204 1208 q 211 1238 204 1231 q 231 1246 218 1246 l 382 1246 q 410 1240 400 1246 q 433 1219 419 1235 l 546 1082 q 553 1064 553 1075 q 531 1042 553 1042 l 433 1042 z "},"Z":{"ha":871,"x_min":54,"x_max":817,"o":"m 88 0 q 63 10 72 0 q 54 35 54 19 l 54 133 q 60 163 54 151 q 75 185 67 174 l 557 806 l 101 806 q 78 815 88 806 q 68 840 68 825 l 68 938 q 77 963 68 953 q 101 972 86 972 l 767 972 q 792 963 782 972 q 801 938 801 953 l 801 840 q 783 792 801 813 l 313 167 l 783 167 q 808 158 799 167 q 817 133 817 149 l 817 33 q 808 10 817 19 q 783 0 799 0 l 88 0 z "},"Ź":{"ha":871,"x_min":54,"x_max":817,"o":"m 88 0 q 63 10 72 0 q 54 35 54 19 l 54 133 q 60 163 54 151 q 75 185 67 174 l 557 806 l 101 806 q 78 815 88 806 q 68 840 68 825 l 68 938 q 77 963 68 953 q 101 972 86 972 l 767 972 q 792 963 782 972 q 801 938 801 953 l 801 840 q 783 792 801 813 l 313 167 l 783 167 q 808 158 799 167 q 817 133 817 149 l 817 33 q 808 10 817 19 q 783 0 799 0 l 88 0 m 358 1042 q 336 1064 336 1042 q 343 1082 336 1075 l 457 1219 q 480 1240 469 1235 q 508 1246 490 1246 l 658 1246 q 678 1238 671 1246 q 685 1218 685 1231 q 678 1201 685 1208 l 504 1060 q 481 1046 492 1050 q 456 1042 471 1042 l 358 1042 z "},"Ž":{"ha":871,"x_min":54,"x_max":817,"o":"m 88 0 q 63 10 72 0 q 54 35 54 19 l 54 133 q 60 163 54 151 q 75 185 67 174 l 557 806 l 101 806 q 78 815 88 806 q 68 840 68 825 l 68 938 q 77 963 68 953 q 101 972 86 972 l 767 972 q 792 963 782 972 q 801 938 801 953 l 801 840 q 783 792 801 813 l 313 167 l 783 167 q 808 158 799 167 q 817 133 817 149 l 817 33 q 808 10 817 19 q 783 0 799 0 l 88 0 m 381 1042 q 356 1046 367 1042 q 333 1064 346 1050 l 197 1204 q 185 1228 185 1215 q 206 1246 185 1246 l 261 1246 q 304 1236 286 1246 l 422 1163 l 540 1236 q 583 1246 558 1246 l 639 1246 q 658 1228 658 1246 q 646 1204 658 1215 l 511 1064 q 488 1046 497 1050 q 464 1042 478 1042 l 381 1042 z "},"Ż":{"ha":871,"x_min":54,"x_max":817,"o":"m 88 0 q 63 10 72 0 q 54 35 54 19 l 54 133 q 60 163 54 151 q 75 185 67 174 l 557 806 l 101 806 q 78 815 88 806 q 68 840 68 825 l 68 938 q 77 963 68 953 q 101 972 86 972 l 767 972 q 792 963 782 972 q 801 938 801 953 l 801 840 q 783 792 801 813 l 313 167 l 783 167 q 808 158 799 167 q 817 133 817 149 l 817 33 q 808 10 817 19 q 783 0 799 0 l 88 0 m 363 1042 q 340 1050 349 1042 q 332 1072 332 1058 l 332 1190 q 340 1213 332 1204 q 363 1222 349 1222 l 481 1222 q 503 1213 494 1222 q 513 1190 513 1204 l 513 1072 q 503 1050 513 1058 q 481 1042 494 1042 l 363 1042 z "},"a":{"ha":794,"x_min":44,"x_max":708,"o":"m 301 -14 q 172 15 231 -14 q 78 92 113 43 q 44 199 44 140 q 121 351 44 293 q 331 431 197 410 l 521 458 l 521 488 q 490 578 521 547 q 393 608 460 608 q 319 592 347 608 q 274 558 292 575 q 251 535 257 540 q 231 518 246 518 l 122 518 q 101 526 110 518 q 92 549 92 535 q 126 627 93 583 q 226 703 158 671 q 394 736 294 736 q 633 663 558 736 q 708 469 708 589 l 708 33 q 699 10 708 19 q 675 0 690 0 l 560 0 q 536 10 546 0 q 526 33 526 19 l 526 88 q 440 15 496 43 q 301 -14 385 -14 m 349 119 q 474 169 425 119 q 522 314 522 219 l 522 342 l 383 319 q 224 213 224 294 q 260 144 224 168 q 349 119 297 119 z "},"á":{"ha":794,"x_min":44,"x_max":708,"o":"m 301 -14 q 172 15 231 -14 q 78 92 113 43 q 44 199 44 140 q 121 351 44 293 q 331 431 197 410 l 521 458 l 521 488 q 490 578 521 547 q 393 608 460 608 q 319 592 347 608 q 274 558 292 575 q 251 535 257 540 q 231 518 246 518 l 122 518 q 101 526 110 518 q 92 549 92 535 q 126 627 93 583 q 226 703 158 671 q 394 736 294 736 q 633 663 558 736 q 708 469 708 589 l 708 33 q 699 10 708 19 q 675 0 690 0 l 560 0 q 536 10 546 0 q 526 33 526 19 l 526 88 q 440 15 496 43 q 301 -14 385 -14 m 349 119 q 474 169 425 119 q 522 314 522 219 l 522 342 l 383 319 q 224 213 224 294 q 260 144 224 168 q 349 119 297 119 m 319 826 q 297 849 297 826 q 304 867 297 860 l 418 1004 q 441 1025 431 1019 q 469 1031 451 1031 l 610 1031 q 629 1023 622 1031 q 636 1003 636 1015 q 629 986 636 993 l 456 844 q 433 831 443 835 q 407 826 422 826 l 319 826 z "},"ă":{"ha":794,"x_min":44,"x_max":708,"o":"m 301 -14 q 172 15 231 -14 q 78 92 113 43 q 44 199 44 140 q 121 351 44 293 q 331 431 197 410 l 521 458 l 521 488 q 490 578 521 547 q 393 608 460 608 q 319 592 347 608 q 274 558 292 575 q 251 535 257 540 q 231 518 246 518 l 122 518 q 101 526 110 518 q 92 549 92 535 q 126 627 93 583 q 226 703 158 671 q 394 736 294 736 q 633 663 558 736 q 708 469 708 589 l 708 33 q 699 10 708 19 q 675 0 690 0 l 560 0 q 536 10 546 0 q 526 33 526 19 l 526 88 q 440 15 496 43 q 301 -14 385 -14 m 349 119 q 474 169 425 119 q 522 314 522 219 l 522 342 l 383 319 q 224 213 224 294 q 260 144 224 168 q 349 119 297 119 m 390 819 q 249 872 296 819 q 203 1004 203 924 q 210 1023 203 1015 q 229 1031 217 1031 l 296 1031 q 315 1023 308 1031 q 322 1004 322 1015 q 390 918 322 918 q 460 1004 460 918 q 467 1023 460 1015 q 486 1031 474 1031 l 553 1031 q 572 1023 565 1031 q 579 1004 579 1015 q 533 872 579 924 q 390 819 486 819 z "},"â":{"ha":794,"x_min":44,"x_max":708,"o":"m 301 -14 q 172 15 231 -14 q 78 92 113 43 q 44 199 44 140 q 121 351 44 293 q 331 431 197 410 l 521 458 l 521 488 q 490 578 521 547 q 393 608 460 608 q 319 592 347 608 q 274 558 292 575 q 251 535 257 540 q 231 518 246 518 l 122 518 q 101 526 110 518 q 92 549 92 535 q 126 627 93 583 q 226 703 158 671 q 394 736 294 736 q 633 663 558 736 q 708 469 708 589 l 708 33 q 699 10 708 19 q 675 0 690 0 l 560 0 q 536 10 546 0 q 526 33 526 19 l 526 88 q 440 15 496 43 q 301 -14 385 -14 m 349 119 q 474 169 425 119 q 522 314 522 219 l 522 342 l 383 319 q 224 213 224 294 q 260 144 224 168 q 349 119 297 119 m 176 826 q 156 844 156 826 q 168 868 156 856 l 303 1008 q 326 1026 317 1022 q 350 1031 336 1031 l 428 1031 q 452 1026 442 1031 q 475 1008 463 1022 l 611 868 q 624 844 624 856 q 603 826 624 826 l 550 826 q 507 836 525 826 l 389 910 l 271 836 q 228 826 253 826 l 176 826 z "},"ä":{"ha":794,"x_min":44,"x_max":708,"o":"m 301 -14 q 172 15 231 -14 q 78 92 113 43 q 44 199 44 140 q 121 351 44 293 q 331 431 197 410 l 521 458 l 521 488 q 490 578 521 547 q 393 608 460 608 q 319 592 347 608 q 274 558 292 575 q 251 535 257 540 q 231 518 246 518 l 122 518 q 101 526 110 518 q 92 549 92 535 q 126 627 93 583 q 226 703 158 671 q 394 736 294 736 q 633 663 558 736 q 708 469 708 589 l 708 33 q 699 10 708 19 q 675 0 690 0 l 560 0 q 536 10 546 0 q 526 33 526 19 l 526 88 q 440 15 496 43 q 301 -14 385 -14 m 349 119 q 474 169 425 119 q 522 314 522 219 l 522 342 l 383 319 q 224 213 224 294 q 260 144 224 168 q 349 119 297 119 m 211 853 q 189 861 197 853 q 181 883 181 869 l 181 986 q 189 1009 181 1000 q 211 1018 197 1018 l 314 1018 q 337 1009 328 1018 q 346 986 346 1000 l 346 883 q 337 861 346 869 q 314 853 328 853 l 211 853 m 474 853 q 451 861 460 853 q 443 883 443 869 l 443 986 q 451 1009 443 1000 q 474 1018 460 1018 l 576 1018 q 599 1009 590 1018 q 608 986 608 1000 l 608 883 q 599 861 608 869 q 576 853 590 853 l 474 853 z "},"à":{"ha":794,"x_min":44,"x_max":708,"o":"m 301 -14 q 172 15 231 -14 q 78 92 113 43 q 44 199 44 140 q 121 351 44 293 q 331 431 197 410 l 521 458 l 521 488 q 490 578 521 547 q 393 608 460 608 q 319 592 347 608 q 274 558 292 575 q 251 535 257 540 q 231 518 246 518 l 122 518 q 101 526 110 518 q 92 549 92 535 q 126 627 93 583 q 226 703 158 671 q 394 736 294 736 q 633 663 558 736 q 708 469 708 589 l 708 33 q 699 10 708 19 q 675 0 690 0 l 560 0 q 536 10 546 0 q 526 33 526 19 l 526 88 q 440 15 496 43 q 301 -14 385 -14 m 349 119 q 474 169 425 119 q 522 314 522 219 l 522 342 l 383 319 q 224 213 224 294 q 260 144 224 168 q 349 119 297 119 m 369 826 q 344 831 354 826 q 321 844 333 835 l 147 986 q 140 1003 140 993 q 147 1023 140 1015 q 167 1031 154 1031 l 307 1031 q 335 1025 325 1031 q 358 1004 346 1019 l 472 867 q 479 849 479 860 q 457 826 479 826 l 369 826 z "},"ā":{"ha":794,"x_min":44,"x_max":708,"o":"m 301 -14 q 172 15 231 -14 q 78 92 113 43 q 44 199 44 140 q 121 351 44 293 q 331 431 197 410 l 521 458 l 521 488 q 490 578 521 547 q 393 608 460 608 q 319 592 347 608 q 274 558 292 575 q 251 535 257 540 q 231 518 246 518 l 122 518 q 101 526 110 518 q 92 549 92 535 q 126 627 93 583 q 226 703 158 671 q 394 736 294 736 q 633 663 558 736 q 708 469 708 589 l 708 33 q 699 10 708 19 q 675 0 690 0 l 560 0 q 536 10 546 0 q 526 33 526 19 l 526 88 q 440 15 496 43 q 301 -14 385 -14 m 349 119 q 474 169 425 119 q 522 314 522 219 l 522 342 l 383 319 q 224 213 224 294 q 260 144 224 168 q 349 119 297 119 m 215 849 q 193 857 201 849 q 185 879 185 865 l 185 951 q 193 974 185 965 q 215 982 201 982 l 565 982 q 588 974 579 982 q 597 951 597 965 l 597 879 q 588 857 597 865 q 565 849 579 849 l 215 849 z "},"ą":{"ha":794,"x_min":44,"x_max":708,"o":"m 660 -306 q 520 -250 571 -306 q 469 -101 469 -194 q 490 -25 469 -60 q 539 28 511 10 q 526 46 526 33 l 526 88 q 440 15 496 43 q 301 -14 385 -14 q 172 15 231 -14 q 78 92 113 43 q 44 199 44 140 q 121 351 44 293 q 331 431 197 410 l 521 458 l 521 488 q 490 578 521 547 q 393 608 460 608 q 319 592 347 608 q 274 558 292 575 q 251 535 257 540 q 231 518 246 518 l 122 518 q 101 526 110 518 q 92 549 92 535 q 126 627 93 583 q 226 703 158 671 q 394 736 294 736 q 633 663 558 736 q 708 469 708 589 l 708 33 q 701 13 708 22 q 682 1 694 4 l 671 0 q 592 -101 592 -24 q 610 -165 592 -142 q 665 -189 629 -189 l 675 -189 q 699 -199 690 -189 q 708 -222 708 -208 l 708 -272 q 699 -297 708 -287 q 675 -306 690 -306 l 660 -306 m 349 119 q 474 169 425 119 q 522 314 522 219 l 522 342 l 383 319 q 224 213 224 294 q 260 144 224 168 q 349 119 297 119 z "},"å":{"ha":794,"x_min":44,"x_max":708,"o":"m 301 -14 q 172 15 231 -14 q 78 92 113 43 q 44 199 44 140 q 121 351 44 293 q 331 431 197 410 l 521 458 l 521 488 q 490 578 521 547 q 393 608 460 608 q 319 592 347 608 q 274 558 292 575 q 251 535 257 540 q 231 518 246 518 l 122 518 q 101 526 110 518 q 92 549 92 535 q 126 627 93 583 q 226 703 158 671 q 394 736 294 736 q 633 663 558 736 q 708 469 708 589 l 708 33 q 699 10 708 19 q 675 0 690 0 l 560 0 q 536 10 546 0 q 526 33 526 19 l 526 88 q 440 15 496 43 q 301 -14 385 -14 m 349 119 q 474 169 425 119 q 522 314 522 219 l 522 342 l 383 319 q 224 213 224 294 q 260 144 224 168 q 349 119 297 119 m 389 819 q 302 852 338 819 q 267 935 267 885 q 302 1018 267 985 q 389 1051 338 1051 q 476 1018 440 1051 q 511 935 511 985 q 476 852 511 885 q 389 819 440 819 m 389 893 q 419 905 407 893 q 431 935 431 917 q 419 965 431 953 q 389 976 407 976 q 359 965 371 976 q 347 935 347 953 q 359 905 347 917 q 389 893 371 893 z "},"ã":{"ha":794,"x_min":44,"x_max":708,"o":"m 301 -14 q 172 15 231 -14 q 78 92 113 43 q 44 199 44 140 q 121 351 44 293 q 331 431 197 410 l 521 458 l 521 488 q 490 578 521 547 q 393 608 460 608 q 319 592 347 608 q 274 558 292 575 q 251 535 257 540 q 231 518 246 518 l 122 518 q 101 526 110 518 q 92 549 92 535 q 126 627 93 583 q 226 703 158 671 q 394 736 294 736 q 633 663 558 736 q 708 469 708 589 l 708 33 q 699 10 708 19 q 675 0 690 0 l 560 0 q 536 10 546 0 q 526 33 526 19 l 526 88 q 440 15 496 43 q 301 -14 385 -14 m 349 119 q 474 169 425 119 q 522 314 522 219 l 522 342 l 383 319 q 224 213 224 294 q 260 144 224 168 q 349 119 297 119 m 468 819 q 424 826 442 819 q 381 847 406 833 q 351 863 363 858 q 326 868 340 868 q 307 863 314 868 q 292 846 300 857 q 265 826 281 826 l 200 826 q 183 833 190 826 q 176 850 176 840 q 191 917 176 882 q 236 976 206 951 q 313 1000 267 1000 q 357 993 339 1000 q 400 972 375 986 q 429 956 418 961 q 454 951 440 951 q 474 957 467 951 q 489 974 482 963 q 501 988 496 983 q 517 993 507 993 l 581 993 q 599 986 592 993 q 606 969 606 979 q 590 903 606 938 q 544 844 575 868 q 468 819 513 819 z "},"æ":{"ha":1256,"x_min":44,"x_max":1199,"o":"m 314 -14 q 172 14 233 -14 q 78 90 111 42 q 44 199 44 139 q 122 353 44 293 q 332 433 199 413 l 521 460 l 521 488 q 491 578 521 547 q 393 608 461 608 q 319 592 347 608 q 274 558 292 575 q 251 535 257 540 q 231 518 246 518 l 122 518 q 101 526 110 518 q 92 549 92 535 q 125 626 92 582 q 227 703 158 671 q 394 736 296 736 q 629 643 565 736 q 860 736 718 736 q 1059 682 983 736 q 1167 545 1135 628 q 1199 369 1199 463 l 1199 340 q 1189 317 1199 326 q 1164 307 1179 307 l 711 307 l 711 296 q 756 161 714 206 q 858 117 797 117 q 931 133 897 117 q 988 181 964 149 q 1007 199 999 194 q 1031 203 1015 203 l 1150 203 q 1171 195 1163 203 q 1179 174 1179 188 q 1142 98 1179 143 q 1031 19 1104 53 q 860 -14 958 -14 q 593 111 683 -14 q 314 -14 501 -14 m 1007 425 l 1007 431 q 969 560 1007 513 q 860 608 932 608 q 756 563 799 608 q 711 431 714 517 l 711 425 l 1007 425 m 350 119 q 475 169 426 119 q 524 314 524 219 l 524 342 l 385 319 q 225 213 225 294 q 261 144 225 168 q 350 119 297 119 z "},"ǽ":{"ha":1256,"x_min":44,"x_max":1199,"o":"m 571 826 q 549 849 549 826 q 556 867 549 860 l 669 1004 q 692 1025 682 1019 q 721 1031 703 1031 l 861 1031 q 881 1023 874 1031 q 888 1003 888 1015 q 881 986 888 993 l 707 844 q 684 831 694 835 q 658 826 674 826 l 571 826 m 314 -14 q 172 14 233 -14 q 78 90 111 42 q 44 199 44 139 q 122 353 44 293 q 332 433 199 413 l 521 460 l 521 488 q 491 578 521 547 q 393 608 461 608 q 319 592 347 608 q 274 558 292 575 q 251 535 257 540 q 231 518 246 518 l 122 518 q 101 526 110 518 q 92 549 92 535 q 125 626 92 582 q 227 703 158 671 q 394 736 296 736 q 629 643 565 736 q 860 736 718 736 q 1059 682 983 736 q 1167 545 1135 628 q 1199 369 1199 463 l 1199 340 q 1189 317 1199 326 q 1164 307 1179 307 l 711 307 l 711 296 q 756 161 714 206 q 858 117 797 117 q 931 133 897 117 q 988 181 964 149 q 1007 199 999 194 q 1031 203 1015 203 l 1150 203 q 1171 195 1163 203 q 1179 174 1179 188 q 1142 98 1179 143 q 1031 19 1104 53 q 860 -14 958 -14 q 593 111 683 -14 q 314 -14 501 -14 m 1007 425 l 1007 431 q 969 560 1007 513 q 860 608 932 608 q 756 563 799 608 q 711 431 714 517 l 711 425 l 1007 425 m 350 119 q 475 169 426 119 q 524 314 524 219 l 524 342 l 385 319 q 225 213 225 294 q 261 144 225 168 q 350 119 297 119 z "},"b":{"ha":853,"x_min":93,"x_max":790,"o":"m 493 -14 q 272 85 349 -14 l 272 33 q 263 10 272 19 q 238 0 253 0 l 126 0 q 103 10 113 0 q 93 33 93 19 l 93 953 q 103 977 93 968 q 126 986 113 986 l 247 986 q 272 977 263 986 q 281 953 281 968 l 281 644 q 493 736 358 736 q 709 645 633 736 q 789 407 785 554 q 790 361 790 390 q 789 315 790 333 q 708 76 783 165 q 493 -14 633 -14 m 440 136 q 599 319 589 136 q 600 361 600 333 q 599 403 600 389 q 440 586 589 586 q 324 538 364 586 q 281 419 283 489 q 279 365 279 403 q 281 313 279 329 q 322 188 283 239 q 440 136 361 136 z "},"c":{"ha":794,"x_min":63,"x_max":743,"o":"m 404 -14 q 160 71 251 -14 q 64 306 69 156 l 63 361 l 64 417 q 160 651 69 567 q 404 736 251 736 q 590 697 514 736 q 702 602 665 658 q 742 494 739 546 q 733 471 743 481 q 708 461 722 461 l 585 461 q 563 467 569 461 q 549 490 556 474 q 494 567 528 543 q 407 590 460 590 q 297 546 336 590 q 254 410 257 501 l 253 358 l 254 313 q 407 132 263 132 q 494 155 461 132 q 549 232 528 178 q 562 254 554 247 q 585 261 569 261 l 708 261 q 733 251 722 261 q 742 228 743 242 q 703 123 739 179 q 592 26 667 67 q 404 -14 517 -14 z "},"ć":{"ha":794,"x_min":63,"x_max":742,"o":"m 404 -14 q 160 71 251 -14 q 64 306 69 156 l 63 361 l 64 417 q 160 651 69 567 q 404 736 251 736 q 590 697 514 736 q 702 602 665 658 q 742 494 739 546 q 733 471 743 481 q 708 461 722 461 l 585 461 q 563 467 569 461 q 549 490 556 474 q 494 567 528 543 q 407 590 460 590 q 297 546 336 590 q 254 410 257 501 l 253 358 l 254 313 q 407 132 263 132 q 494 155 461 132 q 549 232 528 178 q 562 254 554 247 q 585 261 569 261 l 708 261 q 733 251 722 261 q 742 228 743 242 q 703 123 739 179 q 592 26 667 67 q 404 -14 517 -14 m 338 826 q 315 849 315 826 q 322 867 315 860 l 436 1004 q 459 1025 449 1019 q 488 1031 469 1031 l 628 1031 q 647 1023 640 1031 q 654 1003 654 1015 q 647 986 654 993 l 474 844 q 451 831 461 835 q 425 826 440 826 l 338 826 z "},"č":{"ha":794,"x_min":63,"x_max":742,"o":"m 404 -14 q 160 71 251 -14 q 64 306 69 156 l 63 361 l 64 417 q 160 651 69 567 q 404 736 251 736 q 590 697 514 736 q 702 602 665 658 q 742 494 739 546 q 733 471 743 481 q 708 461 722 461 l 585 461 q 563 467 569 461 q 549 490 556 474 q 494 567 528 543 q 407 590 460 590 q 297 546 336 590 q 254 410 257 501 l 253 358 l 254 313 q 407 132 263 132 q 494 155 461 132 q 549 232 528 178 q 562 254 554 247 q 585 261 569 261 l 708 261 q 733 251 722 261 q 742 228 743 242 q 703 123 739 179 q 592 26 667 67 q 404 -14 517 -14 m 364 826 q 340 831 350 826 q 317 849 331 835 l 182 989 q 169 1013 169 1000 q 190 1031 169 1031 l 242 1031 q 285 1021 267 1031 l 403 947 l 521 1021 q 564 1031 539 1031 l 617 1031 q 638 1013 638 1031 q 625 989 638 1000 l 489 849 q 466 831 476 835 q 442 826 456 826 l 364 826 z "},"ç":{"ha":794,"x_min":63,"x_max":743,"o":"m 406 -306 q 322 -286 358 -306 q 286 -247 286 -267 q 292 -235 286 -240 l 315 -214 q 329 -207 322 -207 q 356 -219 335 -207 q 403 -231 376 -231 q 440 -217 425 -231 q 454 -183 454 -204 q 440 -151 454 -164 q 403 -139 425 -139 q 369 -145 389 -139 q 342 -151 349 -151 q 324 -143 332 -151 l 297 -117 q 292 -101 292 -110 q 301 -74 292 -93 l 329 -7 q 138 94 208 13 q 64 306 68 175 l 63 361 l 64 417 q 160 651 69 567 q 404 736 251 736 q 590 697 514 736 q 702 602 665 658 q 742 494 739 546 q 733 471 743 481 q 708 461 722 461 l 585 461 q 563 467 569 461 q 549 490 556 474 q 494 567 528 543 q 407 590 460 590 q 297 546 336 590 q 254 410 257 501 l 253 358 l 254 313 q 407 132 263 132 q 494 155 461 132 q 549 232 528 178 q 562 254 554 247 q 585 261 569 261 l 708 261 q 733 251 722 261 q 742 228 743 242 q 703 124 739 179 q 593 27 668 68 q 408 -14 518 -14 l 379 -74 q 428 -64 394 -64 q 506 -97 476 -64 q 536 -182 536 -129 q 501 -270 536 -235 q 406 -306 467 -306 z "},"ĉ":{"ha":794,"x_min":63,"x_max":742,"o":"m 404 -14 q 160 71 251 -14 q 64 306 69 156 l 63 361 l 64 417 q 160 651 69 567 q 404 736 251 736 q 590 697 514 736 q 702 602 665 658 q 742 494 739 546 q 733 471 743 481 q 708 461 722 461 l 585 461 q 563 467 569 461 q 549 490 556 474 q 494 567 528 543 q 407 590 460 590 q 297 546 336 590 q 254 410 257 501 l 253 358 l 254 313 q 407 132 263 132 q 494 155 461 132 q 549 232 528 178 q 562 254 554 247 q 585 261 569 261 l 708 261 q 733 251 722 261 q 742 228 743 242 q 703 123 739 179 q 592 26 667 67 q 404 -14 517 -14 m 190 835 q 169 853 169 835 q 182 876 169 864 l 317 1017 q 340 1035 331 1031 q 364 1039 350 1039 l 442 1039 q 466 1035 456 1039 q 489 1017 476 1031 l 625 876 q 638 853 638 864 q 617 835 638 835 l 564 835 q 521 844 539 835 l 403 918 l 285 844 q 242 835 267 835 l 190 835 z "},"ċ":{"ha":794,"x_min":63,"x_max":742,"o":"m 404 -14 q 160 71 251 -14 q 64 306 69 156 l 63 361 l 64 417 q 160 651 69 567 q 404 736 251 736 q 590 697 514 736 q 702 602 665 658 q 742 494 739 546 q 733 471 743 481 q 708 461 722 461 l 585 461 q 563 467 569 461 q 549 490 556 474 q 494 567 528 543 q 407 590 460 590 q 297 546 336 590 q 254 410 257 501 l 253 358 l 254 313 q 407 132 263 132 q 494 155 461 132 q 549 232 528 178 q 562 254 554 247 q 585 261 569 261 l 708 261 q 733 251 722 261 q 742 228 743 242 q 703 123 739 179 q 592 26 667 67 q 404 -14 517 -14 m 346 844 q 324 853 332 844 q 315 875 315 861 l 315 990 q 324 1013 315 1004 q 346 1022 332 1022 l 461 1022 q 484 1013 475 1022 q 493 990 493 1004 l 493 875 q 484 853 493 861 q 461 844 475 844 l 346 844 z "},"d":{"ha":853,"x_min":61,"x_max":760,"o":"m 360 -14 q 144 76 219 -14 q 63 315 69 165 l 61 361 l 63 407 q 144 645 68 554 q 360 736 219 736 q 572 644 493 736 l 572 953 q 582 977 572 968 q 606 986 592 986 l 726 986 q 751 977 742 986 q 760 953 760 968 l 760 33 q 751 10 760 19 q 726 0 742 0 l 614 0 q 590 10 600 0 q 581 33 581 19 l 581 85 q 360 -14 504 -14 m 413 136 q 530 187 492 136 q 572 313 568 238 q 574 365 574 329 q 572 419 574 403 q 529 538 569 489 q 413 586 489 586 q 254 403 264 586 l 253 361 l 254 319 q 413 136 264 136 z "},"ð":{"ha":815,"x_min":58,"x_max":750,"o":"m 404 -14 q 150 76 242 -14 q 58 321 58 165 q 101 497 58 422 q 222 613 143 572 q 404 653 300 653 q 519 621 472 653 q 449 751 493 696 l 303 694 q 286 690 292 690 q 266 697 274 690 q 258 717 258 704 l 258 749 q 265 774 258 765 q 289 789 272 782 l 382 825 q 276 914 332 872 q 254 943 254 931 q 263 964 254 956 q 283 972 271 972 l 408 972 q 468 954 446 972 l 492 933 q 543 886 528 903 l 671 936 q 688 940 682 940 q 708 933 700 940 q 715 914 715 926 l 715 882 q 708 858 715 865 q 685 843 701 850 l 611 814 q 710 622 675 732 q 750 354 744 511 l 750 315 q 655 74 746 163 q 404 -14 564 -14 m 404 126 q 518 175 479 126 q 558 303 557 224 l 558 336 q 519 465 557 417 q 404 514 481 514 q 290 465 328 514 q 250 336 251 417 l 250 301 q 291 174 253 222 q 404 126 329 126 z "},"ď":{"ha":853,"x_min":61,"x_max":1047,"o":"m 360 -14 q 144 76 219 -14 q 63 315 69 165 l 61 361 l 63 407 q 144 645 68 554 q 360 736 219 736 q 572 644 493 736 l 572 953 q 582 977 572 968 q 606 986 592 986 l 726 986 q 751 977 742 986 q 760 953 760 968 l 760 33 q 751 10 760 19 q 726 0 742 0 l 614 0 q 590 10 600 0 q 581 33 581 19 l 581 85 q 360 -14 504 -14 m 413 136 q 530 187 492 136 q 572 313 568 238 q 574 365 574 329 q 572 419 574 403 q 529 538 569 489 q 413 586 489 586 q 254 403 264 586 l 253 361 l 254 319 q 413 136 264 136 m 857 740 q 839 749 846 740 q 833 771 832 758 l 860 942 q 874 974 863 961 q 904 986 885 986 l 1022 986 q 1040 978 1032 986 q 1047 960 1047 971 q 1043 942 1047 951 l 979 776 q 961 750 971 760 q 933 740 951 740 l 857 740 z "},"đ":{"ha":853,"x_min":63,"x_max":858,"o":"m 360 -14 q 141 78 213 -14 q 64 315 69 171 l 63 361 l 64 407 q 140 642 68 549 q 360 736 213 736 q 574 644 494 736 l 574 779 l 508 779 q 485 789 494 779 q 475 814 475 799 l 475 854 q 485 878 475 869 q 508 888 494 888 l 574 888 l 574 953 q 583 977 574 968 q 607 986 593 986 l 728 986 q 752 977 743 986 q 761 953 761 968 l 761 888 l 825 888 q 849 878 840 888 q 858 854 858 869 l 858 814 q 849 789 858 799 q 825 779 839 779 l 761 779 l 761 33 q 752 10 761 19 q 728 0 743 0 l 615 0 q 592 10 601 0 q 582 33 582 19 l 582 89 q 360 -14 504 -14 m 413 136 q 531 187 492 136 q 574 313 569 238 q 575 365 575 329 q 574 419 575 403 q 530 538 571 489 q 413 586 489 586 q 296 536 332 586 q 256 403 260 486 q 254 361 254 389 q 256 319 254 333 q 296 186 260 236 q 413 136 332 136 z "},"e":{"ha":803,"x_min":60,"x_max":747,"o":"m 404 -14 q 158 75 249 -14 q 61 328 67 164 l 60 363 q 151 636 60 536 q 403 736 242 736 q 658 636 568 736 q 747 369 747 536 l 747 340 q 738 317 747 326 q 713 307 728 307 l 251 307 l 251 296 q 294 167 254 218 q 403 117 333 117 q 532 181 482 117 q 551 199 544 196 q 575 203 558 203 l 697 203 q 719 196 710 203 q 728 176 728 189 q 688 98 728 143 q 575 19 649 53 q 404 -14 501 -14 m 556 425 l 556 428 q 515 559 556 510 q 403 608 474 608 q 292 559 332 608 q 251 428 251 510 l 251 425 l 556 425 z "},"é":{"ha":803,"x_min":60,"x_max":747,"o":"m 404 -14 q 158 75 249 -14 q 61 328 67 164 l 60 363 q 151 636 60 536 q 403 736 242 736 q 658 636 568 736 q 747 369 747 536 l 747 340 q 738 317 747 326 q 713 307 728 307 l 251 307 l 251 296 q 294 167 254 218 q 403 117 333 117 q 532 181 482 117 q 551 199 544 196 q 575 203 558 203 l 697 203 q 719 196 710 203 q 728 176 728 189 q 688 98 728 143 q 575 19 649 53 q 404 -14 501 -14 m 556 425 l 556 428 q 515 559 556 510 q 403 608 474 608 q 292 559 332 608 q 251 428 251 510 l 251 425 l 556 425 m 344 826 q 322 849 322 826 q 329 867 322 860 l 443 1004 q 466 1025 456 1019 q 494 1031 476 1031 l 635 1031 q 654 1023 647 1031 q 661 1003 661 1015 q 654 986 661 993 l 481 844 q 458 831 468 835 q 432 826 447 826 l 344 826 z "},"ĕ":{"ha":803,"x_min":60,"x_max":747,"o":"m 404 -14 q 158 75 249 -14 q 61 328 67 164 l 60 363 q 151 636 60 536 q 403 736 242 736 q 658 636 568 736 q 747 369 747 536 l 747 340 q 738 317 747 326 q 713 307 728 307 l 251 307 l 251 296 q 294 167 254 218 q 403 117 333 117 q 532 181 482 117 q 551 199 544 196 q 575 203 558 203 l 697 203 q 719 196 710 203 q 728 176 728 189 q 688 98 728 143 q 575 19 649 53 q 404 -14 501 -14 m 556 425 l 556 428 q 515 559 556 510 q 403 608 474 608 q 292 559 332 608 q 251 428 251 510 l 251 425 l 556 425 m 403 819 q 262 872 308 819 q 215 1004 215 924 q 222 1023 215 1015 q 242 1031 229 1031 l 308 1031 q 328 1023 321 1031 q 335 1004 335 1015 q 403 918 335 918 q 472 1004 472 918 q 479 1023 472 1015 q 499 1031 486 1031 l 565 1031 q 585 1023 578 1031 q 592 1004 592 1015 q 545 872 592 924 q 403 819 499 819 z "},"ě":{"ha":803,"x_min":60,"x_max":747,"o":"m 404 -14 q 158 75 249 -14 q 61 328 67 164 l 60 363 q 151 636 60 536 q 403 736 242 736 q 658 636 568 736 q 747 369 747 536 l 747 340 q 738 317 747 326 q 713 307 728 307 l 251 307 l 251 296 q 294 167 254 218 q 403 117 333 117 q 532 181 482 117 q 551 199 544 196 q 575 203 558 203 l 697 203 q 719 196 710 203 q 728 176 728 189 q 688 98 728 143 q 575 19 649 53 q 404 -14 501 -14 m 556 425 l 556 428 q 515 559 556 510 q 403 608 474 608 q 292 559 332 608 q 251 428 251 510 l 251 425 l 556 425 m 364 826 q 340 831 350 826 q 317 849 331 835 l 182 989 q 169 1013 169 1000 q 190 1031 169 1031 l 242 1031 q 285 1021 267 1031 l 403 947 l 521 1021 q 564 1031 539 1031 l 617 1031 q 638 1013 638 1031 q 625 989 638 1000 l 489 849 q 466 831 476 835 q 442 826 456 826 l 364 826 z "},"ê":{"ha":803,"x_min":60,"x_max":747,"o":"m 404 -14 q 158 75 249 -14 q 61 328 67 164 l 60 363 q 151 636 60 536 q 403 736 242 736 q 658 636 568 736 q 747 369 747 536 l 747 340 q 738 317 747 326 q 713 307 728 307 l 251 307 l 251 296 q 294 167 254 218 q 403 117 333 117 q 532 181 482 117 q 551 199 544 196 q 575 203 558 203 l 697 203 q 719 196 710 203 q 728 176 728 189 q 688 98 728 143 q 575 19 649 53 q 404 -14 501 -14 m 556 425 l 556 428 q 515 559 556 510 q 403 608 474 608 q 292 559 332 608 q 251 428 251 510 l 251 425 l 556 425 m 190 826 q 169 844 169 826 q 182 868 169 856 l 317 1008 q 340 1026 331 1022 q 364 1031 350 1031 l 442 1031 q 466 1026 456 1031 q 489 1008 476 1022 l 625 868 q 638 844 638 856 q 617 826 638 826 l 564 826 q 521 836 539 826 l 403 910 l 285 836 q 242 826 267 826 l 190 826 z "},"ë":{"ha":803,"x_min":60,"x_max":747,"o":"m 404 -14 q 158 75 249 -14 q 61 328 67 164 l 60 363 q 151 636 60 536 q 403 736 242 736 q 658 636 568 736 q 747 369 747 536 l 747 340 q 738 317 747 326 q 713 307 728 307 l 251 307 l 251 296 q 294 167 254 218 q 403 117 333 117 q 532 181 482 117 q 551 199 544 196 q 575 203 558 203 l 697 203 q 719 196 710 203 q 728 176 728 189 q 688 98 728 143 q 575 19 649 53 q 404 -14 501 -14 m 556 425 l 556 428 q 515 559 556 510 q 403 608 474 608 q 292 559 332 608 q 251 428 251 510 l 251 425 l 556 425 m 221 853 q 199 861 207 853 q 190 883 190 869 l 190 986 q 199 1009 190 1000 q 221 1018 207 1018 l 324 1018 q 347 1009 338 1018 q 356 986 356 1000 l 356 883 q 347 861 356 869 q 324 853 338 853 l 221 853 m 483 853 q 461 861 469 853 q 453 883 453 869 l 453 986 q 461 1009 453 1000 q 483 1018 469 1018 l 586 1018 q 609 1009 600 1018 q 618 986 618 1000 l 618 883 q 609 861 618 869 q 586 853 600 853 l 483 853 z "},"ė":{"ha":803,"x_min":60,"x_max":747,"o":"m 404 -14 q 158 75 249 -14 q 61 328 67 164 l 60 363 q 151 636 60 536 q 403 736 242 736 q 658 636 568 736 q 747 369 747 536 l 747 340 q 738 317 747 326 q 713 307 728 307 l 251 307 l 251 296 q 294 167 254 218 q 403 117 333 117 q 532 181 482 117 q 551 199 544 196 q 575 203 558 203 l 697 203 q 719 196 710 203 q 728 176 728 189 q 688 98 728 143 q 575 19 649 53 q 404 -14 501 -14 m 556 425 l 556 428 q 515 559 556 510 q 403 608 474 608 q 292 559 332 608 q 251 428 251 510 l 251 425 l 556 425 m 346 844 q 324 853 332 844 q 315 875 315 861 l 315 990 q 324 1013 315 1004 q 346 1022 332 1022 l 461 1022 q 484 1013 475 1022 q 493 990 493 1004 l 493 875 q 484 853 493 861 q 461 844 475 844 l 346 844 z "},"è":{"ha":803,"x_min":60,"x_max":747,"o":"m 404 -14 q 158 75 249 -14 q 61 328 67 164 l 60 363 q 151 636 60 536 q 403 736 242 736 q 658 636 568 736 q 747 369 747 536 l 747 340 q 738 317 747 326 q 713 307 728 307 l 251 307 l 251 296 q 294 167 254 218 q 403 117 333 117 q 532 181 482 117 q 551 199 544 196 q 575 203 558 203 l 697 203 q 719 196 710 203 q 728 176 728 189 q 688 98 728 143 q 575 19 649 53 q 404 -14 501 -14 m 556 425 l 556 428 q 515 559 556 510 q 403 608 474 608 q 292 559 332 608 q 251 428 251 510 l 251 425 l 556 425 m 379 826 q 353 831 364 826 q 331 844 343 835 l 157 986 q 150 1003 150 993 q 157 1023 150 1015 q 176 1031 164 1031 l 317 1031 q 345 1025 335 1031 q 368 1004 356 1019 l 482 867 q 489 849 489 860 q 467 826 489 826 l 379 826 z "},"ē":{"ha":803,"x_min":60,"x_max":747,"o":"m 404 -14 q 158 75 249 -14 q 61 328 67 164 l 60 363 q 151 636 60 536 q 403 736 242 736 q 658 636 568 736 q 747 369 747 536 l 747 340 q 738 317 747 326 q 713 307 728 307 l 251 307 l 251 296 q 294 167 254 218 q 403 117 333 117 q 532 181 482 117 q 551 199 544 196 q 575 203 558 203 l 697 203 q 719 196 710 203 q 728 176 728 189 q 688 98 728 143 q 575 19 649 53 q 404 -14 501 -14 m 556 425 l 556 428 q 515 559 556 510 q 403 608 474 608 q 292 559 332 608 q 251 428 251 510 l 251 425 l 556 425 m 229 849 q 207 857 215 849 q 199 879 199 865 l 199 951 q 207 974 199 965 q 229 982 215 982 l 579 982 q 602 974 593 982 q 611 951 611 965 l 611 879 q 602 857 611 865 q 579 849 593 849 l 229 849 z "},"ę":{"ha":804,"x_min":61,"x_max":749,"o":"m 478 -306 q 324 -248 378 -306 q 271 -94 271 -190 q 289 0 271 -37 q 126 113 185 29 q 61 328 67 197 l 61 396 q 160 645 68 554 q 404 736 251 736 q 659 636 569 736 q 749 369 749 536 l 749 340 q 739 317 749 326 q 714 307 729 307 l 253 307 l 253 296 q 295 168 256 219 q 403 117 335 117 q 533 181 483 117 q 553 199 546 196 q 576 203 560 203 l 699 203 q 719 196 711 203 q 728 176 728 189 q 698 110 728 149 q 611 38 668 71 q 479 -8 554 4 q 392 -94 392 -24 q 416 -162 392 -136 q 483 -189 440 -189 l 500 -189 q 525 -199 515 -189 q 535 -222 535 -208 l 535 -272 q 525 -296 535 -286 q 500 -306 515 -306 l 478 -306 m 556 425 l 556 428 q 515 559 556 510 q 403 608 474 608 q 292 559 332 608 q 251 428 251 510 l 251 425 l 556 425 z "},"f":{"ha":576,"x_min":24,"x_max":572,"o":"m 203 0 q 179 10 189 0 q 169 33 169 19 l 169 574 l 57 574 q 33 583 43 574 q 24 607 24 593 l 24 689 q 33 713 24 703 q 57 722 43 722 l 169 722 l 169 778 q 238 966 169 904 q 443 1028 306 1028 l 539 1028 q 563 1018 553 1028 q 572 994 572 1008 l 572 913 q 563 889 572 899 q 539 879 553 879 l 450 879 q 374 853 396 879 q 351 771 351 826 l 351 722 l 525 722 q 549 713 539 722 q 558 689 558 703 l 558 607 q 549 583 558 593 q 525 574 539 574 l 351 574 l 351 33 q 342 10 351 19 q 318 0 333 0 l 203 0 z "},"g":{"ha":856,"x_min":63,"x_max":764,"o":"m 418 -306 q 218 -265 294 -306 q 110 -171 142 -224 q 78 -81 78 -118 q 88 -58 78 -67 q 111 -49 97 -49 l 235 -49 q 256 -55 247 -49 q 271 -78 265 -61 q 317 -140 286 -114 q 411 -165 347 -165 q 533 -128 494 -165 q 572 0 572 -92 l 572 94 q 360 6 497 6 q 142 93 215 6 q 64 332 69 181 l 63 369 l 64 407 q 143 646 69 556 q 360 736 217 736 q 489 708 433 736 q 581 633 544 681 l 581 688 q 591 713 581 703 q 615 722 601 722 l 729 722 q 753 713 743 722 q 763 688 763 703 l 764 18 q 678 -221 764 -136 q 418 -306 592 -306 m 413 153 q 529 203 490 153 q 572 325 568 253 q 574 369 574 336 q 572 414 574 403 q 529 536 568 486 q 413 586 490 586 q 254 403 263 586 l 253 369 q 413 153 253 153 z "},"ğ":{"ha":856,"x_min":63,"x_max":764,"o":"m 418 -306 q 218 -265 294 -306 q 110 -171 142 -224 q 78 -81 78 -118 q 88 -58 78 -67 q 111 -49 97 -49 l 235 -49 q 256 -55 247 -49 q 271 -78 265 -61 q 317 -140 286 -114 q 411 -165 347 -165 q 533 -128 494 -165 q 572 0 572 -92 l 572 94 q 360 6 497 6 q 142 93 215 6 q 64 332 69 181 l 63 369 l 64 407 q 143 646 69 556 q 360 736 217 736 q 489 708 433 736 q 581 633 544 681 l 581 688 q 591 713 581 703 q 615 722 601 722 l 729 722 q 753 713 743 722 q 763 688 763 703 l 764 18 q 678 -221 764 -136 q 418 -306 592 -306 m 413 153 q 529 203 490 153 q 572 325 568 253 q 574 369 574 336 q 572 414 574 403 q 529 536 568 486 q 413 586 490 586 q 254 403 263 586 l 253 369 q 413 153 253 153 m 413 819 q 272 872 318 819 q 225 1004 225 924 q 232 1023 225 1015 q 251 1031 239 1031 l 318 1031 q 338 1023 331 1031 q 344 1004 344 1015 q 413 918 344 918 q 482 1004 482 918 q 489 1023 482 1015 q 508 1031 496 1031 l 575 1031 q 594 1023 588 1031 q 601 1004 601 1015 q 555 872 601 924 q 413 819 508 819 z "},"ĝ":{"ha":856,"x_min":63,"x_max":764,"o":"m 418 -306 q 218 -265 294 -306 q 110 -171 142 -224 q 78 -81 78 -118 q 88 -58 78 -67 q 111 -49 97 -49 l 235 -49 q 256 -55 247 -49 q 271 -78 265 -61 q 317 -140 286 -114 q 411 -165 347 -165 q 533 -128 494 -165 q 572 0 572 -92 l 572 94 q 360 6 497 6 q 142 93 215 6 q 64 332 69 181 l 63 369 l 64 407 q 143 646 69 556 q 360 736 217 736 q 489 708 433 736 q 581 633 544 681 l 581 688 q 591 713 581 703 q 615 722 601 722 l 729 722 q 753 713 743 722 q 763 688 763 703 l 764 18 q 678 -221 764 -136 q 418 -306 592 -306 m 413 153 q 529 203 490 153 q 572 325 568 253 q 574 369 574 336 q 572 414 574 403 q 529 536 568 486 q 413 586 490 586 q 254 403 263 586 l 253 369 q 413 153 253 153 m 200 826 q 179 844 179 826 q 192 868 179 856 l 326 1008 q 350 1026 340 1022 q 374 1031 360 1031 l 451 1031 q 476 1026 465 1031 q 499 1008 486 1022 l 635 868 q 647 844 647 856 q 626 826 647 826 l 574 826 q 531 836 549 826 l 413 910 l 294 836 q 251 826 276 826 l 200 826 z "},"ģ":{"ha":856,"x_min":63,"x_max":764,"o":"m 524 1072 q 542 1063 535 1072 q 547 1042 549 1054 l 521 871 q 507 839 518 851 q 476 826 496 826 l 358 826 q 341 834 349 826 q 333 853 333 842 q 338 871 333 861 l 401 1036 q 419 1063 410 1053 q 447 1072 429 1072 l 524 1072 m 418 -306 q 218 -265 294 -306 q 110 -171 142 -224 q 78 -81 78 -118 q 88 -58 78 -67 q 111 -49 97 -49 l 235 -49 q 256 -55 247 -49 q 271 -78 265 -61 q 317 -140 286 -114 q 411 -165 347 -165 q 533 -128 494 -165 q 572 0 572 -92 l 572 94 q 360 6 497 6 q 142 93 215 6 q 64 332 69 181 l 63 369 l 64 407 q 143 646 69 556 q 360 736 217 736 q 489 708 433 736 q 581 633 544 681 l 581 688 q 591 713 581 703 q 615 722 601 722 l 729 722 q 753 713 743 722 q 763 688 763 703 l 764 18 q 678 -221 764 -136 q 418 -306 592 -306 m 413 153 q 529 203 490 153 q 572 325 568 253 q 574 369 574 336 q 572 414 574 403 q 529 536 568 486 q 413 586 490 586 q 254 403 263 586 l 253 369 q 413 153 253 153 z "},"ġ":{"ha":856,"x_min":63,"x_max":764,"o":"m 418 -306 q 218 -265 294 -306 q 110 -171 142 -224 q 78 -81 78 -118 q 88 -58 78 -67 q 111 -49 97 -49 l 235 -49 q 256 -55 247 -49 q 271 -78 265 -61 q 317 -140 286 -114 q 411 -165 347 -165 q 533 -128 494 -165 q 572 0 572 -92 l 572 94 q 360 6 497 6 q 142 93 215 6 q 64 332 69 181 l 63 369 l 64 407 q 143 646 69 556 q 360 736 217 736 q 489 708 433 736 q 581 633 544 681 l 581 688 q 591 713 581 703 q 615 722 601 722 l 729 722 q 753 713 743 722 q 763 688 763 703 l 764 18 q 678 -221 764 -136 q 418 -306 592 -306 m 413 153 q 529 203 490 153 q 572 325 568 253 q 574 369 574 336 q 572 414 574 403 q 529 536 568 486 q 413 586 490 586 q 254 403 263 586 l 253 369 q 413 153 253 153 m 356 844 q 333 853 342 844 q 325 875 325 861 l 325 990 q 333 1013 325 1004 q 356 1022 342 1022 l 471 1022 q 494 1013 485 1022 q 503 990 503 1004 l 503 875 q 494 853 503 861 q 471 844 485 844 l 356 844 z "},"h":{"ha":875,"x_min":93,"x_max":790,"o":"m 126 0 q 103 10 113 0 q 93 33 93 19 l 93 953 q 103 977 93 968 q 126 986 113 986 l 253 986 q 277 977 268 986 q 286 953 286 968 l 286 636 q 510 736 369 736 q 714 652 638 736 q 790 424 790 568 l 790 33 q 781 10 790 19 q 757 0 772 0 l 631 0 q 606 10 615 0 q 596 33 596 19 l 596 415 q 556 541 596 496 q 443 586 517 586 q 329 540 372 586 q 286 415 286 494 l 286 33 q 277 10 286 19 q 253 0 268 0 l 126 0 z "},"ħ":{"ha":875,"x_min":-3,"x_max":790,"o":"m 126 0 q 101 10 111 0 q 92 33 92 19 l 92 774 l 31 774 q 7 783 17 774 q -3 807 -3 793 l -3 849 q 7 873 -3 864 q 31 882 17 882 l 92 882 l 92 953 q 101 976 92 967 q 126 986 111 986 l 253 986 q 277 977 268 986 q 286 953 286 968 l 286 882 l 347 882 q 371 872 361 882 q 381 849 381 863 l 381 807 q 371 783 381 793 q 347 774 361 774 l 286 774 l 286 636 q 510 736 368 736 q 714 652 638 736 q 790 424 790 568 l 790 35 q 781 10 790 19 q 757 0 771 0 l 629 0 q 606 10 615 0 q 596 35 596 19 l 596 415 q 556 541 596 496 q 443 586 517 586 q 328 540 371 586 q 286 415 286 494 l 286 33 q 277 10 286 19 q 253 0 268 0 l 126 0 z "},"ĥ":{"ha":875,"x_min":93,"x_max":790,"o":"m 126 0 q 103 10 113 0 q 93 33 93 19 l 93 953 q 103 977 93 968 q 126 986 113 986 l 253 986 q 277 977 268 986 q 286 953 286 968 l 286 636 q 510 736 369 736 q 714 652 638 736 q 790 424 790 568 l 790 33 q 781 10 790 19 q 757 0 772 0 l 631 0 q 606 10 615 0 q 596 33 596 19 l 596 415 q 556 541 596 496 q 443 586 517 586 q 329 540 372 586 q 286 415 286 494 l 286 33 q 277 10 286 19 q 253 0 268 0 l 126 0 m 228 1042 q 207 1060 207 1042 q 219 1083 207 1071 l 354 1224 q 378 1242 368 1238 q 401 1246 388 1246 l 479 1246 q 503 1242 493 1246 q 526 1224 514 1238 l 663 1083 q 675 1060 675 1071 q 654 1042 675 1042 l 601 1042 q 558 1051 576 1042 l 440 1125 l 322 1051 q 279 1042 304 1042 l 228 1042 z "},"i":{"ha":368,"x_min":86,"x_max":282,"o":"m 119 840 q 96 850 106 840 q 86 874 86 860 l 86 975 q 96 1000 86 990 q 119 1010 106 1010 l 247 1010 q 272 1000 263 1010 q 282 975 282 990 l 282 874 q 272 850 282 860 q 247 840 261 840 l 119 840 m 125 0 q 101 10 111 0 q 92 33 92 19 l 92 689 q 101 713 92 704 q 125 722 111 722 l 243 722 q 267 713 257 722 q 276 689 276 703 l 276 33 q 267 10 276 19 q 243 0 257 0 l 125 0 z "},"ı":{"ha":368,"x_min":92,"x_max":276,"o":"m 125 0 q 101 10 111 0 q 92 33 92 19 l 92 689 q 101 713 92 704 q 125 722 111 722 l 243 722 q 267 713 257 722 q 276 689 276 703 l 276 33 q 267 10 276 19 q 243 0 257 0 l 125 0 z "},"í":{"ha":368,"x_min":92,"x_max":440,"o":"m 125 0 q 101 10 111 0 q 92 33 92 19 l 92 689 q 101 713 92 704 q 125 722 111 722 l 243 722 q 267 713 257 722 q 276 689 276 703 l 276 33 q 267 10 276 19 q 243 0 257 0 l 125 0 m 124 826 q 101 849 101 826 q 108 867 101 860 l 222 1004 q 245 1025 235 1019 q 274 1031 256 1031 l 414 1031 q 433 1023 426 1031 q 440 1003 440 1015 q 433 986 440 993 l 260 844 q 237 831 247 835 q 211 826 226 826 l 124 826 z "},"ĭ":{"ha":368,"x_min":-6,"x_max":371,"o":"m 125 0 q 101 10 111 0 q 92 33 92 19 l 92 689 q 101 713 92 704 q 125 722 111 722 l 243 722 q 267 713 257 722 q 276 689 276 703 l 276 33 q 267 10 276 19 q 243 0 257 0 l 125 0 m 182 819 q 41 872 88 819 q -6 1004 -6 924 q 1 1023 -6 1015 q 21 1031 8 1031 l 88 1031 q 107 1023 100 1031 q 114 1004 114 1015 q 182 918 114 918 q 251 1004 251 918 q 258 1023 251 1015 q 278 1031 265 1031 l 344 1031 q 364 1023 357 1031 q 371 1004 371 1015 q 324 872 371 924 q 182 819 278 819 z "},"î":{"ha":368,"x_min":-50,"x_max":418,"o":"m 125 0 q 101 10 111 0 q 92 33 92 19 l 92 689 q 101 713 92 704 q 125 722 111 722 l 243 722 q 267 713 257 722 q 276 689 276 703 l 276 33 q 267 10 276 19 q 243 0 257 0 l 125 0 m -29 826 q -50 844 -50 826 q -37 868 -50 856 l 97 1008 q 121 1026 111 1022 q 144 1031 131 1031 l 222 1031 q 247 1026 236 1031 q 269 1008 257 1022 l 406 868 q 418 844 418 856 q 397 826 418 826 l 344 826 q 301 836 319 826 l 183 910 l 65 836 q 22 826 47 826 l -29 826 z "},"ï":{"ha":368,"x_min":-31,"x_max":397,"o":"m 125 0 q 101 10 111 0 q 92 33 92 19 l 92 689 q 101 713 92 704 q 125 722 111 722 l 243 722 q 267 713 257 722 q 276 689 276 703 l 276 33 q 267 10 276 19 q 243 0 257 0 l 125 0 m 0 853 q -22 861 -14 853 q -31 883 -31 869 l -31 986 q -22 1009 -31 1000 q 0 1018 -14 1018 l 103 1018 q 126 1009 117 1018 q 135 986 135 1000 l 135 883 q 126 861 135 869 q 103 853 117 853 l 0 853 m 263 853 q 240 861 249 853 q 232 883 232 869 l 232 986 q 240 1009 232 1000 q 263 1018 249 1018 l 365 1018 q 388 1009 379 1018 q 397 986 397 1000 l 397 883 q 388 861 397 869 q 365 853 379 853 l 263 853 z "},"ì":{"ha":368,"x_min":-72,"x_max":276,"o":"m 125 0 q 101 10 111 0 q 92 33 92 19 l 92 689 q 101 713 92 704 q 125 722 111 722 l 243 722 q 267 713 257 722 q 276 689 276 703 l 276 33 q 267 10 276 19 q 243 0 257 0 l 125 0 m 157 826 q 131 831 142 826 q 108 844 121 835 l -65 986 q -72 1003 -72 993 q -65 1023 -72 1015 q -46 1031 -58 1031 l 94 1031 q 123 1025 113 1031 q 146 1004 133 1019 l 260 867 q 267 849 267 860 q 244 826 267 826 l 157 826 z "},"ĳ":{"ha":757,"x_min":86,"x_max":669,"o":"m 119 840 q 96 850 106 840 q 86 874 86 860 l 86 975 q 96 1000 86 990 q 119 1010 106 1010 l 247 1010 q 272 1000 263 1010 q 282 975 282 990 l 282 874 q 272 850 282 860 q 247 840 261 840 l 119 840 m 125 0 q 101 10 111 0 q 92 33 92 19 l 92 689 q 101 713 92 704 q 125 722 111 722 l 243 722 q 267 713 257 722 q 276 689 276 703 l 276 33 q 267 10 276 19 q 243 0 257 0 l 125 0 m 501 840 q 478 850 488 840 q 468 874 468 860 l 468 975 q 478 999 468 989 q 501 1010 488 1010 l 636 1010 q 660 1000 650 1010 q 669 975 669 990 l 669 874 q 660 850 669 860 q 636 840 650 840 l 501 840 m 340 -264 q 316 -255 325 -264 q 307 -231 307 -246 l 307 -149 q 316 -125 307 -135 q 340 -115 325 -115 l 376 -115 q 455 -85 435 -115 q 475 3 475 -56 l 475 689 q 485 713 475 704 q 508 722 494 722 l 631 722 q 655 713 646 722 q 664 689 664 704 l 664 -1 q 596 -195 664 -126 q 394 -264 528 -264 l 340 -264 z "},"ī":{"ha":368,"x_min":-22,"x_max":390,"o":"m 125 0 q 101 10 111 0 q 92 33 92 19 l 92 689 q 101 713 92 704 q 125 722 111 722 l 243 722 q 267 713 257 722 q 276 689 276 703 l 276 33 q 267 10 276 19 q 243 0 257 0 l 125 0 m 8 849 q -14 857 -6 849 q -22 879 -22 865 l -22 951 q -14 974 -22 965 q 8 982 -6 982 l 358 982 q 381 974 372 982 q 390 951 390 965 l 390 879 q 381 857 390 865 q 358 849 372 849 l 8 849 z "},"į":{"ha":385,"x_min":43,"x_max":301,"o":"m 136 840 q 113 850 122 840 q 103 874 103 860 l 103 975 q 113 1000 103 990 q 136 1010 122 1010 l 265 1010 q 289 999 279 1010 q 299 975 299 989 l 299 874 q 289 850 299 860 q 265 840 279 840 l 136 840 m 244 -289 q 96 -235 149 -289 q 43 -90 43 -181 q 65 -4 43 -39 q 128 43 88 31 l 125 47 q 113 54 118 49 q 108 68 108 60 l 108 689 q 118 713 108 704 q 142 722 128 722 l 260 722 q 284 713 275 722 q 293 689 293 704 l 293 33 q 284 10 293 19 q 260 0 275 0 l 250 0 q 183 -24 207 0 q 160 -90 160 -49 q 183 -154 160 -131 q 250 -178 207 -178 l 268 -178 q 292 -187 282 -178 q 301 -212 301 -197 l 301 -256 q 292 -280 301 -271 q 268 -289 283 -289 l 244 -289 z "},"ĩ":{"ha":368,"x_min":-31,"x_max":399,"o":"m 125 0 q 101 10 111 0 q 92 33 92 19 l 92 689 q 101 713 92 704 q 125 722 111 722 l 243 722 q 267 713 257 722 q 276 689 276 703 l 276 33 q 267 10 276 19 q 243 0 257 0 l 125 0 m 261 819 q 217 826 235 819 q 174 847 199 833 q 144 863 156 858 q 119 868 133 868 q 100 863 107 868 q 85 846 93 857 q 58 826 74 826 l -7 826 q -24 833 -17 826 q -31 850 -31 840 q -16 917 -31 882 q 29 976 -1 951 q 106 1000 60 1000 q 150 993 132 1000 q 193 972 168 986 q 222 956 211 961 q 247 951 233 951 q 267 957 260 951 q 282 974 275 963 q 294 988 289 983 q 310 993 300 993 l 374 993 q 392 986 385 993 q 399 969 399 979 q 383 903 399 938 q 337 844 368 868 q 261 819 306 819 z "},"j":{"ha":389,"x_min":-61,"x_max":301,"o":"m 133 840 q 110 850 119 840 q 100 874 100 860 l 100 975 q 110 999 100 989 q 133 1010 119 1010 l 268 1010 q 292 1000 282 1010 q 301 975 301 990 l 301 874 q 292 850 301 860 q 268 840 282 840 l 133 840 m -28 -264 q -52 -255 -43 -264 q -61 -231 -61 -246 l -61 -149 q -52 -125 -61 -135 q -28 -115 -43 -115 l 8 -115 q 87 -85 67 -115 q 107 3 107 -56 l 107 689 q 117 713 107 704 q 140 722 126 722 l 263 722 q 287 713 278 722 q 296 689 296 704 l 296 -1 q 228 -195 296 -126 q 26 -264 160 -264 l -28 -264 z "},"ȷ":{"ha":497,"x_min":21,"x_max":404,"o":"m 54 -264 q 31 -255 40 -264 q 21 -231 21 -246 l 21 -129 q 31 -106 21 -115 q 54 -96 40 -96 l 117 -96 q 194 -65 174 -96 q 214 22 214 -35 l 214 569 l 64 569 q 40 579 50 569 q 31 603 31 589 l 31 689 q 40 713 31 704 q 64 722 50 722 l 371 722 q 395 713 386 722 q 404 689 404 704 l 404 22 q 336 -187 404 -110 q 135 -264 268 -264 l 54 -264 z "},"ĵ":{"ha":497,"x_min":-1,"x_max":467,"o":"m 54 -264 q 31 -255 40 -264 q 21 -231 21 -246 l 21 -129 q 31 -106 21 -115 q 54 -96 40 -96 l 117 -96 q 194 -65 174 -96 q 214 22 214 -35 l 214 569 l 64 569 q 40 579 50 569 q 31 603 31 589 l 31 689 q 40 713 31 704 q 64 722 50 722 l 371 722 q 395 713 386 722 q 404 689 404 704 l 404 22 q 336 -187 404 -110 q 135 -264 268 -264 l 54 -264 m 19 826 q -1 844 -1 826 q 11 868 -1 856 l 146 1008 q 169 1026 160 1022 q 193 1031 179 1031 l 271 1031 q 295 1026 285 1031 q 318 1008 306 1022 l 454 868 q 467 844 467 856 q 446 826 467 826 l 393 826 q 350 836 368 826 l 232 910 l 114 836 q 71 826 96 826 l 19 826 z "},"k":{"ha":767,"x_min":93,"x_max":753,"o":"m 126 0 q 103 10 113 0 q 93 33 93 19 l 93 953 q 103 977 93 968 q 126 986 113 986 l 242 986 q 265 976 256 986 q 275 953 275 967 l 275 478 l 506 699 q 519 709 510 701 q 536 719 528 717 q 557 722 544 722 l 689 722 q 711 714 703 722 q 719 692 719 706 q 706 667 719 679 l 422 399 l 740 54 q 753 31 753 42 q 744 8 753 17 q 724 0 736 0 l 589 0 q 560 5 569 0 q 538 24 551 10 l 275 303 l 275 33 q 265 10 275 19 q 242 0 256 0 l 126 0 z "},"ķ":{"ha":767,"x_min":93,"x_max":753,"o":"m 126 0 q 103 10 113 0 q 93 33 93 19 l 93 953 q 103 977 93 968 q 126 986 113 986 l 242 986 q 265 976 256 986 q 275 953 275 967 l 275 478 l 506 699 q 519 709 510 701 q 536 719 528 717 q 557 722 544 722 l 689 722 q 711 714 703 722 q 719 692 719 706 q 706 667 719 679 l 422 399 l 740 54 q 753 31 753 42 q 744 8 753 17 q 724 0 736 0 l 589 0 q 560 5 569 0 q 538 24 551 10 l 275 303 l 275 33 q 265 10 275 19 q 242 0 256 0 l 126 0 m 276 -315 q 258 -306 265 -315 q 253 -285 251 -297 l 279 -114 q 293 -82 282 -94 q 324 -69 304 -69 l 442 -69 q 459 -77 451 -69 q 467 -96 467 -85 q 463 -114 467 -104 l 399 -279 q 381 -306 390 -296 q 353 -315 371 -315 l 276 -315 z "},"ĸ":{"ha":768,"x_min":92,"x_max":753,"o":"m 125 0 q 101 10 111 0 q 92 33 92 19 l 92 689 q 101 713 92 704 q 125 722 111 722 l 240 722 q 265 713 256 722 q 274 689 274 704 l 274 440 l 518 699 q 530 709 521 701 q 547 719 539 717 q 568 722 556 722 l 693 722 q 714 714 706 722 q 722 692 722 706 q 710 667 722 679 l 425 365 l 740 54 q 753 31 753 42 q 744 8 753 17 q 722 0 736 0 l 586 0 q 561 4 569 0 q 545 15 553 8 q 535 24 538 21 l 274 281 l 274 33 q 265 10 274 19 q 240 0 256 0 l 125 0 z "},"l":{"ha":369,"x_min":93,"x_max":276,"o":"m 126 0 q 103 10 113 0 q 93 33 93 19 l 93 953 q 103 977 93 968 q 126 986 113 986 l 243 986 q 267 977 258 986 q 276 953 276 968 l 276 33 q 267 10 276 19 q 243 0 258 0 l 126 0 z "},"ĺ":{"ha":369,"x_min":93,"x_max":456,"o":"m 126 0 q 103 10 113 0 q 93 33 93 19 l 93 953 q 103 977 93 968 q 126 986 113 986 l 243 986 q 267 977 258 986 q 276 953 276 968 l 276 33 q 267 10 276 19 q 243 0 258 0 l 126 0 m 139 1042 q 117 1064 117 1042 q 124 1082 117 1075 l 238 1219 q 260 1240 250 1235 q 289 1246 271 1246 l 429 1246 q 449 1238 442 1246 q 456 1218 456 1231 q 449 1201 456 1208 l 275 1060 q 252 1046 263 1050 q 226 1042 242 1042 l 139 1042 z "},"ľ":{"ha":476,"x_min":93,"x_max":564,"o":"m 126 0 q 103 10 113 0 q 93 33 93 19 l 93 953 q 103 977 93 968 q 126 986 113 986 l 243 986 q 267 977 258 986 q 276 953 276 968 l 276 33 q 267 10 276 19 q 243 0 258 0 l 126 0 m 374 740 q 356 749 363 740 q 350 771 349 758 l 376 942 q 390 974 379 961 q 421 986 401 986 l 539 986 q 556 978 549 986 q 564 960 564 971 q 560 942 564 951 l 496 776 q 478 750 488 760 q 450 740 468 740 l 374 740 z "},"ļ":{"ha":369,"x_min":58,"x_max":276,"o":"m 126 0 q 103 10 113 0 q 93 33 93 19 l 93 953 q 103 977 93 968 q 126 986 113 986 l 243 986 q 267 977 258 986 q 276 953 276 968 l 276 33 q 267 10 276 19 q 243 0 258 0 l 126 0 m 82 -315 q 64 -306 71 -315 q 58 -285 57 -297 l 85 -114 q 99 -82 88 -94 q 129 -69 110 -69 l 247 -69 q 265 -77 257 -69 q 272 -96 272 -85 q 268 -114 272 -104 l 204 -279 q 186 -306 196 -296 q 158 -315 176 -315 l 82 -315 z "},"ŀ":{"ha":500,"x_min":93,"x_max":525,"o":"m 126 0 q 103 10 113 0 q 93 33 93 19 l 93 953 q 103 977 93 968 q 126 986 113 986 l 243 986 q 267 977 258 986 q 276 953 276 968 l 276 33 q 267 10 276 19 q 243 0 258 0 l 126 0 m 378 411 q 356 419 364 411 q 347 442 347 428 l 347 557 q 356 580 347 571 q 378 589 364 589 l 493 589 q 516 580 507 589 q 525 557 525 571 l 525 442 q 516 419 525 428 q 493 411 507 411 l 378 411 z "},"ł":{"ha":432,"x_min":33,"x_max":400,"o":"m 158 0 q 135 10 144 0 q 125 33 125 19 l 125 390 l 78 372 q 61 368 68 368 q 41 375 49 368 q 33 394 33 382 l 33 474 q 40 498 33 490 q 64 513 47 506 l 125 535 l 125 953 q 135 977 125 968 q 158 986 144 986 l 275 986 q 300 976 290 986 q 310 953 310 967 l 310 607 l 356 625 q 374 629 365 629 q 392 622 385 629 q 400 603 400 615 l 400 525 q 393 500 400 508 q 369 485 386 492 l 310 461 l 310 33 q 300 10 310 19 q 275 0 290 0 l 158 0 z "},"m":{"ha":1254,"x_min":92,"x_max":1169,"o":"m 125 0 q 101 10 111 0 q 92 33 92 19 l 92 689 q 101 713 92 704 q 125 722 111 722 l 235 722 q 259 713 250 722 q 268 689 268 704 l 268 642 q 469 736 343 736 q 685 613 624 736 q 779 702 718 668 q 911 736 840 736 q 1097 658 1025 736 q 1169 432 1169 581 l 1169 33 q 1160 10 1169 19 q 1136 0 1151 0 l 1021 0 q 997 10 1007 0 q 988 33 988 19 l 988 421 q 951 547 988 508 q 854 586 914 586 q 762 547 800 586 q 724 421 724 507 l 724 33 q 715 10 724 19 q 690 0 706 0 l 574 0 q 550 10 560 0 q 540 33 540 19 l 540 421 q 503 547 540 507 q 407 586 465 586 q 315 547 353 586 q 276 421 276 507 l 276 33 q 267 10 276 19 q 243 0 258 0 l 125 0 z "},"n":{"ha":868,"x_min":92,"x_max":783,"o":"m 125 0 q 101 10 111 0 q 92 33 92 19 l 92 689 q 101 713 92 704 q 125 722 111 722 l 240 722 q 265 713 256 722 q 274 689 274 704 l 274 632 q 506 736 358 736 q 708 653 633 736 q 783 424 783 569 l 783 33 q 774 10 783 19 q 750 0 765 0 l 625 0 q 601 10 611 0 q 592 33 592 19 l 592 415 q 552 541 592 496 q 439 586 513 586 q 325 540 368 586 q 282 415 282 494 l 282 33 q 273 10 282 19 q 249 0 264 0 l 125 0 z "},"ń":{"ha":868,"x_min":92,"x_max":783,"o":"m 125 0 q 101 10 111 0 q 92 33 92 19 l 92 689 q 101 713 92 704 q 125 722 111 722 l 240 722 q 265 713 256 722 q 274 689 274 704 l 274 632 q 506 736 358 736 q 708 653 633 736 q 783 424 783 569 l 783 33 q 774 10 783 19 q 750 0 765 0 l 625 0 q 601 10 611 0 q 592 33 592 19 l 592 415 q 552 541 592 496 q 439 586 513 586 q 325 540 368 586 q 282 415 282 494 l 282 33 q 273 10 282 19 q 249 0 264 0 l 125 0 m 374 826 q 351 849 351 826 q 358 867 351 860 l 472 1004 q 495 1025 485 1019 q 524 1031 506 1031 l 664 1031 q 683 1023 676 1031 q 690 1003 690 1015 q 683 986 690 993 l 510 844 q 487 831 497 835 q 461 826 476 826 l 374 826 z "},"ŉ":{"ha":868,"x_min":92,"x_max":783,"o":"m 125 0 q 101 10 111 0 q 92 33 92 19 l 92 689 q 101 713 92 704 q 125 722 111 722 l 240 722 q 265 713 256 722 q 274 689 274 704 l 274 632 q 506 736 358 736 q 708 653 633 736 q 783 424 783 569 l 783 33 q 774 10 783 19 q 750 0 765 0 l 625 0 q 601 10 611 0 q 592 33 592 19 l 592 415 q 552 541 592 496 q 439 586 513 586 q 325 540 368 586 q 282 415 282 494 l 282 33 q 273 10 282 19 q 249 0 264 0 l 125 0 m 144 815 q 126 824 133 815 q 121 846 119 833 l 147 1017 q 161 1049 150 1036 q 192 1061 172 1061 l 310 1061 q 327 1053 319 1061 q 335 1035 335 1046 q 331 1017 335 1026 l 267 851 q 249 825 258 835 q 221 815 239 815 l 144 815 z "},"ň":{"ha":868,"x_min":92,"x_max":783,"o":"m 125 0 q 101 10 111 0 q 92 33 92 19 l 92 689 q 101 713 92 704 q 125 722 111 722 l 240 722 q 265 713 256 722 q 274 689 274 704 l 274 632 q 506 736 358 736 q 708 653 633 736 q 783 424 783 569 l 783 33 q 774 10 783 19 q 750 0 765 0 l 625 0 q 601 10 611 0 q 592 33 592 19 l 592 415 q 552 541 592 496 q 439 586 513 586 q 325 540 368 586 q 282 415 282 494 l 282 33 q 273 10 282 19 q 249 0 264 0 l 125 0 m 397 826 q 374 831 383 826 q 350 849 364 835 l 215 989 q 203 1013 203 1000 q 224 1031 203 1031 l 275 1031 q 318 1021 300 1031 l 436 947 l 554 1021 q 597 1031 572 1031 l 650 1031 q 671 1013 671 1031 q 658 989 671 1000 l 522 849 q 499 831 510 835 q 475 826 489 826 l 397 826 z "},"ņ":{"ha":868,"x_min":92,"x_max":783,"o":"m 125 0 q 101 10 111 0 q 92 33 92 19 l 92 689 q 101 713 92 704 q 125 722 111 722 l 240 722 q 265 713 256 722 q 274 689 274 704 l 274 632 q 506 736 358 736 q 708 653 633 736 q 783 424 783 569 l 783 33 q 774 10 783 19 q 750 0 765 0 l 625 0 q 601 10 611 0 q 592 33 592 19 l 592 415 q 552 541 592 496 q 439 586 513 586 q 325 540 368 586 q 282 415 282 494 l 282 33 q 273 10 282 19 q 249 0 264 0 l 125 0 m 342 -315 q 324 -306 331 -315 q 318 -285 317 -297 l 344 -114 q 358 -82 347 -94 q 389 -69 369 -69 l 507 -69 q 524 -77 517 -69 q 532 -96 532 -85 q 528 -114 532 -104 l 464 -279 q 446 -306 456 -296 q 418 -315 436 -315 l 342 -315 z "},"ŋ":{"ha":868,"x_min":92,"x_max":783,"o":"m 454 -312 q 431 -303 440 -312 q 421 -279 421 -293 l 421 -182 q 431 -158 421 -168 q 454 -149 440 -149 l 481 -149 q 568 -115 544 -149 q 592 -12 592 -82 l 592 415 q 552 541 592 496 q 439 586 513 586 q 325 540 368 586 q 282 415 282 494 l 282 33 q 273 10 282 19 q 249 0 264 0 l 125 0 q 101 10 111 0 q 92 33 92 19 l 92 689 q 101 713 92 704 q 125 722 111 722 l 240 722 q 265 713 256 722 q 274 689 274 704 l 274 632 q 506 736 358 736 q 708 653 633 736 q 783 424 783 569 l 783 -18 q 705 -236 783 -160 q 475 -312 626 -312 l 454 -312 z "},"ñ":{"ha":868,"x_min":92,"x_max":783,"o":"m 125 0 q 101 10 111 0 q 92 33 92 19 l 92 689 q 101 713 92 704 q 125 722 111 722 l 240 722 q 265 713 256 722 q 274 689 274 704 l 274 632 q 506 736 358 736 q 708 653 633 736 q 783 424 783 569 l 783 33 q 774 10 783 19 q 750 0 765 0 l 625 0 q 601 10 611 0 q 592 33 592 19 l 592 415 q 552 541 592 496 q 439 586 513 586 q 325 540 368 586 q 282 415 282 494 l 282 33 q 273 10 282 19 q 249 0 264 0 l 125 0 m 515 819 q 471 826 489 819 q 428 847 453 833 q 399 863 410 858 q 374 868 388 868 q 354 863 361 868 q 339 846 347 857 q 313 826 328 826 l 247 826 q 231 833 238 826 q 224 850 224 840 q 238 917 224 882 q 283 976 253 951 q 360 1000 314 1000 q 404 993 386 1000 q 447 972 422 986 q 476 956 465 961 q 501 951 488 951 q 522 957 514 951 q 536 974 529 963 q 549 988 543 983 q 564 993 554 993 l 628 993 q 646 986 639 993 q 653 969 653 979 q 638 903 653 938 q 591 844 622 868 q 515 819 560 819 z "},"o":{"ha":824,"x_min":63,"x_max":761,"o":"m 413 -14 q 160 69 249 -14 q 64 300 71 153 l 63 361 l 64 422 q 161 652 71 568 q 413 736 251 736 q 663 652 572 736 q 760 422 753 568 q 761 361 761 406 q 760 300 761 317 q 664 69 753 153 q 413 -14 575 -14 m 413 126 q 526 172 486 126 q 568 307 565 218 q 569 361 569 321 q 568 415 569 401 q 525 551 565 504 q 413 597 485 597 q 299 551 339 597 q 256 415 258 504 l 254 361 l 256 307 q 299 172 258 218 q 413 126 339 126 z "},"ó":{"ha":824,"x_min":63,"x_max":761,"o":"m 413 -14 q 160 69 249 -14 q 64 300 71 153 l 63 361 l 64 422 q 161 652 71 568 q 413 736 251 736 q 663 652 572 736 q 760 422 753 568 q 761 361 761 406 q 760 300 761 317 q 664 69 753 153 q 413 -14 575 -14 m 413 126 q 526 172 486 126 q 568 307 565 218 q 569 361 569 321 q 568 415 569 401 q 525 551 565 504 q 413 597 485 597 q 299 551 339 597 q 256 415 258 504 l 254 361 l 256 307 q 299 172 258 218 q 413 126 339 126 m 350 826 q 328 849 328 826 q 335 867 328 860 l 449 1004 q 472 1025 461 1019 q 500 1031 482 1031 l 640 1031 q 660 1023 653 1031 q 667 1003 667 1015 q 660 986 667 993 l 486 844 q 463 831 474 835 q 438 826 453 826 l 350 826 z "},"ŏ":{"ha":824,"x_min":63,"x_max":761,"o":"m 413 -14 q 160 69 249 -14 q 64 300 71 153 l 63 361 l 64 422 q 161 652 71 568 q 413 736 251 736 q 663 652 572 736 q 760 422 753 568 q 761 361 761 406 q 760 300 761 317 q 664 69 753 153 q 413 -14 575 -14 m 413 126 q 526 172 486 126 q 568 307 565 218 q 569 361 569 321 q 568 415 569 401 q 525 551 565 504 q 413 597 485 597 q 299 551 339 597 q 256 415 258 504 l 254 361 l 256 307 q 299 172 258 218 q 413 126 339 126 m 411 819 q 270 872 317 819 q 224 1004 224 924 q 231 1023 224 1015 q 250 1031 238 1031 l 317 1031 q 336 1023 329 1031 q 343 1004 343 1015 q 411 918 343 918 q 481 1004 481 918 q 488 1023 481 1015 q 507 1031 494 1031 l 574 1031 q 593 1023 586 1031 q 600 1004 600 1015 q 553 872 600 924 q 411 819 507 819 z "},"ô":{"ha":824,"x_min":63,"x_max":761,"o":"m 413 -14 q 160 69 249 -14 q 64 300 71 153 l 63 361 l 64 422 q 161 652 71 568 q 413 736 251 736 q 663 652 572 736 q 760 422 753 568 q 761 361 761 406 q 760 300 761 317 q 664 69 753 153 q 413 -14 575 -14 m 413 126 q 526 172 486 126 q 568 307 565 218 q 569 361 569 321 q 568 415 569 401 q 525 551 565 504 q 413 597 485 597 q 299 551 339 597 q 256 415 258 504 l 254 361 l 256 307 q 299 172 258 218 q 413 126 339 126 m 199 826 q 178 844 178 826 q 190 868 178 856 l 325 1008 q 349 1026 339 1022 q 372 1031 358 1031 l 450 1031 q 474 1026 464 1031 q 497 1008 485 1022 l 633 868 q 646 844 646 856 q 625 826 646 826 l 572 826 q 529 836 547 826 l 411 910 l 293 836 q 250 826 275 826 l 199 826 z "},"ö":{"ha":824,"x_min":63,"x_max":761,"o":"m 413 -14 q 160 69 249 -14 q 64 300 71 153 l 63 361 l 64 422 q 161 652 71 568 q 413 736 251 736 q 663 652 572 736 q 760 422 753 568 q 761 361 761 406 q 760 300 761 317 q 664 69 753 153 q 413 -14 575 -14 m 413 126 q 526 172 486 126 q 568 307 565 218 q 569 361 569 321 q 568 415 569 401 q 525 551 565 504 q 413 597 485 597 q 299 551 339 597 q 256 415 258 504 l 254 361 l 256 307 q 299 172 258 218 q 413 126 339 126 m 229 853 q 207 861 215 853 q 199 883 199 869 l 199 986 q 207 1009 199 1000 q 229 1018 215 1018 l 332 1018 q 355 1009 346 1018 q 364 986 364 1000 l 364 883 q 355 861 364 869 q 332 853 346 853 l 229 853 m 492 853 q 469 861 478 853 q 461 883 461 869 l 461 986 q 469 1009 461 1000 q 492 1018 478 1018 l 594 1018 q 617 1009 608 1018 q 626 986 626 1000 l 626 883 q 617 861 626 869 q 594 853 608 853 l 492 853 z "},"ò":{"ha":824,"x_min":63,"x_max":761,"o":"m 413 -14 q 160 69 249 -14 q 64 300 71 153 l 63 361 l 64 422 q 161 652 71 568 q 413 736 251 736 q 663 652 572 736 q 760 422 753 568 q 761 361 761 406 q 760 300 761 317 q 664 69 753 153 q 413 -14 575 -14 m 413 126 q 526 172 486 126 q 568 307 565 218 q 569 361 569 321 q 568 415 569 401 q 525 551 565 504 q 413 597 485 597 q 299 551 339 597 q 256 415 258 504 l 254 361 l 256 307 q 299 172 258 218 q 413 126 339 126 m 386 826 q 360 831 371 826 q 338 844 350 835 l 164 986 q 157 1003 157 993 q 164 1023 157 1015 q 183 1031 171 1031 l 324 1031 q 352 1025 342 1031 q 375 1004 363 1019 l 489 867 q 496 849 496 860 q 474 826 496 826 l 386 826 z "},"ő":{"ha":824,"x_min":63,"x_max":761,"o":"m 413 -14 q 160 69 249 -14 q 64 300 71 153 l 63 361 l 64 422 q 161 652 71 568 q 413 736 251 736 q 663 652 572 736 q 760 422 753 568 q 761 361 761 406 q 760 300 761 317 q 664 69 753 153 q 413 -14 575 -14 m 413 126 q 526 172 486 126 q 568 307 565 218 q 569 361 569 321 q 568 415 569 401 q 525 551 565 504 q 413 597 485 597 q 299 551 339 597 q 256 415 258 504 l 254 361 l 256 307 q 299 172 258 218 q 413 126 339 126 m 228 826 q 206 849 206 826 q 213 869 206 856 l 272 1004 q 291 1024 279 1018 q 324 1031 303 1031 l 438 1031 q 458 1024 450 1031 q 465 1004 465 1017 q 457 986 465 994 l 333 846 q 289 826 317 826 l 228 826 m 492 826 q 469 849 469 826 q 476 869 469 856 l 536 1004 q 555 1024 543 1018 q 588 1031 567 1031 l 701 1031 q 722 1024 714 1031 q 729 1004 729 1017 q 721 986 729 994 l 597 846 q 553 826 581 826 l 492 826 z "},"ō":{"ha":824,"x_min":63,"x_max":761,"o":"m 413 -14 q 160 69 249 -14 q 64 300 71 153 l 63 361 l 64 422 q 161 652 71 568 q 413 736 251 736 q 663 652 572 736 q 760 422 753 568 q 761 361 761 406 q 760 300 761 317 q 664 69 753 153 q 413 -14 575 -14 m 413 126 q 526 172 486 126 q 568 307 565 218 q 569 361 569 321 q 568 415 569 401 q 525 551 565 504 q 413 597 485 597 q 299 551 339 597 q 256 415 258 504 l 254 361 l 256 307 q 299 172 258 218 q 413 126 339 126 m 238 849 q 215 857 224 849 q 207 879 207 865 l 207 951 q 215 974 207 965 q 238 982 224 982 l 588 982 q 610 974 601 982 q 619 951 619 965 l 619 879 q 610 857 619 865 q 588 849 601 849 l 238 849 z "},"ø":{"ha":867,"x_min":17,"x_max":850,"o":"m 435 -14 q 227 37 307 -14 q 113 176 147 88 l 61 157 q 44 153 50 153 q 24 160 32 153 q 17 179 17 167 l 17 233 q 24 258 17 250 q 47 274 31 267 l 88 289 q 85 368 85 342 l 86 422 q 181 649 93 561 q 435 736 268 736 q 638 685 560 736 q 753 547 717 635 l 806 568 q 822 572 817 572 q 842 565 835 572 q 850 544 850 557 l 850 490 q 843 466 850 474 q 819 451 836 458 l 781 436 q 783 360 783 415 q 782 300 783 317 q 690 73 775 160 q 435 -14 604 -14 m 583 481 q 530 569 569 540 q 435 597 490 597 q 324 556 365 597 q 278 426 282 514 l 278 363 l 583 481 m 435 126 q 592 303 583 126 l 592 363 l 285 243 q 435 126 313 126 z "},"ǿ":{"ha":867,"x_min":17,"x_max":850,"o":"m 368 826 q 346 849 346 826 q 353 867 346 860 l 467 1004 q 490 1025 479 1019 q 518 1031 500 1031 l 658 1031 q 678 1023 671 1031 q 685 1003 685 1015 q 678 986 685 993 l 504 844 q 481 831 492 835 q 456 826 471 826 l 368 826 m 435 -14 q 227 37 307 -14 q 113 176 147 88 l 61 157 q 44 153 50 153 q 24 160 32 153 q 17 179 17 167 l 17 233 q 24 258 17 250 q 47 274 31 267 l 88 289 q 85 368 85 342 l 86 422 q 181 649 93 561 q 435 736 268 736 q 638 685 560 736 q 753 547 717 635 l 806 568 q 822 572 817 572 q 842 565 835 572 q 850 544 850 557 l 850 490 q 843 466 850 474 q 819 451 836 458 l 781 436 q 783 360 783 415 q 782 300 783 317 q 690 73 775 160 q 435 -14 604 -14 m 583 481 q 530 569 569 540 q 435 597 490 597 q 324 556 365 597 q 278 426 282 514 l 278 363 l 583 481 m 435 126 q 592 303 583 126 l 592 363 l 285 243 q 435 126 313 126 z "},"õ":{"ha":824,"x_min":63,"x_max":761,"o":"m 413 -14 q 160 69 249 -14 q 64 300 71 153 l 63 361 l 64 422 q 161 652 71 568 q 413 736 251 736 q 663 652 572 736 q 760 422 753 568 q 761 361 761 406 q 760 300 761 317 q 664 69 753 153 q 413 -14 575 -14 m 413 126 q 526 172 486 126 q 568 307 565 218 q 569 361 569 321 q 568 415 569 401 q 525 551 565 504 q 413 597 485 597 q 299 551 339 597 q 256 415 258 504 l 254 361 l 256 307 q 299 172 258 218 q 413 126 339 126 m 490 819 q 446 826 464 819 q 403 847 428 833 q 374 863 385 858 q 349 868 363 868 q 329 863 336 868 q 314 846 322 857 q 288 826 303 826 l 222 826 q 206 833 213 826 q 199 850 199 840 q 213 917 199 882 q 258 976 228 951 q 335 1000 289 1000 q 379 993 361 1000 q 422 972 397 986 q 451 956 440 961 q 476 951 463 951 q 497 957 489 951 q 511 974 504 963 q 524 988 518 983 q 539 993 529 993 l 603 993 q 621 986 614 993 q 628 969 628 979 q 613 903 628 938 q 566 844 597 868 q 490 819 535 819 z "},"œ":{"ha":1311,"x_min":64,"x_max":1258,"o":"m 413 -14 q 160 70 249 -14 q 65 300 72 154 q 64 361 64 317 q 65 422 64 406 q 163 652 72 568 q 413 736 253 736 q 563 707 497 736 q 669 625 628 678 q 914 736 758 736 q 1169 636 1079 736 q 1258 369 1258 536 l 1258 340 q 1249 317 1258 326 q 1224 307 1239 307 l 763 307 l 763 296 q 805 167 765 218 q 914 117 844 117 q 1039 181 989 117 q 1058 199 1051 196 q 1082 203 1065 203 l 1204 203 q 1226 196 1217 203 q 1235 176 1235 189 q 1196 98 1235 143 q 1084 19 1157 53 q 915 -14 1011 -14 q 774 15 836 -14 q 668 94 711 43 q 563 15 628 43 q 413 -14 499 -14 m 1067 425 l 1067 428 q 1026 559 1067 510 q 914 608 985 608 q 803 559 843 608 q 763 428 763 510 l 763 425 l 1067 425 m 413 126 q 526 172 486 126 q 569 307 565 218 q 571 361 571 321 q 569 415 571 401 q 525 551 565 504 q 413 597 485 597 q 300 551 340 597 q 256 415 260 504 l 254 361 l 256 307 q 299 172 260 218 q 413 126 339 126 z "},"p":{"ha":853,"x_min":93,"x_max":790,"o":"m 126 -264 q 103 -255 113 -264 q 93 -231 93 -246 l 93 689 q 103 713 93 704 q 126 722 113 722 l 238 722 q 263 713 253 722 q 272 689 272 703 l 272 633 q 493 736 346 736 q 708 648 633 736 q 789 411 783 560 q 790 361 790 394 q 789 311 790 328 q 709 76 785 165 q 493 -14 633 -14 q 281 85 354 -14 l 281 -231 q 272 -255 281 -246 q 247 -264 263 -264 l 126 -264 m 440 136 q 599 319 589 136 q 600 361 600 333 q 599 403 600 389 q 440 586 589 586 q 322 535 361 586 q 281 410 283 483 q 279 357 279 393 q 281 303 279 321 q 324 185 283 233 q 440 136 364 136 z "},"þ":{"ha":854,"x_min":93,"x_max":792,"o":"m 126 -264 q 103 -255 113 -264 q 93 -231 93 -246 l 93 953 q 103 977 93 968 q 126 986 113 986 l 247 986 q 272 977 263 986 q 281 953 281 968 l 281 639 q 367 711 317 686 q 494 736 417 736 q 710 648 635 736 q 790 411 785 560 q 792 361 792 394 q 790 311 792 328 q 709 76 785 165 q 494 -14 633 -14 q 281 85 354 -14 l 281 -231 q 272 -255 281 -246 q 247 -264 263 -264 l 126 -264 m 442 136 q 599 319 589 136 q 600 361 600 333 q 599 403 600 389 q 442 586 589 586 q 324 535 363 586 q 281 410 285 485 l 279 357 l 281 303 q 324 185 283 233 q 442 136 365 136 z "},"q":{"ha":853,"x_min":63,"x_max":761,"o":"m 607 -264 q 583 -255 593 -264 q 574 -231 574 -246 l 574 85 q 360 -14 500 -14 q 145 76 221 -14 q 64 311 69 165 l 63 361 l 64 411 q 144 648 69 560 q 360 736 219 736 q 582 633 506 736 l 582 689 q 592 713 582 704 q 615 722 601 722 l 728 722 q 752 713 743 722 q 761 689 761 704 l 761 -231 q 752 -255 761 -246 q 728 -264 743 -264 l 607 -264 m 413 136 q 530 185 489 136 q 574 303 571 233 q 575 357 575 321 q 574 410 575 393 q 531 535 569 485 q 413 586 492 586 q 256 403 265 586 q 254 361 254 389 q 256 319 254 333 q 413 136 265 136 z "},"r":{"ha":582,"x_min":92,"x_max":565,"o":"m 125 0 q 101 10 111 0 q 92 33 92 19 l 92 688 q 101 713 92 703 q 125 722 111 722 l 239 722 q 264 713 254 722 q 274 688 274 703 l 274 631 q 474 722 343 722 l 532 722 q 556 713 547 722 q 565 689 565 704 l 565 588 q 556 564 565 574 q 532 554 547 554 l 422 554 q 319 517 357 554 q 282 414 282 479 l 282 33 q 272 10 282 19 q 249 0 263 0 l 125 0 z "},"ŕ":{"ha":582,"x_min":92,"x_max":571,"o":"m 125 0 q 101 10 111 0 q 92 33 92 19 l 92 688 q 101 713 92 703 q 125 722 111 722 l 239 722 q 264 713 254 722 q 274 688 274 703 l 274 631 q 474 722 343 722 l 532 722 q 556 713 547 722 q 565 689 565 704 l 565 588 q 556 564 565 574 q 532 554 547 554 l 422 554 q 319 517 357 554 q 282 414 282 479 l 282 33 q 272 10 282 19 q 249 0 263 0 l 125 0 m 254 826 q 232 849 232 826 q 239 867 232 860 l 353 1004 q 376 1025 365 1019 q 404 1031 386 1031 l 544 1031 q 564 1023 557 1031 q 571 1003 571 1015 q 564 986 571 993 l 390 844 q 367 831 378 835 q 342 826 357 826 l 254 826 z "},"ř":{"ha":582,"x_min":76,"x_max":565,"o":"m 125 0 q 101 10 111 0 q 92 33 92 19 l 92 688 q 101 713 92 703 q 125 722 111 722 l 239 722 q 264 713 254 722 q 274 688 274 703 l 274 631 q 474 722 343 722 l 532 722 q 556 713 547 722 q 565 689 565 704 l 565 588 q 556 564 565 574 q 532 554 547 554 l 422 554 q 319 517 357 554 q 282 414 282 479 l 282 33 q 272 10 282 19 q 249 0 263 0 l 125 0 m 271 826 q 247 831 257 826 q 224 849 238 835 l 89 989 q 76 1013 76 1000 q 97 1031 76 1031 l 149 1031 q 192 1021 174 1031 l 310 947 l 428 1021 q 471 1031 446 1031 l 524 1031 q 544 1013 544 1031 q 532 989 544 1000 l 396 849 q 373 831 383 835 q 349 826 363 826 l 271 826 z "},"ŗ":{"ha":582,"x_min":54,"x_max":565,"o":"m 125 0 q 101 10 111 0 q 92 33 92 19 l 92 688 q 101 713 92 703 q 125 722 111 722 l 239 722 q 264 713 254 722 q 274 688 274 703 l 274 631 q 474 722 343 722 l 532 722 q 556 713 547 722 q 565 689 565 704 l 565 588 q 556 564 565 574 q 532 554 547 554 l 422 554 q 319 517 357 554 q 282 414 282 479 l 282 33 q 272 10 282 19 q 249 0 263 0 l 125 0 m 78 -315 q 60 -306 67 -315 q 54 -285 53 -297 l 81 -114 q 94 -82 83 -94 q 125 -69 106 -69 l 243 -69 q 260 -77 253 -69 q 268 -96 268 -85 q 264 -114 268 -104 l 200 -279 q 182 -306 192 -296 q 154 -315 172 -315 l 78 -315 z "},"s":{"ha":740,"x_min":51,"x_max":690,"o":"m 367 -14 q 190 18 261 -14 q 85 92 119 50 q 51 165 51 135 q 60 188 51 179 q 82 196 69 196 l 196 196 q 215 185 207 196 q 247 158 222 179 q 302 126 271 138 q 371 114 333 114 q 461 135 426 114 q 496 197 496 157 q 480 242 496 225 q 423 274 464 260 q 300 307 382 289 q 126 383 182 332 q 69 519 69 435 q 103 624 69 575 q 202 705 136 674 q 360 736 268 736 q 522 706 454 736 q 626 635 590 676 q 661 561 661 593 q 652 540 661 549 q 631 531 643 531 l 526 531 q 503 542 511 531 q 472 567 493 549 q 424 597 450 586 q 360 608 397 608 q 281 586 308 608 q 253 528 253 564 q 266 486 253 503 q 319 455 279 469 q 440 425 360 440 q 690 207 690 376 q 605 47 690 108 q 367 -14 519 -14 z "},"ś":{"ha":740,"x_min":51,"x_max":690,"o":"m 367 -14 q 190 18 261 -14 q 85 92 119 50 q 51 165 51 135 q 60 188 51 179 q 82 196 69 196 l 196 196 q 215 185 207 196 q 247 158 222 179 q 302 126 271 138 q 371 114 333 114 q 461 135 426 114 q 496 197 496 157 q 480 242 496 225 q 423 274 464 260 q 300 307 382 289 q 126 383 182 332 q 69 519 69 435 q 103 624 69 575 q 202 705 136 674 q 360 736 268 736 q 522 706 454 736 q 626 635 590 676 q 661 561 661 593 q 652 540 661 549 q 631 531 643 531 l 526 531 q 503 542 511 531 q 472 567 493 549 q 424 597 450 586 q 360 608 397 608 q 281 586 308 608 q 253 528 253 564 q 266 486 253 503 q 319 455 279 469 q 440 425 360 440 q 690 207 690 376 q 605 47 690 108 q 367 -14 519 -14 m 294 826 q 272 849 272 826 q 279 867 272 860 l 393 1004 q 416 1025 406 1019 q 444 1031 426 1031 l 585 1031 q 604 1023 597 1031 q 611 1003 611 1015 q 604 986 611 993 l 431 844 q 408 831 418 835 q 382 826 397 826 l 294 826 z "},"š":{"ha":740,"x_min":51,"x_max":690,"o":"m 367 -14 q 190 18 261 -14 q 85 92 119 50 q 51 165 51 135 q 60 188 51 179 q 82 196 69 196 l 196 196 q 215 185 207 196 q 247 158 222 179 q 302 126 271 138 q 371 114 333 114 q 461 135 426 114 q 496 197 496 157 q 480 242 496 225 q 423 274 464 260 q 300 307 382 289 q 126 383 182 332 q 69 519 69 435 q 103 624 69 575 q 202 705 136 674 q 360 736 268 736 q 522 706 454 736 q 626 635 590 676 q 661 561 661 593 q 652 540 661 549 q 631 531 643 531 l 526 531 q 503 542 511 531 q 472 567 493 549 q 424 597 450 586 q 360 608 397 608 q 281 586 308 608 q 253 528 253 564 q 266 486 253 503 q 319 455 279 469 q 440 425 360 440 q 690 207 690 376 q 605 47 690 108 q 367 -14 519 -14 m 331 826 q 307 831 317 826 q 283 849 297 835 l 149 989 q 136 1013 136 1000 q 157 1031 136 1031 l 208 1031 q 251 1021 233 1031 l 369 947 l 488 1021 q 531 1031 506 1031 l 583 1031 q 604 1013 604 1031 q 592 989 604 1000 l 456 849 q 433 831 443 835 q 408 826 422 826 l 331 826 z "},"ş":{"ha":740,"x_min":50,"x_max":690,"o":"m 367 -306 q 283 -286 319 -306 q 247 -247 247 -267 q 253 -235 247 -240 l 276 -214 q 290 -207 283 -207 q 317 -219 296 -207 q 364 -231 338 -231 q 401 -217 386 -231 q 415 -183 415 -204 q 401 -151 415 -164 q 364 -139 386 -139 q 330 -145 350 -139 q 303 -151 310 -151 q 285 -143 293 -151 l 260 -117 q 254 -101 254 -110 q 263 -74 254 -90 l 290 -8 q 158 33 213 3 q 78 100 104 64 q 51 163 53 136 q 60 187 50 178 q 82 196 69 196 l 190 196 q 214 185 203 196 q 247 158 222 178 q 301 126 271 138 q 371 114 332 114 q 461 135 426 114 q 496 197 496 157 q 480 242 496 225 q 423 274 464 260 q 300 307 382 289 q 126 383 182 332 q 69 519 69 435 q 103 624 69 575 q 202 705 136 674 q 360 736 268 736 q 522 706 454 736 q 626 635 590 676 q 661 561 661 593 q 652 540 661 549 q 631 531 643 531 l 525 531 q 503 542 511 531 q 472 567 493 549 q 424 597 450 586 q 360 608 397 608 q 281 586 308 608 q 253 528 253 564 q 266 486 253 503 q 319 455 279 469 q 440 425 360 440 q 690 207 690 376 q 606 49 690 110 q 369 -14 522 -12 l 342 -74 q 389 -64 356 -64 q 467 -97 438 -64 q 497 -182 497 -129 q 463 -270 497 -235 q 367 -306 428 -306 z "},"ŝ":{"ha":740,"x_min":51,"x_max":690,"o":"m 367 -14 q 190 18 261 -14 q 85 92 119 50 q 51 165 51 135 q 60 188 51 179 q 82 196 69 196 l 196 196 q 215 185 207 196 q 247 158 222 179 q 302 126 271 138 q 371 114 333 114 q 461 135 426 114 q 496 197 496 157 q 480 242 496 225 q 423 274 464 260 q 300 307 382 289 q 126 383 182 332 q 69 519 69 435 q 103 624 69 575 q 202 705 136 674 q 360 736 268 736 q 522 706 454 736 q 626 635 590 676 q 661 561 661 593 q 652 540 661 549 q 631 531 643 531 l 526 531 q 503 542 511 531 q 472 567 493 549 q 424 597 450 586 q 360 608 397 608 q 281 586 308 608 q 253 528 253 564 q 266 486 253 503 q 319 455 279 469 q 440 425 360 440 q 690 207 690 376 q 605 47 690 108 q 367 -14 519 -14 m 157 826 q 136 844 136 826 q 149 868 136 856 l 283 1008 q 307 1026 297 1022 q 331 1031 317 1031 l 408 1031 q 433 1026 422 1031 q 456 1008 443 1022 l 592 868 q 604 844 604 856 q 583 826 604 826 l 531 826 q 488 836 506 826 l 369 910 l 251 836 q 208 826 233 826 l 157 826 z "},"ș":{"ha":740,"x_min":51,"x_max":690,"o":"m 367 -14 q 190 18 261 -14 q 85 92 119 50 q 51 165 51 135 q 60 188 51 179 q 82 196 69 196 l 196 196 q 215 185 207 196 q 247 158 222 179 q 302 126 271 138 q 371 114 333 114 q 461 135 426 114 q 496 197 496 157 q 480 242 496 225 q 423 274 464 260 q 300 307 382 289 q 126 383 182 332 q 69 519 69 435 q 103 624 69 575 q 202 705 136 674 q 360 736 268 736 q 522 706 454 736 q 626 635 590 676 q 661 561 661 593 q 652 540 661 549 q 631 531 643 531 l 526 531 q 503 542 511 531 q 472 567 493 549 q 424 597 450 586 q 360 608 397 608 q 281 586 308 608 q 253 528 253 564 q 266 486 253 503 q 319 455 279 469 q 440 425 360 440 q 690 207 690 376 q 605 47 690 108 q 367 -14 519 -14 m 269 -315 q 251 -306 258 -315 q 246 -285 244 -297 l 272 -114 q 286 -82 275 -94 q 317 -69 297 -69 l 435 -69 q 452 -77 444 -69 q 460 -96 460 -85 q 456 -114 460 -104 l 392 -279 q 374 -306 383 -296 q 346 -315 364 -315 l 269 -315 z "},"ß":{"ha":856,"x_min":93,"x_max":797,"o":"m 126 0 q 103 10 113 0 q 93 33 93 19 l 93 668 q 176 897 93 808 q 426 986 258 986 q 613 948 539 986 q 722 849 688 910 q 757 718 757 788 q 727 599 757 647 q 649 522 697 550 q 797 289 797 467 q 761 152 797 218 q 649 43 725 86 q 460 0 572 0 l 379 0 q 352 9 363 0 q 342 33 342 18 l 342 111 q 352 135 342 126 q 379 144 363 144 l 433 144 q 560 187 514 144 q 606 294 606 229 q 560 404 606 361 q 431 447 514 447 l 376 447 q 351 456 360 447 q 342 481 342 465 l 342 549 q 376 582 342 582 l 424 582 q 538 617 499 583 q 578 711 578 650 q 536 805 578 768 q 426 842 494 842 q 317 798 357 842 q 276 668 276 754 l 276 33 q 267 10 276 19 q 243 0 258 0 l 126 0 z "},"ſ":{"ha":444,"x_min":25,"x_max":572,"o":"m 204 0 q 181 10 190 0 q 171 33 171 19 l 171 574 l 58 574 q 35 583 44 574 q 25 607 25 593 l 25 689 q 35 713 25 704 q 58 722 44 722 l 171 722 l 171 774 q 238 965 171 903 q 443 1028 306 1028 l 539 1028 q 563 1019 554 1028 q 572 994 572 1010 l 572 913 q 563 889 572 899 q 539 879 553 879 l 450 879 q 372 852 392 879 q 353 771 353 825 l 353 33 q 343 10 353 19 q 318 0 333 0 l 204 0 z "},"t":{"ha":599,"x_min":22,"x_max":567,"o":"m 419 0 q 229 66 293 0 q 165 260 165 132 l 165 574 l 56 574 q 32 583 42 574 q 22 607 22 593 l 22 689 q 32 713 22 703 q 56 722 42 722 l 165 722 l 165 953 q 175 977 165 968 q 199 986 185 986 l 314 986 q 338 977 329 986 q 347 953 347 968 l 347 722 l 521 722 q 544 713 535 722 q 554 689 554 703 l 554 607 q 544 583 554 593 q 521 574 535 574 l 347 574 l 347 275 q 368 185 347 215 q 436 154 389 154 l 533 154 q 558 145 549 154 q 567 121 567 136 l 567 33 q 558 10 567 19 q 533 0 549 0 l 419 0 z "},"ŧ":{"ha":606,"x_min":28,"x_max":571,"o":"m 425 0 q 234 66 299 0 q 169 260 169 132 l 169 400 l 61 400 q 38 410 47 400 q 28 433 28 419 l 28 474 q 38 498 28 489 q 61 507 47 507 l 169 507 l 169 614 l 61 614 q 38 624 47 614 q 28 649 28 633 l 28 689 q 38 713 28 704 q 61 722 47 722 l 169 722 l 169 953 q 179 977 169 968 q 203 986 189 986 l 318 986 q 342 977 333 986 q 351 953 351 968 l 351 722 l 525 722 q 549 713 540 722 q 558 689 558 704 l 558 649 q 549 624 558 633 q 525 614 539 614 l 351 614 l 351 507 l 525 507 q 549 498 540 507 q 558 474 558 489 l 558 433 q 549 410 558 419 q 525 400 540 400 l 351 400 l 351 275 q 372 185 351 215 q 442 154 393 154 l 538 154 q 562 145 553 154 q 571 121 571 136 l 571 33 q 562 10 571 19 q 538 0 553 0 l 425 0 z "},"ť":{"ha":567,"x_min":22,"x_max":667,"o":"m 419 0 q 229 66 293 0 q 165 260 165 132 l 165 574 l 56 574 q 32 583 42 574 q 22 607 22 593 l 22 689 q 32 713 22 703 q 56 722 42 722 l 165 722 l 165 953 q 175 977 165 968 q 199 986 185 986 l 314 986 q 338 977 329 986 q 347 953 347 968 l 347 722 l 521 722 q 544 713 535 722 q 554 689 554 703 l 554 607 q 544 583 554 593 q 521 574 535 574 l 347 574 l 347 275 q 368 185 347 215 q 436 154 389 154 l 533 154 q 558 145 549 154 q 567 121 567 136 l 567 33 q 558 10 567 19 q 533 0 549 0 l 419 0 m 476 847 q 458 856 465 847 q 453 878 451 865 l 479 1049 q 493 1081 482 1068 q 524 1093 504 1093 l 642 1093 q 659 1085 651 1093 q 667 1067 667 1078 q 663 1049 667 1058 l 599 883 q 581 857 590 867 q 553 847 571 847 l 476 847 z "},"ț":{"ha":599,"x_min":22,"x_max":567,"o":"m 419 0 q 229 66 293 0 q 165 260 165 132 l 165 574 l 56 574 q 32 583 42 574 q 22 607 22 593 l 22 689 q 32 713 22 703 q 56 722 42 722 l 165 722 l 165 953 q 175 977 165 968 q 199 986 185 986 l 314 986 q 338 977 329 986 q 347 953 347 968 l 347 722 l 521 722 q 544 713 535 722 q 554 689 554 703 l 554 607 q 544 583 554 593 q 521 574 535 574 l 347 574 l 347 275 q 368 185 347 215 q 436 154 389 154 l 533 154 q 558 145 549 154 q 567 121 567 136 l 567 33 q 558 10 567 19 q 533 0 549 0 l 419 0 m 196 -315 q 178 -306 185 -315 q 172 -285 171 -297 l 199 -114 q 213 -82 201 -94 q 243 -69 224 -69 l 361 -69 q 378 -77 371 -69 q 386 -96 386 -85 q 382 -114 386 -104 l 318 -279 q 300 -306 310 -296 q 272 -315 290 -315 l 196 -315 z "},"u":{"ha":864,"x_min":85,"x_max":772,"o":"m 360 -14 q 158 69 232 -14 q 85 299 85 153 l 85 689 q 94 713 85 704 q 118 722 104 722 l 243 722 q 267 713 257 722 q 276 689 276 703 l 276 307 q 425 136 276 136 q 540 182 497 136 q 582 307 582 228 l 582 689 q 592 713 582 704 q 615 722 601 722 l 739 722 q 763 713 754 722 q 772 689 772 704 l 772 33 q 763 10 772 19 q 739 0 754 0 l 624 0 q 600 10 610 0 q 590 33 590 19 l 590 90 q 360 -14 514 -14 z "},"ú":{"ha":864,"x_min":85,"x_max":772,"o":"m 360 -14 q 158 69 232 -14 q 85 299 85 153 l 85 689 q 94 713 85 704 q 118 722 104 722 l 243 722 q 267 713 257 722 q 276 689 276 703 l 276 307 q 425 136 276 136 q 540 182 497 136 q 582 307 582 228 l 582 689 q 592 713 582 704 q 615 722 601 722 l 739 722 q 763 713 754 722 q 772 689 772 704 l 772 33 q 763 10 772 19 q 739 0 754 0 l 624 0 q 600 10 610 0 q 590 33 590 19 l 590 90 q 360 -14 514 -14 m 367 826 q 344 849 344 826 q 351 867 344 860 l 465 1004 q 488 1025 478 1019 q 517 1031 499 1031 l 657 1031 q 676 1023 669 1031 q 683 1003 683 1015 q 676 986 683 993 l 503 844 q 480 831 490 835 q 454 826 469 826 l 367 826 z "},"ŭ":{"ha":864,"x_min":85,"x_max":772,"o":"m 360 -14 q 158 69 232 -14 q 85 299 85 153 l 85 689 q 94 713 85 704 q 118 722 104 722 l 243 722 q 267 713 257 722 q 276 689 276 703 l 276 307 q 425 136 276 136 q 540 182 497 136 q 582 307 582 228 l 582 689 q 592 713 582 704 q 615 722 601 722 l 739 722 q 763 713 754 722 q 772 689 772 704 l 772 33 q 763 10 772 19 q 739 0 754 0 l 624 0 q 600 10 610 0 q 590 33 590 19 l 590 90 q 360 -14 514 -14 m 428 819 q 287 872 333 819 q 240 1004 240 924 q 247 1023 240 1015 q 267 1031 254 1031 l 333 1031 q 353 1023 346 1031 q 360 1004 360 1015 q 428 918 360 918 q 497 1004 497 918 q 504 1023 497 1015 q 524 1031 511 1031 l 590 1031 q 610 1023 603 1031 q 617 1004 617 1015 q 570 872 617 924 q 428 819 524 819 z "},"û":{"ha":864,"x_min":85,"x_max":772,"o":"m 360 -14 q 158 69 232 -14 q 85 299 85 153 l 85 689 q 94 713 85 704 q 118 722 104 722 l 243 722 q 267 713 257 722 q 276 689 276 703 l 276 307 q 425 136 276 136 q 540 182 497 136 q 582 307 582 228 l 582 689 q 592 713 582 704 q 615 722 601 722 l 739 722 q 763 713 754 722 q 772 689 772 704 l 772 33 q 763 10 772 19 q 739 0 754 0 l 624 0 q 600 10 610 0 q 590 33 590 19 l 590 90 q 360 -14 514 -14 m 215 826 q 194 844 194 826 q 207 868 194 856 l 342 1008 q 365 1026 356 1022 q 389 1031 375 1031 l 467 1031 q 491 1026 481 1031 q 514 1008 501 1022 l 650 868 q 663 844 663 856 q 642 826 663 826 l 589 826 q 546 836 564 826 l 428 910 l 310 836 q 267 826 292 826 l 215 826 z "},"ü":{"ha":864,"x_min":85,"x_max":772,"o":"m 360 -14 q 158 69 232 -14 q 85 299 85 153 l 85 689 q 94 713 85 704 q 118 722 104 722 l 243 722 q 267 713 257 722 q 276 689 276 703 l 276 307 q 425 136 276 136 q 540 182 497 136 q 582 307 582 228 l 582 689 q 592 713 582 704 q 615 722 601 722 l 739 722 q 763 713 754 722 q 772 689 772 704 l 772 33 q 763 10 772 19 q 739 0 754 0 l 624 0 q 600 10 610 0 q 590 33 590 19 l 590 90 q 360 -14 514 -14 m 246 853 q 224 861 232 853 q 215 883 215 869 l 215 986 q 224 1009 215 1000 q 246 1018 232 1018 l 349 1018 q 372 1009 363 1018 q 381 986 381 1000 l 381 883 q 372 861 381 869 q 349 853 363 853 l 246 853 m 508 853 q 486 861 494 853 q 478 883 478 869 l 478 986 q 486 1009 478 1000 q 508 1018 494 1018 l 611 1018 q 634 1009 625 1018 q 643 986 643 1000 l 643 883 q 634 861 643 869 q 611 853 625 853 l 508 853 z "},"ù":{"ha":864,"x_min":85,"x_max":772,"o":"m 360 -14 q 158 69 232 -14 q 85 299 85 153 l 85 689 q 94 713 85 704 q 118 722 104 722 l 243 722 q 267 713 257 722 q 276 689 276 703 l 276 307 q 425 136 276 136 q 540 182 497 136 q 582 307 582 228 l 582 689 q 592 713 582 704 q 615 722 601 722 l 739 722 q 763 713 754 722 q 772 689 772 704 l 772 33 q 763 10 772 19 q 739 0 754 0 l 624 0 q 600 10 610 0 q 590 33 590 19 l 590 90 q 360 -14 514 -14 m 401 826 q 376 831 386 826 q 353 844 365 835 l 179 986 q 172 1003 172 993 q 179 1023 172 1015 q 199 1031 186 1031 l 339 1031 q 367 1025 357 1031 q 390 1004 378 1019 l 504 867 q 511 849 511 860 q 489 826 511 826 l 401 826 z "},"ű":{"ha":864,"x_min":85,"x_max":772,"o":"m 360 -14 q 158 69 232 -14 q 85 299 85 153 l 85 689 q 94 713 85 704 q 118 722 104 722 l 243 722 q 267 713 257 722 q 276 689 276 703 l 276 307 q 425 136 276 136 q 540 182 497 136 q 582 307 582 228 l 582 689 q 592 713 582 704 q 615 722 601 722 l 739 722 q 763 713 754 722 q 772 689 772 704 l 772 33 q 763 10 772 19 q 739 0 754 0 l 624 0 q 600 10 610 0 q 590 33 590 19 l 590 90 q 360 -14 514 -14 m 240 826 q 218 849 218 826 q 225 869 218 856 l 285 1004 q 303 1024 292 1018 q 336 1031 315 1031 l 450 1031 q 470 1024 463 1031 q 478 1004 478 1017 q 469 986 478 994 l 346 846 q 301 826 329 826 l 240 826 m 504 826 q 482 849 482 826 q 489 869 482 856 l 549 1004 q 567 1024 556 1018 q 600 1031 579 1031 l 714 1031 q 734 1024 726 1031 q 742 1004 742 1017 q 733 986 742 994 l 610 846 q 565 826 593 826 l 504 826 z "},"ū":{"ha":864,"x_min":85,"x_max":772,"o":"m 360 -14 q 158 69 232 -14 q 85 299 85 153 l 85 689 q 94 713 85 704 q 118 722 104 722 l 243 722 q 267 713 257 722 q 276 689 276 703 l 276 307 q 425 136 276 136 q 540 182 497 136 q 582 307 582 228 l 582 689 q 592 713 582 704 q 615 722 601 722 l 739 722 q 763 713 754 722 q 772 689 772 704 l 772 33 q 763 10 772 19 q 739 0 754 0 l 624 0 q 600 10 610 0 q 590 33 590 19 l 590 90 q 360 -14 514 -14 m 254 849 q 232 857 240 849 q 224 879 224 865 l 224 951 q 232 974 224 965 q 254 982 240 982 l 604 982 q 627 974 618 982 q 636 951 636 965 l 636 879 q 627 857 636 865 q 604 849 618 849 l 254 849 z "},"ų":{"ha":864,"x_min":85,"x_max":772,"o":"m 724 -306 q 584 -250 635 -306 q 533 -101 533 -194 q 554 -26 533 -60 q 603 28 575 7 q 590 50 590 35 l 590 90 q 360 -14 514 -14 q 158 69 232 -14 q 85 299 85 153 l 85 689 q 94 713 85 704 q 118 722 104 722 l 243 722 q 267 713 257 722 q 276 689 276 703 l 276 307 q 425 136 276 136 q 540 182 497 136 q 582 307 582 228 l 582 689 q 592 713 582 704 q 615 722 601 722 l 739 722 q 763 713 754 722 q 772 689 772 704 l 772 33 q 765 12 772 21 q 744 0 757 3 l 732 -1 q 654 -101 654 -25 q 674 -165 654 -142 q 729 -189 693 -189 l 739 -189 q 763 -199 754 -189 q 772 -222 772 -208 l 772 -272 q 763 -297 772 -287 q 739 -306 754 -306 l 724 -306 z "},"ů":{"ha":864,"x_min":85,"x_max":772,"o":"m 360 -14 q 158 69 232 -14 q 85 299 85 153 l 85 689 q 94 713 85 704 q 118 722 104 722 l 243 722 q 267 713 257 722 q 276 689 276 703 l 276 307 q 425 136 276 136 q 540 182 497 136 q 582 307 582 228 l 582 689 q 592 713 582 704 q 615 722 601 722 l 739 722 q 763 713 754 722 q 772 689 772 704 l 772 33 q 763 10 772 19 q 739 0 754 0 l 624 0 q 600 10 610 0 q 590 33 590 19 l 590 90 q 360 -14 514 -14 m 428 819 q 341 852 376 819 q 306 935 306 885 q 341 1018 306 985 q 428 1051 376 1051 q 515 1018 479 1051 q 550 935 550 985 q 515 852 550 885 q 428 819 479 819 m 428 893 q 458 905 446 893 q 469 935 469 917 q 458 965 469 953 q 428 976 446 976 q 398 965 410 976 q 386 935 386 953 q 398 905 386 917 q 428 893 410 893 z "},"ũ":{"ha":864,"x_min":85,"x_max":772,"o":"m 360 -14 q 158 69 232 -14 q 85 299 85 153 l 85 689 q 94 713 85 704 q 118 722 104 722 l 243 722 q 267 713 257 722 q 276 689 276 703 l 276 307 q 425 136 276 136 q 540 182 497 136 q 582 307 582 228 l 582 689 q 592 713 582 704 q 615 722 601 722 l 739 722 q 763 713 754 722 q 772 689 772 704 l 772 33 q 763 10 772 19 q 739 0 754 0 l 624 0 q 600 10 610 0 q 590 33 590 19 l 590 90 q 360 -14 514 -14 m 507 819 q 463 826 481 819 q 419 847 444 833 q 390 863 401 858 q 365 868 379 868 q 346 863 353 868 q 331 846 339 857 q 304 826 319 826 l 239 826 q 222 833 229 826 q 215 850 215 840 q 230 917 215 882 q 275 976 244 951 q 351 1000 306 1000 q 396 993 378 1000 q 439 972 414 986 q 468 956 457 961 q 493 951 479 951 q 513 957 506 951 q 528 974 521 963 q 540 988 535 983 q 556 993 546 993 l 619 993 q 638 986 631 993 q 644 969 644 979 q 629 903 644 938 q 583 844 614 868 q 507 819 551 819 z "},"v":{"ha":799,"x_min":35,"x_max":764,"o":"m 347 0 q 315 9 326 0 q 297 35 304 18 l 36 679 q 35 692 35 683 q 44 713 35 704 q 64 722 53 722 l 179 722 q 217 696 207 722 l 400 211 l 583 696 q 595 714 586 706 q 619 722 604 722 l 735 722 q 756 713 747 722 q 764 692 764 704 q 763 679 764 683 l 503 35 q 453 0 488 0 l 347 0 z "},"w":{"ha":1140,"x_min":43,"x_max":1097,"o":"m 289 0 q 243 35 254 0 l 44 679 q 43 692 43 683 q 51 713 43 704 q 72 722 60 722 l 178 722 q 202 714 192 722 q 215 696 213 706 l 350 239 l 493 692 q 508 713 497 704 q 535 722 518 722 l 606 722 q 633 713 622 722 q 646 692 643 704 l 790 239 l 925 696 q 938 714 928 706 q 963 722 947 722 l 1067 722 q 1088 713 1079 722 q 1097 692 1097 704 l 1094 679 l 896 35 q 880 9 890 18 q 851 0 869 0 l 760 0 q 714 35 724 0 l 571 471 l 426 35 q 379 0 415 0 l 289 0 z "},"ẃ":{"ha":1140,"x_min":43,"x_max":1097,"o":"m 289 0 q 243 35 254 0 l 44 679 q 43 692 43 683 q 51 713 43 704 q 72 722 60 722 l 178 722 q 202 714 192 722 q 215 696 213 706 l 350 239 l 493 692 q 508 713 497 704 q 535 722 518 722 l 606 722 q 633 713 622 722 q 646 692 643 704 l 790 239 l 925 696 q 938 714 928 706 q 963 722 947 722 l 1067 722 q 1088 713 1079 722 q 1097 692 1097 704 l 1094 679 l 896 35 q 880 9 890 18 q 851 0 869 0 l 760 0 q 714 35 724 0 l 571 471 l 426 35 q 379 0 415 0 l 289 0 m 514 826 q 492 849 492 826 q 499 867 492 860 l 613 1004 q 635 1025 625 1019 q 664 1031 646 1031 l 804 1031 q 824 1023 817 1031 q 831 1003 831 1015 q 824 986 831 993 l 650 844 q 627 831 638 835 q 601 826 617 826 l 514 826 z "},"ŵ":{"ha":1140,"x_min":43,"x_max":1097,"o":"m 289 0 q 243 35 254 0 l 44 679 q 43 692 43 683 q 51 713 43 704 q 72 722 60 722 l 178 722 q 202 714 192 722 q 215 696 213 706 l 350 239 l 493 692 q 508 713 497 704 q 535 722 518 722 l 606 722 q 633 713 622 722 q 646 692 643 704 l 790 239 l 925 696 q 938 714 928 706 q 963 722 947 722 l 1067 722 q 1088 713 1079 722 q 1097 692 1097 704 l 1094 679 l 896 35 q 880 9 890 18 q 851 0 869 0 l 760 0 q 714 35 724 0 l 571 471 l 426 35 q 379 0 415 0 l 289 0 m 357 826 q 336 844 336 826 q 349 868 336 856 l 483 1008 q 507 1026 497 1022 q 531 1031 517 1031 l 608 1031 q 633 1026 622 1031 q 656 1008 643 1022 l 792 868 q 804 844 804 856 q 783 826 804 826 l 731 826 q 688 836 706 826 l 569 910 l 451 836 q 408 826 433 826 l 357 826 z "},"ẅ":{"ha":1140,"x_min":43,"x_max":1097,"o":"m 289 0 q 243 35 254 0 l 44 679 q 43 692 43 683 q 51 713 43 704 q 72 722 60 722 l 178 722 q 202 714 192 722 q 215 696 213 706 l 350 239 l 493 692 q 508 713 497 704 q 535 722 518 722 l 606 722 q 633 713 622 722 q 646 692 643 704 l 790 239 l 925 696 q 938 714 928 706 q 963 722 947 722 l 1067 722 q 1088 713 1079 722 q 1097 692 1097 704 l 1094 679 l 896 35 q 880 9 890 18 q 851 0 869 0 l 760 0 q 714 35 724 0 l 571 471 l 426 35 q 379 0 415 0 l 289 0 m 388 853 q 365 861 374 853 q 357 883 357 869 l 357 986 q 365 1009 357 1000 q 388 1018 374 1018 l 490 1018 q 513 1009 504 1018 q 522 986 522 1000 l 522 883 q 513 861 522 869 q 490 853 504 853 l 388 853 m 650 853 q 628 861 636 853 q 619 883 619 869 l 619 986 q 628 1009 619 1000 q 650 1018 636 1018 l 753 1018 q 776 1009 767 1018 q 785 986 785 1000 l 785 883 q 776 861 785 869 q 753 853 767 853 l 650 853 z "},"ẁ":{"ha":1140,"x_min":43,"x_max":1097,"o":"m 289 0 q 243 35 254 0 l 44 679 q 43 692 43 683 q 51 713 43 704 q 72 722 60 722 l 178 722 q 202 714 192 722 q 215 696 213 706 l 350 239 l 493 692 q 508 713 497 704 q 535 722 518 722 l 606 722 q 633 713 622 722 q 646 692 643 704 l 790 239 l 925 696 q 938 714 928 706 q 963 722 947 722 l 1067 722 q 1088 713 1079 722 q 1097 692 1097 704 l 1094 679 l 896 35 q 880 9 890 18 q 851 0 869 0 l 760 0 q 714 35 724 0 l 571 471 l 426 35 q 379 0 415 0 l 289 0 m 543 826 q 517 831 528 826 q 494 844 507 835 l 321 986 q 314 1003 314 993 q 321 1023 314 1015 q 340 1031 328 1031 l 481 1031 q 509 1025 499 1031 q 532 1004 519 1019 l 646 867 q 653 849 653 860 q 631 826 653 826 l 543 826 z "},"x":{"ha":785,"x_min":31,"x_max":753,"o":"m 61 0 q 40 9 49 0 q 31 31 31 18 q 39 54 31 43 l 276 371 l 57 668 q 49 692 49 679 q 58 713 49 704 q 79 722 67 722 l 201 722 q 224 716 217 722 q 240 699 232 710 l 396 492 l 550 699 q 560 711 551 700 q 589 722 569 722 l 707 722 q 728 713 719 722 q 736 693 736 704 q 728 668 736 679 l 506 369 l 744 54 q 753 31 753 43 q 744 9 753 18 q 722 0 735 0 l 594 0 q 557 22 572 0 l 390 242 l 222 22 q 185 0 207 0 l 61 0 z "},"y":{"ha":799,"x_min":36,"x_max":771,"o":"m 222 -264 q 202 -256 211 -264 q 193 -236 193 -247 q 199 -214 193 -226 l 308 43 l 42 672 q 36 692 36 685 q 46 713 38 704 q 67 722 54 722 l 182 722 q 218 696 207 722 l 403 243 l 590 696 q 629 722 604 722 l 742 722 q 763 714 754 722 q 771 694 771 706 q 765 672 771 685 l 372 -237 q 333 -264 361 -264 l 222 -264 z "},"ý":{"ha":799,"x_min":36,"x_max":771,"o":"m 222 -264 q 202 -256 211 -264 q 193 -236 193 -247 q 199 -214 193 -226 l 308 43 l 42 672 q 36 692 36 685 q 46 713 38 704 q 67 722 54 722 l 182 722 q 218 696 207 722 l 403 243 l 590 696 q 629 722 604 722 l 742 722 q 763 714 754 722 q 771 694 771 706 q 765 672 771 685 l 372 -237 q 333 -264 361 -264 l 222 -264 m 343 826 q 321 849 321 826 q 328 867 321 860 l 442 1004 q 465 1025 454 1019 q 493 1031 475 1031 l 633 1031 q 653 1023 646 1031 q 660 1003 660 1015 q 653 986 660 993 l 479 844 q 456 831 467 835 q 431 826 446 826 l 343 826 z "},"ŷ":{"ha":799,"x_min":36,"x_max":771,"o":"m 222 -264 q 202 -256 211 -264 q 193 -236 193 -247 q 199 -214 193 -226 l 308 43 l 42 672 q 36 692 36 685 q 46 713 38 704 q 67 722 54 722 l 182 722 q 218 696 207 722 l 403 243 l 590 696 q 629 722 604 722 l 742 722 q 763 714 754 722 q 771 694 771 706 q 765 672 771 685 l 372 -237 q 333 -264 361 -264 l 222 -264 m 189 826 q 168 844 168 826 q 181 868 168 856 l 315 1008 q 339 1026 329 1022 q 363 1031 349 1031 l 440 1031 q 465 1026 454 1031 q 488 1008 475 1022 l 624 868 q 636 844 636 856 q 615 826 636 826 l 563 826 q 519 836 538 826 l 401 910 l 283 836 q 240 826 265 826 l 189 826 z "},"ÿ":{"ha":799,"x_min":36,"x_max":771,"o":"m 222 -264 q 202 -256 211 -264 q 193 -236 193 -247 q 199 -214 193 -226 l 308 43 l 42 672 q 36 692 36 685 q 46 713 38 704 q 67 722 54 722 l 182 722 q 218 696 207 722 l 403 243 l 590 696 q 629 722 604 722 l 742 722 q 763 714 754 722 q 771 694 771 706 q 765 672 771 685 l 372 -237 q 333 -264 361 -264 l 222 -264 m 219 853 q 197 861 206 853 q 189 883 189 869 l 189 986 q 197 1009 189 1000 q 219 1018 206 1018 l 322 1018 q 345 1009 336 1018 q 354 986 354 1000 l 354 883 q 345 861 354 869 q 322 853 336 853 l 219 853 m 482 853 q 460 861 468 853 q 451 883 451 869 l 451 986 q 460 1009 451 1000 q 482 1018 468 1018 l 585 1018 q 608 1009 599 1018 q 617 986 617 1000 l 617 883 q 608 861 617 869 q 585 853 599 853 l 482 853 z "},"ỳ":{"ha":799,"x_min":36,"x_max":771,"o":"m 222 -264 q 202 -256 211 -264 q 193 -236 193 -247 q 199 -214 193 -226 l 308 43 l 42 672 q 36 692 36 685 q 46 713 38 704 q 67 722 54 722 l 182 722 q 218 696 207 722 l 403 243 l 590 696 q 629 722 604 722 l 742 722 q 763 714 754 722 q 771 694 771 706 q 765 672 771 685 l 372 -237 q 333 -264 361 -264 l 222 -264 m 376 826 q 351 831 361 826 q 328 844 340 835 l 154 986 q 147 1003 147 993 q 154 1023 147 1015 q 174 1031 161 1031 l 314 1031 q 342 1025 332 1031 q 365 1004 353 1019 l 479 867 q 486 849 486 860 q 464 826 486 826 l 376 826 z "},"z":{"ha":739,"x_min":56,"x_max":690,"o":"m 89 0 q 65 10 75 0 q 56 33 56 19 l 56 114 q 60 136 56 126 q 75 160 65 146 l 429 575 l 100 575 q 76 585 86 575 q 67 610 67 596 l 67 689 q 76 713 67 703 q 100 722 86 722 l 629 722 q 653 713 643 722 q 663 689 663 703 l 663 603 q 656 581 663 592 q 643 560 650 569 l 296 147 l 657 147 q 681 138 671 147 q 690 113 690 128 l 690 33 q 681 10 690 19 q 657 0 672 0 l 89 0 z "},"ź":{"ha":739,"x_min":56,"x_max":690,"o":"m 89 0 q 65 10 75 0 q 56 33 56 19 l 56 114 q 60 136 56 126 q 75 160 65 146 l 429 575 l 100 575 q 76 585 86 575 q 67 610 67 596 l 67 689 q 76 713 67 703 q 100 722 86 722 l 629 722 q 653 713 643 722 q 663 689 663 703 l 663 603 q 656 581 663 592 q 643 560 650 569 l 296 147 l 657 147 q 681 138 671 147 q 690 113 690 128 l 690 33 q 681 10 690 19 q 657 0 672 0 l 89 0 m 313 826 q 290 849 290 826 q 297 867 290 860 l 411 1004 q 434 1025 424 1019 q 463 1031 444 1031 l 603 1031 q 622 1023 615 1031 q 629 1003 629 1015 q 622 986 629 993 l 449 844 q 426 831 436 835 q 400 826 415 826 l 313 826 z "},"ž":{"ha":739,"x_min":56,"x_max":690,"o":"m 89 0 q 65 10 75 0 q 56 33 56 19 l 56 114 q 60 136 56 126 q 75 160 65 146 l 429 575 l 100 575 q 76 585 86 575 q 67 610 67 596 l 67 689 q 76 713 67 703 q 100 722 86 722 l 629 722 q 653 713 643 722 q 663 689 663 703 l 663 603 q 656 581 663 592 q 643 560 650 569 l 296 147 l 657 147 q 681 138 671 147 q 690 113 690 128 l 690 33 q 681 10 690 19 q 657 0 672 0 l 89 0 m 333 826 q 310 831 319 826 q 286 849 300 835 l 151 989 q 139 1013 139 1000 q 160 1031 139 1031 l 211 1031 q 254 1021 236 1031 l 372 947 l 490 1021 q 533 1031 508 1031 l 586 1031 q 607 1013 607 1031 q 594 989 607 1000 l 458 849 q 435 831 446 835 q 411 826 425 826 l 333 826 z "},"ż":{"ha":739,"x_min":56,"x_max":690,"o":"m 89 0 q 65 10 75 0 q 56 33 56 19 l 56 114 q 60 136 56 126 q 75 160 65 146 l 429 575 l 100 575 q 76 585 86 575 q 67 610 67 596 l 67 689 q 76 713 67 703 q 100 722 86 722 l 629 722 q 653 713 643 722 q 663 689 663 703 l 663 603 q 656 581 663 592 q 643 560 650 569 l 296 147 l 657 147 q 681 138 671 147 q 690 113 690 128 l 690 33 q 681 10 690 19 q 657 0 672 0 l 89 0 m 315 844 q 293 853 301 844 q 285 875 285 861 l 285 990 q 293 1013 285 1004 q 315 1022 301 1022 l 431 1022 q 453 1013 444 1022 q 463 990 463 1004 l 463 875 q 453 853 463 861 q 431 844 444 844 l 315 844 z "},"ﬁ":{"ha":856,"x_min":24,"x_max":764,"o":"m 203 0 q 179 10 189 0 q 169 33 169 19 l 169 574 l 57 574 q 33 583 43 574 q 24 607 24 593 l 24 689 q 33 713 24 703 q 57 722 43 722 l 169 722 l 169 778 q 238 966 169 904 q 443 1028 306 1028 l 731 1028 q 755 1019 746 1028 q 764 994 764 1010 l 764 913 q 754 889 764 899 q 731 879 744 879 l 450 879 q 374 853 396 879 q 351 771 351 826 l 351 722 l 731 722 q 755 713 746 722 q 764 689 764 704 l 764 33 q 755 10 764 19 q 731 0 746 0 l 615 0 q 592 10 601 0 q 582 33 582 19 l 582 574 l 351 574 l 351 33 q 342 10 351 19 q 318 0 333 0 l 203 0 z "},"ﬂ":{"ha":911,"x_min":24,"x_max":818,"o":"m 203 0 q 179 10 189 0 q 169 33 169 19 l 169 574 l 57 574 q 33 583 43 574 q 24 607 24 593 l 24 689 q 33 713 24 703 q 57 722 43 722 l 169 722 l 169 778 q 238 966 169 904 q 443 1028 306 1028 l 526 1028 q 551 1019 542 1028 q 560 994 560 1010 l 560 913 q 550 889 560 899 q 526 879 540 879 l 450 879 q 374 853 396 879 q 351 771 351 826 l 351 722 l 636 722 l 636 994 q 646 1018 636 1008 q 669 1028 656 1028 l 785 1028 q 809 1019 800 1028 q 818 994 818 1010 l 818 33 q 809 10 818 19 q 785 0 800 0 l 669 0 q 646 10 656 0 q 636 33 636 19 l 636 574 l 351 574 l 351 33 q 342 10 351 19 q 318 0 333 0 l 203 0 z "},"ª":{"ha":500,"x_min":60,"x_max":419,"o":"m 193 596 q 97 626 133 596 q 60 704 60 657 q 101 790 60 757 q 217 833 143 822 l 299 846 q 290 878 299 865 q 249 890 281 890 q 201 875 222 890 q 190 869 197 874 q 172 865 182 865 l 108 865 q 92 870 99 865 q 85 883 85 875 q 105 923 85 900 q 163 963 125 946 q 253 979 201 979 q 376 939 332 979 q 419 828 419 899 l 419 629 q 412 610 419 618 q 393 603 404 603 l 328 603 q 309 610 317 603 q 301 629 301 618 l 301 643 q 258 609 289 622 q 193 596 228 596 m 221 683 q 280 706 261 683 q 299 768 299 729 l 244 758 q 191 740 206 751 q 176 711 176 728 q 189 691 176 699 q 221 683 201 683 z "},"º":{"ha":494,"x_min":63,"x_max":433,"o":"m 249 596 q 115 635 163 596 q 64 750 68 674 l 63 788 l 64 825 q 118 940 68 900 q 249 979 168 979 q 378 940 329 979 q 432 825 428 900 q 433 788 433 818 q 432 750 433 757 q 381 635 428 675 q 249 596 333 596 m 249 690 q 292 706 278 690 q 308 757 307 722 q 311 788 311 771 q 308 818 311 804 q 249 885 306 885 q 188 818 190 885 l 186 788 l 188 757 q 203 706 189 722 q 249 690 218 690 z "},"А":{"ha":964,"x_min":19,"x_max":944,"o":"m 49 0 q 28 8 36 0 q 19 29 19 17 l 22 42 l 356 938 q 406 972 369 972 l 558 972 q 608 938 594 972 l 942 42 l 944 29 q 935 8 944 17 q 915 0 926 0 l 792 0 q 751 26 763 0 l 688 194 l 276 194 l 213 26 q 172 0 201 0 l 49 0 m 325 356 l 639 356 l 482 783 l 325 356 z "},"Б":{"ha":901,"x_min":108,"x_max":872,"o":"m 142 0 q 118 10 128 0 q 108 33 108 19 l 108 938 q 117 963 108 953 q 142 972 126 972 l 778 972 q 803 963 793 972 q 813 938 813 953 l 813 839 q 803 815 813 824 q 778 806 793 806 l 304 806 l 304 585 l 536 585 q 783 507 693 585 q 872 296 872 429 q 833 149 872 217 q 719 41 794 82 q 536 0 643 0 l 142 0 m 517 149 q 629 192 588 149 q 671 299 671 235 q 631 401 671 361 q 517 440 592 440 l 304 440 l 304 149 l 517 149 z "},"В":{"ha":954,"x_min":108,"x_max":889,"o":"m 142 0 q 118 10 128 0 q 108 33 108 19 l 108 938 q 117 963 108 953 q 142 972 126 972 l 544 972 q 788 901 707 972 q 868 706 868 829 q 833 583 868 633 q 750 510 797 532 q 849 424 808 483 q 889 288 889 364 q 801 79 889 158 q 557 0 714 0 l 142 0 m 519 574 q 628 608 590 574 q 667 701 667 643 q 629 792 667 760 q 519 824 592 824 l 304 824 l 304 574 l 519 574 m 533 149 q 646 188 606 149 q 686 289 686 228 q 645 390 686 350 q 533 429 604 429 l 304 429 l 304 149 l 533 149 z "},"Г":{"ha":756,"x_min":108,"x_max":744,"o":"m 142 0 q 118 10 128 0 q 108 33 108 19 l 108 938 q 117 963 108 953 q 142 972 126 972 l 710 972 q 735 963 725 972 q 744 938 744 953 l 744 839 q 735 815 744 824 q 710 806 725 806 l 304 806 l 304 33 q 294 10 304 19 q 269 0 285 0 l 142 0 z "},"Ѓ":{"ha":756,"x_min":108,"x_max":744,"o":"m 142 0 q 118 10 128 0 q 108 33 108 19 l 108 938 q 117 963 108 953 q 142 972 126 972 l 710 972 q 735 963 725 972 q 744 938 744 953 l 744 839 q 735 815 744 824 q 710 806 725 806 l 304 806 l 304 33 q 294 10 304 19 q 269 0 285 0 l 142 0 m 394 1042 q 372 1064 372 1042 q 379 1082 372 1075 l 493 1219 q 516 1240 506 1235 q 544 1246 526 1246 l 694 1246 q 714 1238 707 1246 q 721 1218 721 1231 q 714 1201 721 1208 l 540 1060 q 517 1046 528 1050 q 492 1042 507 1042 l 394 1042 z "},"Ґ":{"ha":756,"x_min":108,"x_max":744,"o":"m 710 1167 q 735 1158 725 1167 q 744 1133 744 1149 l 744 839 q 735 815 744 824 q 710 806 725 806 l 304 806 l 304 33 q 294 10 304 19 q 269 0 285 0 l 142 0 q 118 10 128 0 q 108 33 108 19 l 108 938 q 117 963 108 953 q 142 972 126 972 l 549 972 l 549 1133 q 558 1158 549 1149 q 582 1167 568 1167 l 710 1167 z "},"Д":{"ha":1036,"x_min":36,"x_max":992,"o":"m 69 -193 q 46 -184 56 -193 q 36 -160 36 -175 l 36 143 q 46 167 36 157 q 69 176 56 176 l 97 176 q 192 296 163 176 q 222 649 222 415 l 222 939 q 232 963 222 953 q 256 972 242 972 l 856 972 q 881 963 871 972 q 890 938 890 953 l 890 176 l 957 176 q 981 167 971 176 q 992 143 992 157 l 992 -160 q 982 -183 992 -174 q 957 -193 972 -193 l 829 -193 q 806 -184 815 -193 q 796 -160 796 -175 l 796 0 l 232 0 l 232 -160 q 223 -184 232 -175 q 199 -193 214 -193 l 69 -193 m 694 176 l 694 796 l 413 796 l 413 624 q 336 176 413 297 l 694 176 z "},"Е":{"ha":865,"x_min":108,"x_max":800,"o":"m 142 0 q 118 10 128 0 q 108 33 108 19 l 108 938 q 117 963 108 953 q 142 972 126 972 l 754 972 q 779 963 769 972 q 789 938 789 953 l 789 844 q 779 820 789 829 q 754 811 769 811 l 299 811 l 299 568 l 724 568 q 749 558 739 568 q 758 533 758 549 l 758 446 q 749 422 758 431 q 724 413 739 413 l 299 413 l 299 161 l 765 161 q 790 152 781 161 q 800 128 800 143 l 800 33 q 790 9 800 18 q 765 0 781 0 l 142 0 z "},"Ѐ":{"ha":865,"x_min":108,"x_max":800,"o":"m 142 0 q 118 10 128 0 q 108 33 108 19 l 108 938 q 117 963 108 953 q 142 972 126 972 l 754 972 q 779 963 769 972 q 789 938 789 953 l 789 844 q 779 820 789 829 q 754 811 769 811 l 299 811 l 299 568 l 724 568 q 749 558 739 568 q 758 533 758 549 l 758 446 q 749 422 758 431 q 724 413 739 413 l 299 413 l 299 161 l 765 161 q 790 152 781 161 q 800 128 800 143 l 800 33 q 790 9 800 18 q 765 0 781 0 l 142 0 m 433 1042 q 408 1046 418 1042 q 385 1060 397 1050 l 211 1201 q 204 1218 204 1208 q 211 1238 204 1231 q 231 1246 218 1246 l 382 1246 q 410 1240 400 1246 q 433 1219 419 1235 l 546 1082 q 553 1064 553 1075 q 531 1042 553 1042 l 433 1042 z "},"Ё":{"ha":865,"x_min":108,"x_max":800,"o":"m 142 0 q 118 10 128 0 q 108 33 108 19 l 108 938 q 117 963 108 953 q 142 972 126 972 l 754 972 q 779 963 769 972 q 789 938 789 953 l 789 844 q 779 820 789 829 q 754 811 769 811 l 299 811 l 299 568 l 724 568 q 749 558 739 568 q 758 533 758 549 l 758 446 q 749 422 758 431 q 724 413 739 413 l 299 413 l 299 161 l 765 161 q 790 152 781 161 q 800 128 800 143 l 800 33 q 790 9 800 18 q 765 0 781 0 l 142 0 m 278 1103 q 256 1111 264 1103 q 247 1133 247 1119 l 247 1236 q 256 1259 247 1250 q 278 1268 264 1268 l 381 1268 q 403 1259 394 1268 q 413 1236 413 1250 l 413 1133 q 403 1111 413 1119 q 381 1103 394 1103 l 278 1103 m 540 1103 q 518 1111 526 1103 q 510 1133 510 1119 l 510 1236 q 518 1259 510 1250 q 540 1268 526 1268 l 643 1268 q 666 1259 657 1268 q 675 1236 675 1250 l 675 1133 q 666 1111 675 1119 q 643 1103 657 1103 l 540 1103 z "},"Ж":{"ha":1433,"x_min":42,"x_max":1390,"o":"m 1388 47 q 1390 32 1390 43 q 1381 10 1390 19 q 1360 0 1372 0 l 1214 0 q 1188 6 1197 0 q 1171 24 1179 13 l 933 404 l 811 404 l 811 33 q 802 10 811 19 q 778 0 793 0 l 656 0 q 631 10 640 0 q 621 33 621 19 l 621 404 l 499 404 l 261 24 q 219 0 247 0 l 74 0 q 51 10 60 0 q 42 32 42 19 q 46 47 42 42 l 333 503 l 72 926 q 65 943 65 936 q 73 964 65 956 q 94 972 81 972 l 235 972 q 283 947 269 972 l 507 579 l 621 581 l 621 939 q 631 963 621 953 q 656 972 640 972 l 778 972 q 802 963 793 972 q 811 939 811 954 l 811 581 l 924 579 l 1147 947 q 1197 972 1163 972 l 1338 972 q 1359 964 1351 972 q 1367 943 1367 956 q 1361 926 1367 933 l 1099 503 l 1388 47 z "},"З":{"ha":899,"x_min":53,"x_max":833,"o":"m 439 -14 q 232 22 317 -14 q 103 117 147 58 q 53 244 60 175 l 53 247 q 61 265 53 258 q 82 272 69 272 l 208 272 q 234 266 224 272 q 250 244 244 260 q 313 172 267 199 q 435 146 360 146 q 576 183 521 146 q 632 285 632 221 q 583 387 632 351 q 447 422 535 422 l 346 422 q 322 433 332 422 q 313 457 313 443 l 313 539 q 322 565 313 554 q 346 575 332 575 l 443 575 q 560 606 517 575 q 603 701 603 638 q 557 791 603 757 q 439 825 511 825 q 319 799 365 825 q 261 725 272 774 q 247 705 256 711 q 224 699 239 699 l 93 699 q 72 707 81 699 q 64 728 63 715 q 168 913 74 840 q 442 986 263 986 q 635 949 553 986 q 760 851 717 913 q 803 717 803 789 q 777 599 803 654 q 692 511 751 544 q 799 413 764 475 q 833 278 833 351 q 785 126 833 192 q 647 23 736 60 q 439 -14 558 -14 z "},"И":{"ha":1057,"x_min":108,"x_max":949,"o":"m 142 0 q 117 10 126 0 q 108 35 108 19 l 108 938 q 117 963 108 953 q 142 972 126 972 l 271 972 q 294 963 285 972 q 304 938 304 953 l 304 303 l 758 949 q 799 972 771 972 l 915 972 q 940 963 931 972 q 949 938 949 953 l 949 33 q 940 10 949 19 q 915 0 931 0 l 788 0 q 763 10 772 0 q 753 33 753 19 l 753 654 l 300 24 q 260 0 286 0 l 142 0 z "},"Й":{"ha":1057,"x_min":108,"x_max":949,"o":"m 142 0 q 117 10 126 0 q 108 35 108 19 l 108 938 q 117 963 108 953 q 142 972 126 972 l 271 972 q 294 963 285 972 q 304 938 304 953 l 304 303 l 758 949 q 799 972 771 972 l 915 972 q 940 963 931 972 q 949 938 949 953 l 949 33 q 940 10 949 19 q 915 0 931 0 l 788 0 q 763 10 772 0 q 753 33 753 19 l 753 654 l 300 24 q 260 0 286 0 l 142 0 m 529 1028 q 353 1080 408 1028 q 297 1215 297 1132 q 304 1234 297 1226 q 324 1242 311 1242 l 404 1242 q 424 1234 417 1242 q 431 1215 431 1226 q 529 1136 431 1136 q 626 1215 626 1136 q 633 1234 626 1226 q 653 1242 640 1242 l 733 1242 q 753 1234 746 1242 q 760 1215 760 1226 q 705 1080 760 1132 q 529 1028 650 1028 z "},"Ѝ":{"ha":1057,"x_min":108,"x_max":949,"o":"m 142 0 q 117 10 126 0 q 108 35 108 19 l 108 938 q 117 963 108 953 q 142 972 126 972 l 271 972 q 294 963 285 972 q 304 938 304 953 l 304 303 l 758 949 q 799 972 771 972 l 915 972 q 940 963 931 972 q 949 938 949 953 l 949 33 q 940 10 949 19 q 915 0 931 0 l 788 0 q 763 10 772 0 q 753 33 753 19 l 753 654 l 300 24 q 260 0 286 0 l 142 0 m 501 1042 q 476 1046 486 1042 q 453 1060 465 1050 l 279 1201 q 272 1218 272 1208 q 279 1238 272 1231 q 299 1246 286 1246 l 450 1246 q 478 1240 468 1246 q 501 1219 488 1235 l 614 1082 q 621 1064 621 1075 q 599 1042 621 1042 l 501 1042 z "},"К":{"ha":933,"x_min":108,"x_max":892,"o":"m 888 47 q 892 32 892 42 q 883 10 892 19 q 860 0 874 0 l 714 0 q 672 24 686 0 l 435 404 l 304 404 l 304 33 q 294 10 304 19 q 269 0 285 0 l 142 0 q 118 10 128 0 q 108 33 108 19 l 108 938 q 117 963 108 953 q 142 972 126 972 l 269 972 q 294 963 285 972 q 304 938 304 953 l 304 581 l 424 579 l 647 947 q 697 972 663 972 l 839 972 q 860 964 853 972 q 868 943 868 956 q 861 926 868 936 l 600 503 l 888 47 z "},"Ќ":{"ha":933,"x_min":108,"x_max":892,"o":"m 888 47 q 892 32 892 42 q 883 10 892 19 q 860 0 874 0 l 714 0 q 672 24 686 0 l 435 404 l 304 404 l 304 33 q 294 10 304 19 q 269 0 285 0 l 142 0 q 118 10 128 0 q 108 33 108 19 l 108 938 q 117 963 108 953 q 142 972 126 972 l 269 972 q 294 963 285 972 q 304 938 304 953 l 304 581 l 424 579 l 647 947 q 697 972 663 972 l 839 972 q 860 964 853 972 q 868 943 868 956 q 861 926 868 936 l 600 503 l 888 47 m 388 1042 q 365 1064 365 1042 q 372 1082 365 1075 l 486 1219 q 509 1240 499 1235 q 538 1246 519 1246 l 688 1246 q 707 1238 700 1246 q 714 1218 714 1231 q 707 1201 714 1208 l 533 1060 q 510 1046 521 1050 q 485 1042 500 1042 l 388 1042 z "},"Л":{"ha":1021,"x_min":36,"x_max":914,"o":"m 751 0 q 728 10 738 0 q 718 33 718 19 l 718 796 l 418 796 l 418 624 q 387 262 418 394 q 281 67 356 129 q 71 1 206 6 q 47 10 57 0 q 36 35 36 21 l 36 142 q 45 164 36 156 q 68 175 54 172 q 190 303 150 188 q 229 649 229 419 l 229 939 q 239 963 229 954 q 263 972 249 972 l 879 972 q 904 963 894 972 q 914 938 914 953 l 914 33 q 904 10 914 19 q 879 0 894 0 l 751 0 z "},"М":{"ha":1128,"x_min":108,"x_max":1019,"o":"m 142 0 q 118 10 128 0 q 108 33 108 19 l 108 938 q 117 963 108 953 q 142 972 126 972 l 254 972 q 296 946 281 972 l 564 449 l 832 946 q 874 972 847 972 l 985 972 q 1010 963 1000 972 q 1019 938 1019 953 l 1019 33 q 1010 9 1019 18 q 985 0 1000 0 l 865 0 q 842 10 851 0 q 832 33 832 19 l 832 631 l 639 264 q 593 233 624 233 l 535 233 q 488 264 506 233 l 294 631 l 294 33 q 285 10 294 19 q 261 0 276 0 l 142 0 z "},"Н":{"ha":1014,"x_min":108,"x_max":906,"o":"m 142 0 q 118 10 128 0 q 108 33 108 19 l 108 938 q 117 963 108 953 q 142 972 126 972 l 269 972 q 294 963 285 972 q 304 938 304 953 l 304 581 l 710 581 l 710 938 q 719 963 710 953 q 743 972 729 972 l 872 972 q 897 963 888 972 q 906 938 906 953 l 906 33 q 897 10 906 19 q 872 0 888 0 l 743 0 q 719 10 729 0 q 710 33 710 19 l 710 404 l 304 404 l 304 33 q 294 10 304 19 q 269 0 285 0 l 142 0 z "},"О":{"ha":965,"x_min":75,"x_max":893,"o":"m 483 -14 q 188 82 293 -14 q 76 367 82 178 q 75 485 75 407 q 76 604 75 564 q 190 888 82 789 q 483 986 299 986 q 776 888 667 986 q 890 604 885 789 q 893 485 893 524 q 890 367 893 447 q 778 82 885 178 q 483 -14 672 -14 m 483 147 q 631 203 576 147 q 689 374 685 258 q 692 486 692 457 q 689 599 692 518 q 629 769 685 713 q 483 825 574 825 q 336 769 392 825 q 278 599 281 713 q 276 486 276 558 q 278 374 276 415 q 335 203 281 260 q 483 147 390 147 z "},"П":{"ha":1014,"x_min":108,"x_max":906,"o":"m 142 0 q 118 10 128 0 q 108 33 108 19 l 108 938 q 117 963 108 953 q 142 972 126 972 l 872 972 q 897 963 888 972 q 906 938 906 953 l 906 33 q 897 10 906 19 q 872 0 888 0 l 743 0 q 719 10 729 0 q 710 33 710 19 l 710 796 l 304 796 l 304 33 q 294 10 304 19 q 269 0 285 0 l 142 0 z "},"Р":{"ha":917,"x_min":108,"x_max":874,"o":"m 142 0 q 118 10 128 0 q 108 33 108 19 l 108 938 q 117 963 108 953 q 142 972 126 972 l 514 972 q 778 893 682 972 q 874 663 874 814 q 778 435 874 513 q 514 358 682 358 l 310 358 l 310 33 q 300 9 310 18 q 275 0 290 0 l 142 0 m 507 514 q 630 552 588 514 q 672 664 672 590 q 631 776 672 736 q 507 817 590 817 l 307 817 l 307 514 l 507 514 z "},"С":{"ha":951,"x_min":74,"x_max":894,"o":"m 483 -14 q 187 84 292 -14 q 75 363 82 182 q 74 485 74 400 q 75 610 74 571 q 188 887 82 788 q 483 986 293 986 q 699 944 607 986 q 841 828 790 901 q 894 663 892 754 l 894 660 q 885 641 894 649 q 865 633 876 633 l 731 633 q 706 641 714 633 q 692 668 697 649 q 619 790 671 754 q 483 825 568 825 q 276 603 285 825 q 275 488 275 565 q 276 369 275 410 q 483 147 285 147 q 619 183 567 147 q 692 304 671 218 q 706 331 697 324 q 731 339 714 339 l 865 339 q 887 331 878 339 q 894 310 896 322 q 841 144 892 218 q 699 28 790 71 q 483 -14 607 -14 z "},"Т":{"ha":842,"x_min":32,"x_max":810,"o":"m 356 0 q 332 10 342 0 q 322 33 322 19 l 322 799 l 65 799 q 42 808 51 799 q 32 833 32 818 l 32 938 q 41 963 32 953 q 65 972 50 972 l 775 972 q 800 963 790 972 q 810 938 810 953 l 810 833 q 800 808 810 818 q 775 799 790 799 l 519 799 l 519 33 q 510 10 519 19 q 486 0 501 0 l 356 0 z "},"У":{"ha":863,"x_min":15,"x_max":863,"o":"m 833 972 q 854 964 846 972 q 863 944 863 956 q 857 921 863 931 l 578 283 q 489 114 529 172 q 391 28 449 56 q 240 0 333 0 l 175 0 q 151 10 161 0 q 142 33 142 19 l 142 139 q 151 163 142 153 q 175 172 161 172 l 226 172 q 306 197 274 172 q 369 281 339 222 l 18 928 q 15 942 15 939 q 24 963 15 954 q 46 972 33 972 l 185 972 q 221 946 208 972 l 465 490 l 664 946 q 703 972 674 972 l 833 972 z "},"Ў":{"ha":863,"x_min":15,"x_max":863,"o":"m 833 972 q 854 964 846 972 q 863 944 863 956 q 857 921 863 931 l 578 283 q 489 114 529 172 q 391 28 449 56 q 240 0 333 0 l 175 0 q 151 10 161 0 q 142 33 142 19 l 142 139 q 151 163 142 153 q 175 172 161 172 l 226 172 q 306 197 274 172 q 369 281 339 222 l 18 928 q 15 942 15 939 q 24 963 15 954 q 46 972 33 972 l 185 972 q 221 946 208 972 l 465 490 l 664 946 q 703 972 674 972 l 833 972 m 446 1028 q 269 1080 325 1028 q 214 1215 214 1132 q 221 1234 214 1226 q 240 1242 228 1242 l 321 1242 q 340 1234 333 1242 q 347 1215 347 1226 q 446 1136 347 1136 q 543 1215 543 1136 q 550 1234 543 1226 q 569 1242 557 1242 l 650 1242 q 669 1234 663 1242 q 676 1215 676 1226 q 622 1080 676 1132 q 446 1028 567 1028 z "},"Ф":{"ha":1240,"x_min":74,"x_max":1167,"o":"m 556 -44 q 532 -35 542 -44 q 522 -11 522 -26 l 522 92 q 75 456 106 92 l 74 506 l 75 556 q 203 828 85 733 q 522 922 321 922 l 522 1008 q 532 1033 522 1024 q 556 1042 542 1042 l 685 1042 q 709 1033 700 1042 q 718 1008 718 1024 l 718 922 q 1038 828 919 922 q 1165 556 1156 733 q 1167 499 1167 533 q 1165 456 1167 472 q 718 92 1136 92 l 718 -11 q 709 -35 718 -26 q 685 -44 700 -44 l 556 -44 m 524 760 q 347 709 408 760 q 276 550 286 658 l 275 507 l 276 463 q 524 253 289 253 l 524 760 m 717 253 q 964 463 954 253 q 965 514 965 476 q 964 550 965 540 q 892 709 954 658 q 717 760 831 760 l 717 253 z "},"Х":{"ha":921,"x_min":24,"x_max":897,"o":"m 53 0 q 33 8 42 0 q 24 29 24 17 q 29 46 24 35 l 339 496 l 49 926 q 43 943 43 935 q 52 964 43 956 q 72 972 61 972 l 218 972 q 261 946 243 972 l 464 649 l 668 946 q 711 972 683 972 l 849 972 q 869 964 860 972 q 878 943 878 956 q 872 926 878 938 l 582 496 l 893 46 q 897 29 897 38 q 889 8 897 17 q 868 0 881 0 l 719 0 q 676 25 694 0 l 457 338 l 240 25 q 197 0 222 0 l 53 0 z "},"Ч":{"ha":942,"x_min":69,"x_max":828,"o":"m 665 0 q 642 10 651 0 q 632 33 632 19 l 632 360 q 539 314 601 329 q 410 299 476 299 q 153 381 238 299 q 71 626 69 463 l 71 939 q 81 963 71 954 q 104 972 90 972 l 232 972 q 257 963 247 972 q 267 939 267 954 l 267 636 q 308 517 267 554 q 447 479 350 479 q 574 505 517 479 q 632 590 632 531 l 632 939 q 642 963 632 954 q 665 972 651 972 l 793 972 q 818 963 808 972 q 828 939 828 954 l 828 33 q 818 9 828 18 q 793 0 808 0 l 665 0 z "},"Ц":{"ha":1053,"x_min":108,"x_max":1007,"o":"m 844 -194 q 821 -185 831 -194 q 811 -161 811 -176 l 811 0 l 142 0 q 117 10 126 0 q 108 35 108 19 l 108 939 q 118 963 108 954 q 142 972 128 972 l 269 972 q 294 963 285 972 q 304 939 304 953 l 304 176 l 710 176 l 710 939 q 719 963 710 953 q 743 972 729 972 l 872 972 q 897 963 888 972 q 906 939 906 954 l 906 176 l 972 176 q 997 167 988 176 q 1007 143 1007 157 l 1007 -161 q 997 -185 1007 -176 q 972 -194 988 -194 l 844 -194 z "},"Ш":{"ha":1351,"x_min":108,"x_max":1244,"o":"m 142 0 q 118 10 128 0 q 108 33 108 19 l 108 939 q 118 963 108 954 q 142 972 128 972 l 269 972 q 294 963 285 972 q 304 939 304 953 l 304 176 l 578 176 l 578 939 q 588 963 578 953 q 613 972 597 972 l 740 972 q 765 963 756 972 q 774 939 774 954 l 774 176 l 1049 176 l 1049 939 q 1058 963 1049 954 q 1082 972 1068 972 l 1210 972 q 1235 963 1225 972 q 1244 939 1244 953 l 1244 33 q 1235 10 1244 19 q 1210 0 1225 0 l 142 0 z "},"Щ":{"ha":1390,"x_min":108,"x_max":1344,"o":"m 1182 -194 q 1158 -185 1168 -194 q 1149 -161 1149 -175 l 1149 0 l 142 0 q 118 10 128 0 q 108 33 108 19 l 108 939 q 118 963 108 954 q 142 972 128 972 l 269 972 q 294 963 285 972 q 304 939 304 953 l 304 176 l 578 176 l 578 939 q 588 963 578 953 q 613 972 597 972 l 740 972 q 765 963 756 972 q 774 939 774 954 l 774 176 l 1049 176 l 1049 939 q 1058 963 1049 954 q 1082 972 1068 972 l 1210 972 q 1235 963 1225 972 q 1244 939 1244 953 l 1244 176 l 1311 176 q 1335 167 1325 176 q 1344 143 1344 157 l 1344 -161 q 1335 -185 1344 -176 q 1311 -194 1326 -194 l 1182 -194 z "},"Џ":{"ha":1014,"x_min":108,"x_max":906,"o":"m 442 -194 q 418 -185 428 -194 q 408 -161 408 -175 l 408 0 l 142 0 q 118 10 128 0 q 108 33 108 19 l 108 939 q 118 963 108 954 q 142 972 128 972 l 269 972 q 294 963 285 972 q 304 939 304 953 l 304 176 l 710 176 l 710 939 q 719 963 710 953 q 743 972 729 972 l 872 972 q 897 963 888 972 q 906 939 906 954 l 906 33 q 897 10 906 19 q 872 0 888 0 l 604 0 l 604 -161 q 595 -185 604 -176 q 571 -194 586 -194 l 442 -194 z "},"Ь":{"ha":878,"x_min":108,"x_max":829,"o":"m 142 0 q 118 10 128 0 q 108 33 108 19 l 108 939 q 118 963 108 954 q 142 972 128 972 l 269 972 q 294 963 285 972 q 304 939 304 953 l 304 622 l 482 622 q 739 544 649 622 q 829 315 829 465 q 790 153 829 225 q 672 41 750 82 q 482 0 593 0 l 142 0 m 474 157 q 587 201 546 157 q 628 317 628 244 q 588 428 628 390 q 474 467 549 467 l 304 467 l 304 157 l 474 157 z "},"Ъ":{"ha":1029,"x_min":32,"x_max":979,"o":"m 300 0 q 276 10 286 0 q 267 33 267 19 l 267 811 l 65 811 q 42 821 51 811 q 32 844 32 831 l 32 938 q 41 963 32 953 q 65 972 50 972 l 429 972 q 453 963 444 972 q 463 939 463 954 l 463 622 l 632 622 q 889 544 799 622 q 979 315 979 467 q 940 153 979 225 q 822 41 900 82 q 632 0 743 0 l 300 0 m 624 157 q 737 201 696 157 q 778 317 778 244 q 739 428 778 390 q 624 467 700 467 l 463 467 l 463 157 l 624 157 z "}}}
